<svg width="167" height="52" viewBox="0 0 167 52" fill="none" xmlns="http://www.w3.org/2000/svg">
<rect x="0.3" y="0.3" width="166.4" height="51.4" rx="7.7" fill="#262C55" stroke="#262C55" stroke-width="0.6"/>
<path d="M57.8523 14C57.7741 13.7609 57.6712 13.5466 57.5433 13.3572C57.4179 13.1655 57.2675 13.0021 57.0923 12.8672C56.9195 12.7322 56.723 12.6293 56.5028 12.5582C56.2827 12.4872 56.0412 12.4517 55.7784 12.4517C55.3475 12.4517 54.9557 12.563 54.603 12.7855C54.2502 13.008 53.9697 13.3359 53.7614 13.7692C53.553 14.2024 53.4489 14.7339 53.4489 15.3636C53.4489 15.9934 53.5542 16.5249 53.7649 16.9581C53.9756 17.3913 54.2609 17.7192 54.6207 17.9418C54.9806 18.1643 55.3854 18.2756 55.8352 18.2756C56.2519 18.2756 56.6188 18.1868 56.9361 18.0092C57.2557 17.8293 57.5043 17.576 57.6818 17.2493C57.8617 16.9202 57.9517 16.5331 57.9517 16.0881L58.2216 16.1449H56.0341V15.3636H58.804V16.1449C58.804 16.7438 58.6761 17.2647 58.4205 17.7074C58.1671 18.1501 57.8168 18.4934 57.3693 18.7372C56.9242 18.9787 56.4129 19.0994 55.8352 19.0994C55.1913 19.0994 54.6255 18.9479 54.1378 18.6449C53.6525 18.3419 53.2737 17.911 53.0014 17.3523C52.7315 16.7936 52.5966 16.1307 52.5966 15.3636C52.5966 14.7884 52.6735 14.2711 52.8274 13.8118C52.9837 13.3501 53.2038 12.9571 53.4879 12.6328C53.772 12.3085 54.1082 12.0599 54.4964 11.8871C54.8847 11.7143 55.312 11.6278 55.7784 11.6278C56.1619 11.6278 56.5194 11.6858 56.8509 11.8018C57.1847 11.9155 57.4818 12.0777 57.7422 12.2884C58.005 12.4967 58.224 12.7464 58.3991 13.0376C58.5743 13.3265 58.6951 13.6473 58.7614 14H57.8523ZM62.4856 19.1136C61.96 19.1136 61.5067 18.9976 61.1255 18.7656C60.7467 18.5312 60.4544 18.2045 60.2484 17.7855C60.0448 17.3641 59.943 16.8741 59.943 16.3153C59.943 15.7566 60.0448 15.2642 60.2484 14.8381C60.4544 14.4096 60.7408 14.0758 61.1078 13.8366C61.4771 13.5952 61.908 13.4744 62.4004 13.4744C62.6845 13.4744 62.965 13.5218 63.242 13.6165C63.519 13.7112 63.7711 13.8651 63.9984 14.0781C64.2257 14.2888 64.4068 14.5682 64.5417 14.9162C64.6767 15.2642 64.7441 15.6927 64.7441 16.2017V16.5568H60.5396V15.8324H63.8919C63.8919 15.5246 63.8303 15.25 63.7072 15.0085C63.5865 14.767 63.4136 14.5765 63.1887 14.4368C62.9662 14.2971 62.7034 14.2273 62.4004 14.2273C62.0666 14.2273 61.7778 14.3101 61.5339 14.4759C61.2924 14.6392 61.1066 14.8523 60.9764 15.1151C60.8462 15.3778 60.7811 15.6596 60.7811 15.9602V16.4432C60.7811 16.8551 60.8521 17.2043 60.9941 17.4908C61.1386 17.7749 61.3386 17.9915 61.5943 18.1406C61.85 18.2874 62.1471 18.3608 62.4856 18.3608C62.7058 18.3608 62.9047 18.33 63.0822 18.2685C63.2621 18.2045 63.4172 18.1098 63.5474 17.9844C63.6776 17.8565 63.7782 17.6979 63.8493 17.5085L64.6589 17.7358C64.5737 18.0104 64.4305 18.2519 64.2292 18.4602C64.028 18.6662 63.7794 18.8272 63.4835 18.9432C63.1876 19.0568 62.8549 19.1136 62.4856 19.1136ZM68.3912 13.5455V14.2557H65.5645V13.5455H68.3912ZM66.3883 12.2386H67.2264V17.4375C67.2264 17.6742 67.2607 17.8518 67.3294 17.9702C67.4004 18.0862 67.4904 18.1643 67.5993 18.2045C67.7105 18.2424 67.8277 18.2614 67.9508 18.2614C68.0431 18.2614 68.1189 18.2566 68.1781 18.2472C68.2373 18.2353 68.2846 18.2259 68.3201 18.2188L68.4906 18.9716C68.4338 18.9929 68.3545 19.0142 68.2527 19.0355C68.1509 19.0592 68.0218 19.071 67.8656 19.071C67.6288 19.071 67.3968 19.0201 67.1696 18.9183C66.9447 18.8165 66.7576 18.6615 66.6085 18.4531C66.4617 18.2448 66.3883 17.982 66.3883 17.6648V12.2386ZM74.6802 19.1136C74.1878 19.1136 73.7557 18.9964 73.3841 18.7621C73.0147 18.5277 72.7259 18.1998 72.5176 17.7784C72.3116 17.357 72.2086 16.8646 72.2086 16.3011C72.2086 15.733 72.3116 15.237 72.5176 14.8132C72.7259 14.3894 73.0147 14.0604 73.3841 13.826C73.7557 13.5916 74.1878 13.4744 74.6802 13.4744C75.1726 13.4744 75.6035 13.5916 75.9728 13.826C76.3445 14.0604 76.6333 14.3894 76.8393 14.8132C77.0476 15.237 77.1518 15.733 77.1518 16.3011C77.1518 16.8646 77.0476 17.357 76.8393 17.7784C76.6333 18.1998 76.3445 18.5277 75.9728 18.7621C75.6035 18.9964 75.1726 19.1136 74.6802 19.1136ZM74.6802 18.3608C75.0543 18.3608 75.362 18.2649 75.6035 18.0732C75.845 17.8814 76.0237 17.6293 76.1397 17.3168C76.2557 17.0043 76.3137 16.6657 76.3137 16.3011C76.3137 15.9366 76.2557 15.5968 76.1397 15.282C76.0237 14.9671 75.845 14.7126 75.6035 14.5185C75.362 14.3243 75.0543 14.2273 74.6802 14.2273C74.3062 14.2273 73.9984 14.3243 73.7569 14.5185C73.5154 14.7126 73.3367 14.9671 73.2207 15.282C73.1047 15.5968 73.0467 15.9366 73.0467 16.3011C73.0467 16.6657 73.1047 17.0043 73.2207 17.3168C73.3367 17.6293 73.5154 17.8814 73.7569 18.0732C73.9984 18.2649 74.3062 18.3608 74.6802 18.3608ZM79.2692 15.7188V19H78.4311V13.5455H79.2408V14.3977H79.3118C79.4396 14.1207 79.6338 13.8982 79.8942 13.7301C80.1546 13.5597 80.4908 13.4744 80.9027 13.4744C81.272 13.4744 81.5952 13.5502 81.8722 13.7017C82.1491 13.8509 82.3646 14.0781 82.5185 14.3835C82.6723 14.6866 82.7493 15.0701 82.7493 15.5341V19H81.9112V15.5909C81.9112 15.1624 81.8 14.8286 81.5774 14.5895C81.3549 14.348 81.0495 14.2273 80.6612 14.2273C80.3937 14.2273 80.1546 14.2853 79.9439 14.4013C79.7356 14.5173 79.571 14.6866 79.4503 14.9091C79.3295 15.1316 79.2692 15.4015 79.2692 15.7188Z" fill="white"/>
<path d="M32.4949 14.3686C33.6523 13.2107 34.4351 11.6031 34.2208 10C32.5534 10.0556 30.5326 10.9147 29.3358 12.0725C28.2629 13.0975 27.3236 14.7356 27.5743 16.3072C29.4349 16.4249 31.3356 15.5246 32.4949 14.3686ZM36.0458 25.4393C36.0103 21.8454 39.0906 20.1193 39.227 20.0359C37.4952 17.5954 34.7982 17.2614 33.8377 17.2238C31.5412 16.9985 29.36 18.5235 28.194 18.5235C27.0329 18.5235 25.2368 17.2534 23.3321 17.2875C20.8282 17.326 18.521 18.6886 17.2351 20.8481C14.634 25.1925 16.5684 31.6282 19.103 35.1521C20.342 36.8772 21.8173 38.8124 23.7545 38.7424C25.6246 38.6724 26.3296 37.5801 28.5858 37.5801C30.8429 37.5801 31.4749 38.7424 33.4496 38.7074C35.4589 38.6724 36.7305 36.9491 37.959 35.2185C39.3805 33.2178 39.9664 31.2808 40 31.183C39.9569 31.1596 36.0871 29.737 36.0458 25.4393Z" fill="white"/>
<path d="M54.642 39H52.392L56.4886 27.3636H59.0909L63.1932 39H60.9432L57.8352 29.75H57.7443L54.642 39ZM54.7159 34.4375H60.8523V36.1307H54.7159V34.4375ZM64.6349 42.2727V30.2727H66.6577V31.7159H66.777C66.883 31.5038 67.0327 31.2784 67.2259 31.0398C67.419 30.7973 67.6804 30.5909 68.0099 30.4205C68.3395 30.2462 68.7599 30.1591 69.2713 30.1591C69.9455 30.1591 70.5535 30.3314 71.0952 30.6761C71.6406 31.017 72.0724 31.5227 72.3906 32.1932C72.7126 32.8598 72.8736 33.678 72.8736 34.6477C72.8736 35.6061 72.7164 36.4205 72.402 37.0909C72.0876 37.7614 71.6596 38.2727 71.1179 38.625C70.5762 38.9773 69.9626 39.1534 69.277 39.1534C68.777 39.1534 68.3622 39.0701 68.0327 38.9034C67.7031 38.7367 67.438 38.536 67.2372 38.3011C67.0402 38.0625 66.8868 37.8371 66.777 37.625H66.6918V42.2727H64.6349ZM66.652 34.6364C66.652 35.2008 66.7315 35.6951 66.8906 36.1193C67.0535 36.5436 67.2865 36.875 67.5895 37.1136C67.8963 37.3485 68.2675 37.4659 68.7031 37.4659C69.1577 37.4659 69.5384 37.3447 69.8452 37.1023C70.152 36.8561 70.383 36.5208 70.5384 36.0966C70.6974 35.6686 70.777 35.1818 70.777 34.6364C70.777 34.0947 70.6993 33.6136 70.544 33.1932C70.3887 32.7727 70.1577 32.4432 69.8509 32.2045C69.544 31.9659 69.1615 31.8466 68.7031 31.8466C68.2637 31.8466 67.8906 31.9621 67.5838 32.1932C67.277 32.4242 67.044 32.7481 66.8849 33.1648C66.7296 33.5814 66.652 34.072 66.652 34.6364ZM74.6349 42.2727V30.2727H76.6577V31.7159H76.777C76.883 31.5038 77.0327 31.2784 77.2259 31.0398C77.419 30.7973 77.6804 30.5909 78.0099 30.4205C78.3395 30.2462 78.7599 30.1591 79.2713 30.1591C79.9455 30.1591 80.5535 30.3314 81.0952 30.6761C81.6406 31.017 82.0724 31.5227 82.3906 32.1932C82.7126 32.8598 82.8736 33.678 82.8736 34.6477C82.8736 35.6061 82.7164 36.4205 82.402 37.0909C82.0876 37.7614 81.6596 38.2727 81.1179 38.625C80.5762 38.9773 79.9626 39.1534 79.277 39.1534C78.777 39.1534 78.3622 39.0701 78.0327 38.9034C77.7031 38.7367 77.438 38.536 77.2372 38.3011C77.0402 38.0625 76.8868 37.8371 76.777 37.625H76.6918V42.2727H74.6349ZM76.652 34.6364C76.652 35.2008 76.7315 35.6951 76.8906 36.1193C77.0535 36.5436 77.2865 36.875 77.5895 37.1136C77.8963 37.3485 78.2675 37.4659 78.7031 37.4659C79.1577 37.4659 79.5384 37.3447 79.8452 37.1023C80.152 36.8561 80.383 36.5208 80.5384 36.0966C80.6974 35.6686 80.777 35.1818 80.777 34.6364C80.777 34.0947 80.6993 33.6136 80.544 33.1932C80.3887 32.7727 80.1577 32.4432 79.8509 32.2045C79.544 31.9659 79.1615 31.8466 78.7031 31.8466C78.2637 31.8466 77.8906 31.9621 77.5838 32.1932C77.277 32.4242 77.044 32.7481 76.8849 33.1648C76.7296 33.5814 76.652 34.072 76.652 34.6364ZM91.0497 30.5625C90.9967 30.0663 90.7732 29.6799 90.3793 29.4034C89.9891 29.1269 89.4815 28.9886 88.8565 28.9886C88.4171 28.9886 88.0402 29.0549 87.7259 29.1875C87.4115 29.3201 87.1709 29.5 87.0043 29.7273C86.8376 29.9545 86.7524 30.214 86.7486 30.5057C86.7486 30.7481 86.8035 30.9583 86.9134 31.1364C87.027 31.3144 87.1804 31.4659 87.3736 31.5909C87.5668 31.7121 87.7808 31.8144 88.0156 31.8977C88.2505 31.9811 88.4872 32.0511 88.7259 32.108L89.8168 32.3807C90.2562 32.483 90.6785 32.6212 91.0838 32.7955C91.4929 32.9697 91.8584 33.1894 92.1804 33.4545C92.5062 33.7197 92.7637 34.0398 92.9531 34.4148C93.1425 34.7898 93.2372 35.2292 93.2372 35.733C93.2372 36.4148 93.063 37.0152 92.7145 37.5341C92.366 38.0492 91.8622 38.4527 91.2031 38.7443C90.5478 39.0322 89.7543 39.1761 88.8224 39.1761C87.9171 39.1761 87.1312 39.036 86.4645 38.7557C85.8016 38.4754 85.2827 38.0663 84.9077 37.5284C84.5365 36.9905 84.3357 36.3352 84.3054 35.5625H86.3793C86.4096 35.9678 86.5346 36.3049 86.7543 36.5739C86.974 36.8428 87.2599 37.0436 87.6122 37.1761C87.9683 37.3087 88.366 37.375 88.8054 37.375C89.2637 37.375 89.6652 37.3068 90.0099 37.1705C90.3584 37.0303 90.6312 36.8371 90.8281 36.5909C91.0251 36.3409 91.1255 36.0492 91.1293 35.7159C91.1255 35.4129 91.0365 35.1629 90.8622 34.9659C90.688 34.7652 90.4437 34.5985 90.1293 34.4659C89.8187 34.3295 89.455 34.2083 89.0384 34.1023L87.7145 33.7614C86.7562 33.5152 85.9986 33.142 85.4418 32.642C84.8887 32.1383 84.6122 31.4697 84.6122 30.6364C84.6122 29.9508 84.7978 29.3504 85.169 28.8352C85.544 28.3201 86.0535 27.9205 86.6974 27.6364C87.3414 27.3485 88.0705 27.2045 88.8849 27.2045C89.7107 27.2045 90.4342 27.3485 91.0554 27.6364C91.6804 27.9205 92.1709 28.3163 92.527 28.8239C92.883 29.3277 93.0668 29.9072 93.0781 30.5625H91.0497ZM99.3835 30.2727V31.8636H94.3665V30.2727H99.3835ZM95.6051 28.1818H97.6619V36.375C97.6619 36.6515 97.7036 36.8636 97.7869 37.0114C97.8741 37.1553 97.9877 37.2538 98.1278 37.3068C98.268 37.3598 98.4233 37.3864 98.5938 37.3864C98.7225 37.3864 98.84 37.3769 98.946 37.358C99.0559 37.339 99.1392 37.322 99.196 37.3068L99.5426 38.9148C99.4328 38.9527 99.2756 38.9943 99.071 39.0398C98.8703 39.0852 98.6241 39.1117 98.3324 39.1193C97.8172 39.1345 97.3532 39.0568 96.9403 38.8864C96.5275 38.7121 96.1998 38.4432 95.9574 38.0795C95.7188 37.7159 95.6013 37.2614 95.6051 36.7159V28.1818ZM104.817 39.1705C103.964 39.1705 103.226 38.983 102.601 38.608C101.976 38.233 101.491 37.7083 101.146 37.0341C100.805 36.3598 100.635 35.572 100.635 34.6705C100.635 33.7689 100.805 32.9792 101.146 32.3011C101.491 31.6231 101.976 31.0966 102.601 30.7216C103.226 30.3466 103.964 30.1591 104.817 30.1591C105.669 30.1591 106.408 30.3466 107.033 30.7216C107.658 31.0966 108.141 31.6231 108.482 32.3011C108.826 32.9792 108.999 33.7689 108.999 34.6705C108.999 35.572 108.826 36.3598 108.482 37.0341C108.141 37.7083 107.658 38.233 107.033 38.608C106.408 38.983 105.669 39.1705 104.817 39.1705ZM104.828 37.5227C105.29 37.5227 105.677 37.3958 105.987 37.142C106.298 36.8845 106.529 36.5398 106.68 36.108C106.836 35.6761 106.913 35.1951 106.913 34.6648C106.913 34.1307 106.836 33.6477 106.68 33.2159C106.529 32.7803 106.298 32.4337 105.987 32.1761C105.677 31.9186 105.29 31.7898 104.828 31.7898C104.355 31.7898 103.961 31.9186 103.646 32.1761C103.336 32.4337 103.103 32.7803 102.947 33.2159C102.796 33.6477 102.72 34.1307 102.72 34.6648C102.72 35.1951 102.796 35.6761 102.947 36.108C103.103 36.5398 103.336 36.8845 103.646 37.142C103.961 37.3958 104.355 37.5227 104.828 37.5227ZM110.744 39V30.2727H112.739V31.7273H112.83C112.989 31.2235 113.261 30.8352 113.648 30.5625C114.038 30.286 114.483 30.1477 114.983 30.1477C115.097 30.1477 115.223 30.1534 115.364 30.1648C115.508 30.1723 115.627 30.1856 115.722 30.2045V32.0966C115.634 32.0663 115.496 32.0398 115.307 32.017C115.121 31.9905 114.941 31.9773 114.767 31.9773C114.392 31.9773 114.055 32.0587 113.756 32.2216C113.46 32.3807 113.227 32.6023 113.057 32.8864C112.886 33.1705 112.801 33.4981 112.801 33.8693V39H110.744ZM120.592 39.1705C119.717 39.1705 118.962 38.9886 118.325 38.625C117.693 38.2576 117.206 37.7386 116.865 37.0682C116.524 36.3939 116.354 35.6004 116.354 34.6875C116.354 33.7898 116.524 33.0019 116.865 32.3239C117.21 31.642 117.691 31.1117 118.308 30.733C118.926 30.3504 119.651 30.1591 120.484 30.1591C121.022 30.1591 121.53 30.2462 122.007 30.4205C122.488 30.5909 122.912 30.8561 123.28 31.2159C123.651 31.5758 123.943 32.0341 124.155 32.5909C124.367 33.1439 124.473 33.803 124.473 34.5682V35.1989H117.32V33.8125H122.501C122.498 33.4186 122.412 33.0682 122.246 32.7614C122.079 32.4508 121.846 32.2064 121.547 32.0284C121.251 31.8504 120.907 31.7614 120.513 31.7614C120.092 31.7614 119.723 31.8636 119.405 32.0682C119.087 32.2689 118.839 32.5341 118.661 32.8636C118.486 33.1894 118.397 33.5473 118.393 33.9375V35.1477C118.393 35.6553 118.486 36.0909 118.672 36.4545C118.857 36.8144 119.117 37.0909 119.45 37.2841C119.784 37.4735 120.174 37.5682 120.621 37.5682C120.92 37.5682 121.191 37.5265 121.433 37.4432C121.676 37.3561 121.886 37.2292 122.064 37.0625C122.242 36.8958 122.376 36.6894 122.467 36.4432L124.388 36.6591C124.267 37.1667 124.036 37.6098 123.695 37.9886C123.357 38.3636 122.926 38.6553 122.399 38.8636C121.873 39.0682 121.27 39.1705 120.592 39.1705Z" fill="white"/>
</svg>
