<svg width="139" height="50" viewBox="0 0 139 50" fill="none" xmlns="http://www.w3.org/2000/svg">
<rect x="0.3" y="0.3" width="138.4" height="49.4" rx="7.7" fill="#262C55" stroke="#262C55" stroke-width="0.6"/>
<path d="M49.8523 15C49.7741 14.7609 49.6712 14.5466 49.5433 14.3572C49.4179 14.1655 49.2675 14.0021 49.0923 13.8672C48.9195 13.7322 48.723 13.6293 48.5028 13.5582C48.2827 13.4872 48.0412 13.4517 47.7784 13.4517C47.3475 13.4517 46.9557 13.563 46.603 13.7855C46.2502 14.008 45.9697 14.3359 45.7614 14.7692C45.553 15.2024 45.4489 15.7339 45.4489 16.3636C45.4489 16.9934 45.5542 17.5249 45.7649 17.9581C45.9756 18.3913 46.2609 18.7192 46.6207 18.9418C46.9806 19.1643 47.3854 19.2756 47.8352 19.2756C48.2519 19.2756 48.6188 19.1868 48.9361 19.0092C49.2557 18.8293 49.5043 18.576 49.6818 18.2493C49.8617 17.9202 49.9517 17.5331 49.9517 17.0881L50.2216 17.1449H48.0341V16.3636H50.804V17.1449C50.804 17.7438 50.6761 18.2647 50.4205 18.7074C50.1671 19.1501 49.8168 19.4934 49.3693 19.7372C48.9242 19.9787 48.4129 20.0994 47.8352 20.0994C47.1913 20.0994 46.6255 19.9479 46.1378 19.6449C45.6525 19.3419 45.2737 18.911 45.0014 18.3523C44.7315 17.7936 44.5966 17.1307 44.5966 16.3636C44.5966 15.7884 44.6735 15.2711 44.8274 14.8118C44.9837 14.3501 45.2038 13.9571 45.4879 13.6328C45.772 13.3085 46.1082 13.0599 46.4964 12.8871C46.8847 12.7143 47.312 12.6278 47.7784 12.6278C48.1619 12.6278 48.5194 12.6858 48.8509 12.8018C49.1847 12.9155 49.4818 13.0777 49.7422 13.2884C50.005 13.4967 50.224 13.7464 50.3991 14.0376C50.5743 14.3265 50.6951 14.6473 50.7614 15H49.8523ZM54.4856 20.1136C53.96 20.1136 53.5067 19.9976 53.1255 19.7656C52.7467 19.5312 52.4544 19.2045 52.2484 18.7855C52.0448 18.3641 51.943 17.8741 51.943 17.3153C51.943 16.7566 52.0448 16.2642 52.2484 15.8381C52.4544 15.4096 52.7408 15.0758 53.1078 14.8366C53.4771 14.5952 53.908 14.4744 54.4004 14.4744C54.6845 14.4744 54.965 14.5218 55.242 14.6165C55.519 14.7112 55.7711 14.8651 55.9984 15.0781C56.2257 15.2888 56.4068 15.5682 56.5417 15.9162C56.6767 16.2642 56.7441 16.6927 56.7441 17.2017V17.5568H52.5396V16.8324H55.8919C55.8919 16.5246 55.8303 16.25 55.7072 16.0085C55.5865 15.767 55.4136 15.5765 55.1887 15.4368C54.9662 15.2971 54.7034 15.2273 54.4004 15.2273C54.0666 15.2273 53.7778 15.3101 53.5339 15.4759C53.2924 15.6392 53.1066 15.8523 52.9764 16.1151C52.8462 16.3778 52.7811 16.6596 52.7811 16.9602V17.4432C52.7811 17.8551 52.8521 18.2043 52.9941 18.4908C53.1386 18.7749 53.3386 18.9915 53.5943 19.1406C53.85 19.2874 54.1471 19.3608 54.4856 19.3608C54.7058 19.3608 54.9047 19.33 55.0822 19.2685C55.2621 19.2045 55.4172 19.1098 55.5474 18.9844C55.6776 18.8565 55.7782 18.6979 55.8493 18.5085L56.6589 18.7358C56.5737 19.0104 56.4305 19.2519 56.2292 19.4602C56.028 19.6662 55.7794 19.8272 55.4835 19.9432C55.1876 20.0568 54.8549 20.1136 54.4856 20.1136ZM60.3912 14.5455V15.2557H57.5645V14.5455H60.3912ZM58.3883 13.2386H59.2264V18.4375C59.2264 18.6742 59.2607 18.8518 59.3294 18.9702C59.4004 19.0862 59.4904 19.1643 59.5993 19.2045C59.7105 19.2424 59.8277 19.2614 59.9508 19.2614C60.0431 19.2614 60.1189 19.2566 60.1781 19.2472C60.2373 19.2353 60.2846 19.2259 60.3201 19.2188L60.4906 19.9716C60.4338 19.9929 60.3545 20.0142 60.2527 20.0355C60.1509 20.0592 60.0218 20.071 59.8656 20.071C59.6288 20.071 59.3968 20.0201 59.1696 19.9183C58.9447 19.8165 58.7576 19.6615 58.6085 19.4531C58.4617 19.2448 58.3883 18.982 58.3883 18.6648V13.2386ZM66.6802 20.1136C66.1878 20.1136 65.7557 19.9964 65.3841 19.7621C65.0147 19.5277 64.7259 19.1998 64.5176 18.7784C64.3116 18.357 64.2086 17.8646 64.2086 17.3011C64.2086 16.733 64.3116 16.237 64.5176 15.8132C64.7259 15.3894 65.0147 15.0604 65.3841 14.826C65.7557 14.5916 66.1878 14.4744 66.6802 14.4744C67.1726 14.4744 67.6035 14.5916 67.9728 14.826C68.3445 15.0604 68.6333 15.3894 68.8393 15.8132C69.0476 16.237 69.1518 16.733 69.1518 17.3011C69.1518 17.8646 69.0476 18.357 68.8393 18.7784C68.6333 19.1998 68.3445 19.5277 67.9728 19.7621C67.6035 19.9964 67.1726 20.1136 66.6802 20.1136ZM66.6802 19.3608C67.0543 19.3608 67.362 19.2649 67.6035 19.0732C67.845 18.8814 68.0237 18.6293 68.1397 18.3168C68.2557 18.0043 68.3137 17.6657 68.3137 17.3011C68.3137 16.9366 68.2557 16.5968 68.1397 16.282C68.0237 15.9671 67.845 15.7126 67.6035 15.5185C67.362 15.3243 67.0543 15.2273 66.6802 15.2273C66.3062 15.2273 65.9984 15.3243 65.7569 15.5185C65.5154 15.7126 65.3367 15.9671 65.2207 16.282C65.1047 16.5968 65.0467 16.9366 65.0467 17.3011C65.0467 17.6657 65.1047 18.0043 65.2207 18.3168C65.3367 18.6293 65.5154 18.8814 65.7569 19.0732C65.9984 19.2649 66.3062 19.3608 66.6802 19.3608ZM71.2692 16.7188V20H70.4311V14.5455H71.2408V15.3977H71.3118C71.4396 15.1207 71.6338 14.8982 71.8942 14.7301C72.1546 14.5597 72.4908 14.4744 72.9027 14.4744C73.272 14.4744 73.5952 14.5502 73.8722 14.7017C74.1491 14.8509 74.3646 15.0781 74.5185 15.3835C74.6723 15.6866 74.7493 16.0701 74.7493 16.5341V20H73.9112V16.5909C73.9112 16.1624 73.8 15.8286 73.5774 15.5895C73.3549 15.348 73.0495 15.2273 72.6612 15.2273C72.3937 15.2273 72.1546 15.2853 71.9439 15.4013C71.7356 15.5173 71.571 15.6866 71.4503 15.9091C71.3295 16.1316 71.2692 16.4015 71.2692 16.7188Z" fill="white"/>
<path d="M25.433 14.8225C26.4457 13.8093 27.1307 12.4027 26.9432 11C25.4843 11.0487 23.7161 11.8003 22.6688 12.8134C21.7301 13.7103 20.9082 15.1437 21.1275 16.5188C22.7555 16.6218 24.4187 15.834 25.433 14.8225ZM28.5401 24.5094C28.509 21.3648 31.2042 19.8544 31.3236 19.7814C29.8083 17.646 27.4485 17.3538 26.608 17.3208C24.5986 17.1237 22.69 18.458 21.6698 18.458C20.6538 18.458 19.0822 17.3467 17.4156 17.3765C15.2247 17.4103 13.2059 18.6025 12.0807 20.4921C9.80472 24.2935 11.4973 29.9246 13.7151 33.008C14.7993 34.5175 16.0901 36.2109 17.7852 36.1496C19.4215 36.0884 20.0384 35.1326 22.0126 35.1326C23.9876 35.1326 24.5405 36.1496 26.2684 36.119C28.0265 36.0884 29.1392 34.5804 30.2142 33.0662C31.4579 31.3156 31.9706 29.6207 32 29.5351C31.9622 29.5147 28.5762 28.2699 28.5401 24.5094Z" fill="white"/>
<path d="M46.3118 37H44.343L47.9276 26.8182H50.2045L53.794 37H51.8253L49.1058 28.9062H49.0263L46.3118 37ZM46.3764 33.0078H51.7457V34.4893H46.3764V33.0078ZM55.0556 39.8636V29.3636H56.8255V30.6264H56.9299C57.0227 30.4408 57.1536 30.2436 57.3226 30.0348C57.4917 29.8227 57.7203 29.642 58.0087 29.4929C58.2971 29.3404 58.665 29.2642 59.1124 29.2642C59.7024 29.2642 60.2343 29.415 60.7083 29.7166C61.1855 30.0149 61.5634 30.4574 61.8418 31.044C62.1235 31.6274 62.2644 32.3433 62.2644 33.1918C62.2644 34.0303 62.1268 34.7429 61.8517 35.3295C61.5766 35.9162 61.2021 36.3636 60.7282 36.6719C60.2542 36.9801 59.7173 37.1342 59.1174 37.1342C58.6799 37.1342 58.3169 37.0613 58.0286 36.9155C57.7402 36.7696 57.5082 36.594 57.3326 36.3885C57.1602 36.1797 57.026 35.9825 56.9299 35.7969H56.8553V39.8636H55.0556ZM56.8205 33.1818C56.8205 33.6757 56.8901 34.1082 57.0293 34.4794C57.1718 34.8506 57.3757 35.1406 57.6408 35.3494C57.9093 35.5549 58.2341 35.6577 58.6152 35.6577C59.013 35.6577 59.3461 35.5516 59.6145 35.3395C59.883 35.1241 60.0852 34.8307 60.2211 34.4595C60.3603 34.085 60.4299 33.6591 60.4299 33.1818C60.4299 32.7079 60.3619 32.2869 60.226 31.919C60.0901 31.5511 59.888 31.2628 59.6195 31.054C59.351 30.8452 59.0163 30.7408 58.6152 30.7408C58.2308 30.7408 57.9043 30.8419 57.6358 31.044C57.3674 31.2462 57.1635 31.5296 57.0243 31.8942C56.8884 32.2588 56.8205 32.688 56.8205 33.1818ZM63.8056 39.8636V29.3636H65.5755V30.6264H65.6799C65.7727 30.4408 65.9036 30.2436 66.0726 30.0348C66.2417 29.8227 66.4703 29.642 66.7587 29.4929C67.0471 29.3404 67.415 29.2642 67.8624 29.2642C68.4524 29.2642 68.9843 29.415 69.4583 29.7166C69.9355 30.0149 70.3134 30.4574 70.5918 31.044C70.8735 31.6274 71.0144 32.3433 71.0144 33.1918C71.0144 34.0303 70.8768 34.7429 70.6017 35.3295C70.3266 35.9162 69.9521 36.3636 69.4782 36.6719C69.0042 36.9801 68.4673 37.1342 67.8674 37.1342C67.4299 37.1342 67.0669 37.0613 66.7786 36.9155C66.4902 36.7696 66.2582 36.594 66.0826 36.3885C65.9102 36.1797 65.776 35.9825 65.6799 35.7969H65.6053V39.8636H63.8056ZM65.5705 33.1818C65.5705 33.6757 65.6401 34.1082 65.7793 34.4794C65.9218 34.8506 66.1257 35.1406 66.3908 35.3494C66.6593 35.5549 66.9841 35.6577 67.3652 35.6577C67.763 35.6577 68.0961 35.5516 68.3645 35.3395C68.633 35.1241 68.8352 34.8307 68.9711 34.4595C69.1103 34.085 69.1799 33.6591 69.1799 33.1818C69.1799 32.7079 69.1119 32.2869 68.976 31.919C68.8401 31.5511 68.638 31.2628 68.3695 31.054C68.101 30.8452 67.7663 30.7408 67.3652 30.7408C66.9808 30.7408 66.6543 30.8419 66.3858 31.044C66.1174 31.2462 65.9135 31.5296 65.7743 31.8942C65.6384 32.2588 65.5705 32.688 65.5705 33.1818ZM78.1685 29.6172C78.1221 29.183 77.9266 28.8449 77.5819 28.603C77.2405 28.361 76.7963 28.2401 76.2495 28.2401C75.865 28.2401 75.5352 28.2981 75.2601 28.4141C74.985 28.5301 74.7746 28.6875 74.6287 28.8864C74.4829 29.0852 74.4083 29.3123 74.405 29.5675C74.405 29.7796 74.4531 29.9635 74.5492 30.1193C74.6486 30.2751 74.7828 30.4077 74.9519 30.517C75.1209 30.6231 75.3082 30.7126 75.5137 30.7855C75.7192 30.8584 75.9263 30.9197 76.1351 30.9695L77.0897 31.2081C77.4741 31.2976 77.8437 31.4186 78.1983 31.571C78.5563 31.7235 78.8761 31.9157 79.1578 32.1477C79.4429 32.3797 79.6683 32.6598 79.834 32.9879C79.9997 33.3161 80.0826 33.7005 80.0826 34.1413C80.0826 34.7379 79.9301 35.2633 79.6252 35.7173C79.3203 36.1681 78.8794 36.5211 78.3027 36.7763C77.7293 37.0282 77.035 37.1541 76.2196 37.1541C75.4275 37.1541 74.7398 37.0315 74.1564 36.7862C73.5764 36.541 73.1223 36.183 72.7942 35.7124C72.4694 35.2417 72.2937 34.6683 72.2672 33.9922H74.0819C74.1084 34.3468 74.2177 34.6418 74.41 34.8771C74.6022 35.1125 74.8525 35.2881 75.1607 35.4041C75.4722 35.5201 75.8203 35.5781 76.2047 35.5781C76.6058 35.5781 76.9571 35.5185 77.2587 35.3991C77.5636 35.2765 77.8023 35.1075 77.9746 34.892C78.147 34.6733 78.2348 34.4181 78.2381 34.1264C78.2348 33.8613 78.1569 33.6425 78.0044 33.4702C77.852 33.2945 77.6382 33.1487 77.3631 33.0327C77.0913 32.9134 76.7731 32.8073 76.4086 32.7145L75.2502 32.4162C74.4116 32.2008 73.7488 31.8743 73.2615 31.4368C72.7776 30.996 72.5357 30.411 72.5357 29.6818C72.5357 29.0819 72.6981 28.5566 73.0229 28.1058C73.351 27.6551 73.7968 27.3054 74.3603 27.0568C74.9237 26.8049 75.5617 26.679 76.2743 26.679C76.9969 26.679 77.6299 26.8049 78.1735 27.0568C78.7203 27.3054 79.1496 27.6518 79.4611 28.0959C79.7727 28.5367 79.9334 29.0438 79.9434 29.6172H78.1685ZM85.4606 29.3636V30.7557H81.0707V29.3636H85.4606ZM82.1545 27.5341H83.9542V34.7031C83.9542 34.9451 83.9906 35.1307 84.0636 35.2599C84.1398 35.3859 84.2392 35.4721 84.3619 35.5185C84.4845 35.5649 84.6204 35.5881 84.7695 35.5881C84.8822 35.5881 84.985 35.5798 85.0778 35.5632C85.1739 35.5466 85.2468 35.5317 85.2965 35.5185L85.5998 36.9254C85.5037 36.9586 85.3661 36.995 85.1871 37.0348C85.0115 37.0746 84.796 37.0978 84.5408 37.1044C84.0901 37.1177 83.6841 37.0497 83.3228 36.9006C82.9615 36.7481 82.6748 36.5128 82.4627 36.1946C82.2539 35.8764 82.1512 35.4787 82.1545 35.0014V27.5341ZM90.2147 37.1491C89.4689 37.1491 88.8226 36.9851 88.2757 36.657C87.7289 36.3288 87.3046 35.8698 87.003 35.2798C86.7047 34.6899 86.5556 34.0005 86.5556 33.2116C86.5556 32.4228 86.7047 31.7318 87.003 31.1385C87.3046 30.5452 87.7289 30.0845 88.2757 29.7564C88.8226 29.4283 89.4689 29.2642 90.2147 29.2642C90.9604 29.2642 91.6067 29.4283 92.1536 29.7564C92.7005 30.0845 93.123 30.5452 93.4213 31.1385C93.723 31.7318 93.8738 32.4228 93.8738 33.2116C93.8738 34.0005 93.723 34.6899 93.4213 35.2798C93.123 35.8698 92.7005 36.3288 92.1536 36.657C91.6067 36.9851 90.9604 37.1491 90.2147 37.1491ZM90.2246 35.7074C90.629 35.7074 90.967 35.5964 91.2388 35.3743C91.5106 35.1489 91.7128 34.8473 91.8453 34.4695C91.9812 34.0916 92.0492 33.6707 92.0492 33.2067C92.0492 32.7393 91.9812 32.3168 91.8453 31.9389C91.7128 31.5578 91.5106 31.2545 91.2388 31.0291C90.967 30.8037 90.629 30.6911 90.2246 30.6911C89.8103 30.6911 89.4656 30.8037 89.1905 31.0291C88.9187 31.2545 88.7149 31.5578 88.579 31.9389C88.4464 32.3168 88.3801 32.7393 88.3801 33.2067C88.3801 33.6707 88.4464 34.0916 88.579 34.4695C88.7149 34.8473 88.9187 35.1489 89.1905 35.3743C89.4656 35.5964 89.8103 35.7074 90.2246 35.7074ZM95.4013 37V29.3636H97.1463V30.6364H97.2259C97.3651 30.1955 97.6037 29.8558 97.9418 29.6172C98.2831 29.3752 98.6726 29.2543 99.1101 29.2543C99.2095 29.2543 99.3205 29.2592 99.4432 29.2692C99.5691 29.2758 99.6735 29.2874 99.7564 29.304V30.9595C99.6802 30.933 99.5592 30.9098 99.3935 30.8899C99.2311 30.8667 99.0736 30.8551 98.9212 30.8551C98.593 30.8551 98.2981 30.9264 98.0362 31.0689C97.7777 31.2081 97.5739 31.402 97.4247 31.6506C97.2756 31.8991 97.201 32.1858 97.201 32.5107V37H95.4013ZM104.018 37.1491C103.253 37.1491 102.591 36.9901 102.035 36.6719C101.481 36.3504 101.055 35.8963 100.757 35.3097C100.459 34.7197 100.309 34.0253 100.309 33.2266C100.309 32.4411 100.459 31.7517 100.757 31.1584C101.059 30.5618 101.479 30.0978 102.02 29.7663C102.56 29.4316 103.195 29.2642 103.924 29.2642C104.394 29.2642 104.839 29.3404 105.256 29.4929C105.677 29.642 106.048 29.8741 106.37 30.1889C106.695 30.5038 106.95 30.9048 107.135 31.392C107.321 31.8759 107.414 32.4527 107.414 33.1222V33.674H101.155V32.4609H105.689C105.685 32.1162 105.611 31.8097 105.465 31.5412C105.319 31.2694 105.115 31.0556 104.854 30.8999C104.595 30.7441 104.293 30.6662 103.949 30.6662C103.581 30.6662 103.258 30.7557 102.979 30.9347C102.701 31.1103 102.484 31.3423 102.328 31.6307C102.175 31.9157 102.098 32.2289 102.094 32.5703V33.6293C102.094 34.0734 102.175 34.4545 102.338 34.7727C102.5 35.0876 102.727 35.3295 103.019 35.4986C103.311 35.6643 103.652 35.7472 104.043 35.7472C104.305 35.7472 104.542 35.7107 104.754 35.6378C104.966 35.5616 105.15 35.4505 105.306 35.3047C105.462 35.1589 105.579 34.9782 105.659 34.7628L107.339 34.9517C107.233 35.3958 107.031 35.7836 106.733 36.1151C106.438 36.4432 106.06 36.6984 105.599 36.8807C105.139 37.0597 104.612 37.1491 104.018 37.1491Z" fill="white"/>
</svg>
