<svg width="131" height="30" viewBox="0 0 131 30" fill="none" xmlns="http://www.w3.org/2000/svg">
<path d="M42.8295 22.2024C41.768 22.2024 40.8549 21.9775 40.0902 21.5277C39.33 21.0734 38.7453 20.4437 38.3359 19.6385C37.9311 18.8333 37.7287 17.9067 37.7287 16.8587C37.7287 15.7971 37.9334 14.866 38.3427 14.0653C38.7565 13.2602 39.3435 12.6327 40.1037 12.1829C40.8639 11.7286 41.768 11.5014 42.8161 11.5014C43.7202 11.5014 44.5118 11.6656 45.1911 11.994C45.8703 12.3223 46.4078 12.7834 46.8036 13.3771C47.1995 13.9709 47.4176 14.6681 47.4581 15.4688H44.7457C44.6693 14.9515 44.4669 14.5354 44.1385 14.2205C43.8146 13.9012 43.3896 13.7415 42.8633 13.7415C42.418 13.7415 42.0289 13.8629 41.696 14.1058C41.3677 14.3442 41.1113 14.6928 40.9268 15.1516C40.7424 15.6104 40.6502 16.166 40.6502 16.8182C40.6502 17.4794 40.7402 18.0417 40.9201 18.505C41.1045 18.9683 41.3632 19.3214 41.696 19.5643C42.0289 19.8072 42.418 19.9286 42.8633 19.9286C43.1916 19.9286 43.4863 19.8612 43.7472 19.7262C44.0125 19.5913 44.2307 19.3956 44.4016 19.1392C44.5771 18.8783 44.6918 18.5657 44.7457 18.2013H47.4581C47.4131 18.993 47.1972 19.6902 46.8104 20.293C46.428 20.8912 45.8995 21.359 45.2248 21.6964C44.5501 22.0337 43.7517 22.2024 42.8295 22.2024ZM49.2984 22V11.6364H52.085V13.4446H52.1929C52.3818 12.8014 52.699 12.3156 53.1443 11.9872C53.5896 11.6544 54.1024 11.4879 54.6826 11.4879C54.8266 11.4879 54.9817 11.4969 55.1482 11.5149C55.3146 11.5329 55.4608 11.5576 55.5867 11.5891V14.1396C55.4518 14.0991 55.2651 14.0631 55.0267 14.0316C54.7883 14.0001 54.5702 13.9844 54.3722 13.9844C53.9494 13.9844 53.5716 14.0766 53.2387 14.261C52.9104 14.4409 52.6495 14.6928 52.4561 15.0167C52.2671 15.3406 52.1727 15.7139 52.1727 16.1367V22H49.2984ZM61.3134 22.2024C60.2473 22.2024 59.3297 21.9865 58.5605 21.5547C57.7959 21.1184 57.2066 20.5021 56.7928 19.706C56.379 18.9053 56.1721 17.9585 56.1721 16.8654C56.1721 15.7994 56.379 14.8638 56.7928 14.0586C57.2066 13.2534 57.7891 12.6259 58.5403 12.1761C59.296 11.7263 60.1821 11.5014 61.1987 11.5014C61.8824 11.5014 62.5189 11.6116 63.1081 11.832C63.7019 12.0479 64.2192 12.3741 64.66 12.8104C65.1053 13.2467 65.4516 13.7955 65.699 14.4567C65.9464 15.1134 66.0701 15.8826 66.0701 16.7642V17.5536H57.3191V15.7724H63.3645C63.3645 15.3585 63.2746 14.992 63.0946 14.6726C62.9147 14.3532 62.6651 14.1036 62.3457 13.9237C62.0308 13.7392 61.6642 13.647 61.2459 13.647C60.8096 13.647 60.4228 13.7482 60.0854 13.9506C59.7525 14.1486 59.4917 14.4162 59.3027 14.7536C59.1138 15.0864 59.0171 15.4575 59.0126 15.8668V17.5604C59.0126 18.0732 59.1071 18.5162 59.296 18.8896C59.4894 19.2629 59.7615 19.5508 60.1124 19.7532C60.4632 19.9556 60.8793 20.0568 61.3606 20.0568C61.68 20.0568 61.9724 20.0118 62.2377 19.9219C62.5031 19.8319 62.7303 19.697 62.9192 19.517C63.1081 19.3371 63.2521 19.1167 63.351 18.8558L66.0094 19.0312C65.8745 19.67 65.5978 20.2277 65.1795 20.7045C64.7657 21.1768 64.2304 21.5457 63.5737 21.8111C62.9215 22.072 62.168 22.2024 61.3134 22.2024ZM76.5687 14.5916L73.9373 14.7536C73.8923 14.5286 73.7956 14.3262 73.6472 14.1463C73.4988 13.9619 73.3031 13.8157 73.0602 13.7077C72.8218 13.5953 72.5362 13.5391 72.2033 13.5391C71.758 13.5391 71.3824 13.6335 71.0765 13.8224C70.7707 14.0069 70.6177 14.2543 70.6177 14.5646C70.6177 14.812 70.7167 15.0212 70.9146 15.1921C71.1125 15.363 71.4521 15.5002 71.9334 15.6037L73.8091 15.9815C74.8167 16.1884 75.5679 16.5213 76.0627 16.9801C76.5575 17.4389 76.8049 18.0417 76.8049 18.7884C76.8049 19.4676 76.6047 20.0636 76.2044 20.5763C75.8085 21.0891 75.2643 21.4895 74.5716 21.7773C73.8833 22.0607 73.0894 22.2024 72.1898 22.2024C70.8179 22.2024 69.7248 21.9168 68.9107 21.3455C68.101 20.7698 67.6265 19.9871 67.487 18.9975L70.3141 18.8491C70.3996 19.2674 70.6065 19.5868 70.9348 19.8072C71.2632 20.0231 71.6838 20.131 72.1966 20.131C72.7003 20.131 73.1052 20.0343 73.411 19.8409C73.7214 19.643 73.8788 19.3888 73.8833 19.0785C73.8788 18.8176 73.7686 18.6039 73.5527 18.4375C73.3368 18.2666 73.004 18.1361 72.5542 18.0462L70.7594 17.6886C69.7473 17.4862 68.9939 17.1353 68.4991 16.636C68.0088 16.1367 67.7637 15.5002 67.7637 14.7266C67.7637 14.0608 67.9436 13.4873 68.3034 13.006C68.6678 12.5247 69.1783 12.1536 69.835 11.8928C70.4963 11.6319 71.2699 11.5014 72.1561 11.5014C73.465 11.5014 74.4951 11.7781 75.2463 12.3313C76.002 12.8846 76.4428 13.638 76.5687 14.5916ZM84.1272 11.6364V13.7955H77.8861V11.6364H84.1272ZM79.303 9.15341H82.1773V18.8153C82.1773 19.0807 82.2178 19.2876 82.2987 19.4361C82.3797 19.58 82.4922 19.6812 82.6361 19.7397C82.7845 19.7982 82.9555 19.8274 83.1489 19.8274C83.2838 19.8274 83.4188 19.8162 83.5537 19.7937C83.6887 19.7667 83.7921 19.7464 83.8641 19.733L84.3161 21.8718C84.1722 21.9168 83.9698 21.9685 83.7089 22.027C83.448 22.09 83.1309 22.1282 82.7575 22.1417C82.0648 22.1687 81.4576 22.0765 80.9358 21.8651C80.4185 21.6536 80.016 21.3253 79.7281 20.88C79.4402 20.4347 79.2985 19.8724 79.303 19.1932V9.15341ZM86.2762 22V8.18182H89.1505V13.3771H89.2382C89.3641 13.0982 89.5463 12.8149 89.7847 12.527C90.0276 12.2346 90.3425 11.9917 90.7293 11.7983C91.1207 11.6004 91.6064 11.5014 92.1867 11.5014C92.9424 11.5014 93.6396 11.6993 94.2783 12.0952C94.9171 12.4865 95.4276 13.078 95.8099 13.8697C96.1923 14.6568 96.3834 15.6442 96.3834 16.8317C96.3834 17.9877 96.1968 18.9638 95.8234 19.7599C95.4546 20.5516 94.9508 21.1521 94.3121 21.5614C93.6778 21.9663 92.9671 22.1687 92.18 22.1687C91.6222 22.1687 91.1476 22.0765 90.7563 21.892C90.3695 21.7076 90.0523 21.476 89.805 21.1971C89.5576 20.9137 89.3686 20.6281 89.2382 20.3402H89.11V22H86.2762ZM89.0898 16.8182C89.0898 17.4344 89.1752 17.9719 89.3461 18.4308C89.5171 18.8896 89.7645 19.2472 90.0883 19.5036C90.4122 19.7554 90.8058 19.8814 91.2691 19.8814C91.7369 19.8814 92.1327 19.7532 92.4566 19.4968C92.7805 19.2359 93.0256 18.8761 93.192 18.4173C93.363 17.954 93.4484 17.4209 93.4484 16.8182C93.4484 16.2199 93.3652 15.6937 93.1988 15.2393C93.0323 14.785 92.7872 14.4297 92.4633 14.1733C92.1395 13.9169 91.7414 13.7887 91.2691 13.7887C90.8013 13.7887 90.4055 13.9124 90.0816 14.1598C89.7622 14.4072 89.5171 14.758 89.3461 15.2124C89.1752 15.6667 89.0898 16.2019 89.0898 16.8182ZM101.257 22.1957C100.595 22.1957 100.006 22.081 99.4888 21.8516C98.9715 21.6177 98.5622 21.2736 98.2608 20.8192C97.964 20.3604 97.8155 19.7892 97.8155 19.1055C97.8155 18.5297 97.9212 18.0462 98.1326 17.6548C98.344 17.2635 98.6319 16.9486 98.9963 16.7102C99.3606 16.4718 99.7744 16.2919 100.238 16.1705C100.706 16.049 101.196 15.9635 101.709 15.9141C102.311 15.8511 102.797 15.7926 103.166 15.7386C103.535 15.6802 103.802 15.5947 103.969 15.4822C104.135 15.3698 104.219 15.2034 104.219 14.983V14.9425C104.219 14.5152 104.084 14.1845 103.814 13.9506C103.548 13.7167 103.171 13.5998 102.68 13.5998C102.163 13.5998 101.751 13.7145 101.445 13.9439C101.14 14.1688 100.937 14.4522 100.838 14.794L98.1799 14.5781C98.3148 13.9484 98.5802 13.4041 98.976 12.9453C99.3719 12.482 99.8824 12.1267 100.508 11.8793C101.137 11.6274 101.866 11.5014 102.694 11.5014C103.269 11.5014 103.82 11.5689 104.347 11.7038C104.878 11.8388 105.348 12.0479 105.757 12.3313C106.171 12.6147 106.497 12.979 106.735 13.4244C106.974 13.8652 107.093 14.3937 107.093 15.0099V22H104.367V20.5629H104.286C104.12 20.8867 103.897 21.1723 103.618 21.4197C103.339 21.6626 103.004 21.8538 102.613 21.9933C102.221 22.1282 101.769 22.1957 101.257 22.1957ZM102.08 20.212C102.503 20.212 102.876 20.1288 103.2 19.9624C103.524 19.7914 103.778 19.562 103.962 19.2741C104.147 18.9863 104.239 18.6602 104.239 18.2958V17.196C104.149 17.2545 104.025 17.3085 103.868 17.358C103.715 17.4029 103.542 17.4457 103.348 17.4862C103.155 17.5221 102.961 17.5559 102.768 17.5874C102.575 17.6143 102.399 17.6391 102.242 17.6616C101.904 17.7111 101.61 17.7898 101.358 17.8977C101.106 18.0057 100.91 18.1519 100.771 18.3363C100.631 18.5162 100.562 18.7411 100.562 19.011C100.562 19.4023 100.703 19.7015 100.987 19.9084C101.275 20.1108 101.639 20.212 102.08 20.212ZM117.946 14.5916L115.314 14.7536C115.269 14.5286 115.173 14.3262 115.024 14.1463C114.876 13.9619 114.68 13.8157 114.437 13.7077C114.199 13.5953 113.913 13.5391 113.58 13.5391C113.135 13.5391 112.759 13.6335 112.453 13.8224C112.148 14.0069 111.995 14.2543 111.995 14.5646C111.995 14.812 112.094 15.0212 112.292 15.1921C112.489 15.363 112.829 15.5002 113.31 15.6037L115.186 15.9815C116.194 16.1884 116.945 16.5213 117.44 16.9801C117.934 17.4389 118.182 18.0417 118.182 18.7884C118.182 19.4676 117.982 20.0636 117.581 20.5763C117.185 21.0891 116.641 21.4895 115.949 21.7773C115.26 22.0607 114.466 22.2024 113.567 22.2024C112.195 22.2024 111.102 21.9168 110.288 21.3455C109.478 20.7698 109.003 19.9871 108.864 18.9975L111.691 18.8491C111.777 19.2674 111.983 19.5868 112.312 19.8072C112.64 20.0231 113.061 20.131 113.574 20.131C114.077 20.131 114.482 20.0343 114.788 19.8409C115.098 19.643 115.256 19.3888 115.26 19.0785C115.256 18.8176 115.146 18.6039 114.93 18.4375C114.714 18.2666 114.381 18.1361 113.931 18.0462L112.136 17.6886C111.124 17.4862 110.371 17.1353 109.876 16.636C109.386 16.1367 109.141 15.5002 109.141 14.7266C109.141 14.0608 109.321 13.4873 109.68 13.006C110.045 12.5247 110.555 12.1536 111.212 11.8928C111.873 11.6319 112.647 11.5014 113.533 11.5014C114.842 11.5014 115.872 11.7781 116.623 12.3313C117.379 12.8846 117.82 13.638 117.946 14.5916ZM124.715 22.2024C123.649 22.2024 122.731 21.9865 121.962 21.5547C121.197 21.1184 120.608 20.5021 120.194 19.706C119.78 18.9053 119.573 17.9585 119.573 16.8654C119.573 15.7994 119.78 14.8638 120.194 14.0586C120.608 13.2534 121.19 12.6259 121.942 12.1761C122.697 11.7263 123.583 11.5014 124.6 11.5014C125.284 11.5014 125.92 11.6116 126.509 11.832C127.103 12.0479 127.621 12.3741 128.061 12.8104C128.507 13.2467 128.853 13.7955 129.1 14.4567C129.348 15.1134 129.472 15.8826 129.472 16.7642V17.5536H120.72V15.7724H126.766C126.766 15.3585 126.676 14.992 126.496 14.6726C126.316 14.3532 126.066 14.1036 125.747 13.9237C125.432 13.7392 125.066 13.647 124.647 13.647C124.211 13.647 123.824 13.7482 123.487 13.9506C123.154 14.1486 122.893 14.4162 122.704 14.7536C122.515 15.0864 122.418 15.4575 122.414 15.8668V17.5604C122.414 18.0732 122.508 18.5162 122.697 18.8896C122.891 19.2629 123.163 19.5508 123.514 19.7532C123.865 19.9556 124.281 20.0568 124.762 20.0568C125.081 20.0568 125.374 20.0118 125.639 19.9219C125.905 19.8319 126.132 19.697 126.321 19.517C126.509 19.3371 126.653 19.1167 126.752 18.8558L129.411 19.0312C129.276 19.67 128.999 20.2277 128.581 20.7045C128.167 21.1768 127.632 21.5457 126.975 21.8111C126.323 22.072 125.569 22.2024 124.715 22.2024Z" fill="#262C55"/>
<path d="M17.8375 10.2731L11.2717 4.24259C10.5066 3.5399 9.33094 3.5399 8.56588 4.24259L2.64711 9.67879C2.23472 10.0576 2 10.5918 2 11.1518V26.2979C2 27.4025 2.89543 28.2979 4 28.2979H16.1161V28.2979C17.0668 28.2979 17.8375 27.5272 17.8375 26.5764V22.9221" stroke="#3D79EF" stroke-width="2.2" stroke-linecap="round"/>
<path d="M16.5146 3.31622L22.0648 8.4139C22.4772 8.79266 22.7119 9.32695 22.7119 9.88688V28.2979" stroke="url(#paint0_linear_8096_57)" stroke-width="2.2" stroke-linecap="round"/>
<path d="M22.7129 3.31622L28.2631 8.4139C28.6755 8.79266 28.9102 9.32695 28.9102 9.88688V28.2979" stroke="url(#paint1_linear_8096_57)" stroke-width="2.2" stroke-linecap="round"/>
<circle cx="17.6028" cy="16.914" r="2.10817" fill="#3D79EF"/>
<defs>
<linearGradient id="paint0_linear_8096_57" x1="19.6133" y1="3.31622" x2="19.6133" y2="28.2979" gradientUnits="userSpaceOnUse">
<stop stop-color="#3D79EF"/>
<stop offset="1" stop-color="#F1A5C2"/>
</linearGradient>
<linearGradient id="paint1_linear_8096_57" x1="25.8115" y1="3.31622" x2="25.8115" y2="28.2979" gradientUnits="userSpaceOnUse">
<stop stop-color="#3D79EF"/>
<stop offset="1" stop-color="#F1A5C2"/>
</linearGradient>
</defs>
</svg>
