<svg width="142" height="62" viewBox="0 0 142 62" fill="none" xmlns="http://www.w3.org/2000/svg">
<rect width="142" height="62" rx="6" fill="#35A162"/>
<rect x="0.25" y="0.25" width="141.5" height="61.5" rx="5.75" stroke="#3D79EF" stroke-opacity="0.18" stroke-width="0.5"/>
<path d="M49.748 25.598H53.948V26.466L52.73 26.648L54.494 32.962L54.816 34.516L55.138 32.962L56.636 27.838L56.244 26.648L55.32 26.466V25.598H59.702V26.466L58.358 26.648L60.108 32.962L60.486 34.642L60.78 32.962L62.376 26.648L61.116 26.466V25.598H64.49V26.466L63.594 26.648L60.934 36.07H59.086L57.154 29.532L55.306 36.07H53.486L50.602 26.662L49.748 26.466V25.598ZM65.5204 25.766L64.4564 25.584V24.828L67.0604 24.52H67.1024L67.4664 24.786L67.4804 27.908L67.3824 29.126C67.6718 28.8647 68.0638 28.622 68.5584 28.398C69.0624 28.174 69.5898 28.062 70.1404 28.062C70.7284 28.062 71.1858 28.174 71.5124 28.398C71.8391 28.6127 72.0678 28.944 72.1984 29.392C72.3291 29.84 72.3944 30.4373 72.3944 31.184V35.034L73.2904 35.16V36H69.6084V35.16L70.4204 35.034V31.184C70.4204 30.6987 70.3878 30.3207 70.3224 30.05C70.2571 29.7793 70.1358 29.5787 69.9584 29.448C69.7904 29.3173 69.5384 29.252 69.2024 29.252C68.9131 29.252 68.6144 29.322 68.3064 29.462C68.0078 29.5927 67.7418 29.7513 67.5084 29.938V35.034L68.3624 35.16V36H64.7364V35.16L65.5204 35.048V25.766ZM74.0873 33.816C74.0873 32.9667 74.512 32.3273 75.3613 31.898C76.22 31.4687 77.326 31.2493 78.6793 31.24V30.918C78.6793 30.5353 78.6373 30.2367 78.5533 30.022C78.4787 29.8073 78.334 29.6487 78.1193 29.546C77.914 29.434 77.6107 29.378 77.2093 29.378C76.752 29.378 76.3413 29.4387 75.9773 29.56C75.6133 29.672 75.2353 29.8213 74.8433 30.008L74.4093 29.112C74.5493 28.9907 74.7827 28.846 75.1093 28.678C75.4453 28.51 75.842 28.3653 76.2993 28.244C76.7567 28.1133 77.228 28.048 77.7133 28.048C78.432 28.048 78.992 28.1413 79.3933 28.328C79.804 28.5147 80.098 28.8133 80.2753 29.224C80.4527 29.6347 80.5413 30.1853 80.5413 30.876V35.16H81.2973V35.944C81.1107 35.9907 80.8447 36.0373 80.4993 36.084C80.154 36.1307 79.8507 36.154 79.5893 36.154C79.272 36.154 79.0573 36.1073 78.9453 36.014C78.8427 35.9207 78.7913 35.7293 78.7913 35.44V35.062C78.5393 35.342 78.2127 35.594 77.8113 35.818C77.41 36.042 76.9573 36.154 76.4533 36.154C76.024 36.154 75.6273 36.0653 75.2633 35.888C74.9087 35.7013 74.624 35.4353 74.4093 35.09C74.1947 34.7353 74.0873 34.3107 74.0873 33.816ZM77.3493 34.992C77.5453 34.992 77.7693 34.936 78.0213 34.824C78.2733 34.7027 78.4927 34.558 78.6793 34.39V32.094C77.8393 32.094 77.2093 32.2387 76.7893 32.528C76.3787 32.808 76.1733 33.172 76.1733 33.62C76.1733 34.068 76.276 34.4087 76.4813 34.642C76.696 34.8753 76.9853 34.992 77.3493 34.992ZM84.523 36.126C83.935 36.126 83.501 35.9907 83.221 35.72C82.941 35.4493 82.801 35.02 82.801 34.432V29.294H81.891V28.566C81.9657 28.538 82.101 28.4913 82.297 28.426C82.493 28.3513 82.6423 28.2907 82.745 28.244C82.9037 28.1227 83.039 27.9127 83.151 27.614C83.235 27.418 83.389 26.9327 83.613 26.158H84.733L84.789 28.216H86.931V29.294H84.803V33.228C84.803 33.7507 84.817 34.1193 84.845 34.334C84.873 34.5487 84.9337 34.6887 85.027 34.754C85.1203 34.81 85.2837 34.838 85.517 34.838C85.7503 34.838 85.993 34.8147 86.245 34.768C86.497 34.712 86.707 34.6467 86.875 34.572L87.141 35.356C86.8797 35.552 86.497 35.7293 85.993 35.888C85.489 36.0467 84.999 36.126 84.523 36.126ZM89.4399 34.852C89.5145 34.964 89.6825 35.0713 89.9439 35.174C90.2145 35.2673 90.4852 35.314 90.7559 35.314C91.1945 35.314 91.5212 35.2253 91.7359 35.048C91.9599 34.8613 92.0719 34.6187 92.0719 34.32C92.0719 34.012 91.9365 33.7647 91.6659 33.578C91.3952 33.382 90.9379 33.144 90.2939 32.864L89.9019 32.696C89.2579 32.4253 88.7772 32.0987 88.4599 31.716C88.1425 31.3333 87.9839 30.8387 87.9839 30.232C87.9839 29.812 88.1099 29.4387 88.3619 29.112C88.6139 28.776 88.9685 28.5147 89.4259 28.328C89.8832 28.1413 90.4105 28.048 91.0079 28.048C91.4465 28.048 91.8199 28.076 92.1279 28.132C92.4452 28.188 92.7765 28.2627 93.1219 28.356C93.3085 28.4213 93.4485 28.4587 93.5419 28.468V30.302H92.4359L92.1139 29.238C92.0579 29.1447 91.9319 29.0607 91.7359 28.986C91.5399 28.9113 91.3159 28.874 91.0639 28.874C90.6812 28.874 90.3732 28.958 90.1399 29.126C89.9159 29.2847 89.8039 29.5087 89.8039 29.798C89.8039 30.0593 89.8832 30.2787 90.0419 30.456C90.2005 30.624 90.3732 30.7547 90.5599 30.848C90.7465 30.9413 91.0919 31.0953 91.5959 31.31C92.0999 31.5247 92.5152 31.73 92.8419 31.926C93.1779 32.122 93.4532 32.3787 93.6679 32.696C93.8919 33.004 94.0039 33.382 94.0039 33.83C94.0039 34.5207 93.7332 35.0807 93.1919 35.51C92.6505 35.9393 91.8712 36.154 90.8539 36.154C90.3779 36.154 89.9485 36.112 89.5659 36.028C89.1925 35.944 88.7585 35.832 88.2639 35.692L87.9559 35.594V33.746H89.1179L89.4399 34.852ZM94.9916 33.816C94.9916 32.9667 95.4163 32.3273 96.2656 31.898C97.1243 31.4687 98.2303 31.2493 99.5836 31.24V30.918C99.5836 30.5353 99.5416 30.2367 99.4576 30.022C99.383 29.8073 99.2383 29.6487 99.0236 29.546C98.8183 29.434 98.515 29.378 98.1136 29.378C97.6563 29.378 97.2456 29.4387 96.8816 29.56C96.5176 29.672 96.1396 29.8213 95.7476 30.008L95.3136 29.112C95.4536 28.9907 95.687 28.846 96.0136 28.678C96.3496 28.51 96.7463 28.3653 97.2036 28.244C97.661 28.1133 98.1323 28.048 98.6176 28.048C99.3363 28.048 99.8963 28.1413 100.298 28.328C100.708 28.5147 101.002 28.8133 101.18 29.224C101.357 29.6347 101.446 30.1853 101.446 30.876V35.16H102.202V35.944C102.015 35.9907 101.749 36.0373 101.404 36.084C101.058 36.1307 100.755 36.154 100.494 36.154C100.176 36.154 99.9616 36.1073 99.8496 36.014C99.747 35.9207 99.6956 35.7293 99.6956 35.44V35.062C99.4436 35.342 99.117 35.594 98.7156 35.818C98.3143 36.042 97.8616 36.154 97.3576 36.154C96.9283 36.154 96.5316 36.0653 96.1676 35.888C95.813 35.7013 95.5283 35.4353 95.3136 35.09C95.099 34.7353 94.9916 34.3107 94.9916 33.816ZM98.2536 34.992C98.4496 34.992 98.6736 34.936 98.9256 34.824C99.1776 34.7027 99.397 34.558 99.5836 34.39V32.094C98.7436 32.094 98.1136 32.2387 97.6936 32.528C97.283 32.808 97.0776 33.172 97.0776 33.62C97.0776 34.068 97.1803 34.4087 97.3856 34.642C97.6003 34.8753 97.8896 34.992 98.2536 34.992ZM110.817 31.856C110.817 32.64 110.654 33.3587 110.327 34.012C110.01 34.6653 109.539 35.188 108.913 35.58C108.297 35.9627 107.56 36.154 106.701 36.154C106.515 36.154 106.319 36.1353 106.113 36.098C105.917 36.07 105.759 36.0327 105.637 35.986L105.679 37.148V38.422L106.981 38.59V39.388H102.823V38.59L103.733 38.422V29.546L102.823 29.294V28.328L105.133 28.034H105.161L105.511 28.314V29.098C105.745 28.8087 106.062 28.5567 106.463 28.342C106.865 28.1273 107.303 28.02 107.779 28.02C108.666 28.02 109.394 28.3373 109.963 28.972C110.533 29.5973 110.817 30.5587 110.817 31.856ZM107.051 29.182C106.771 29.182 106.505 29.2427 106.253 29.364C106.001 29.4853 105.81 29.6207 105.679 29.77V34.964C105.745 35.0573 105.875 35.1367 106.071 35.202C106.277 35.2673 106.501 35.3 106.743 35.3C107.35 35.3 107.831 35.0387 108.185 34.516C108.549 33.984 108.731 33.1533 108.731 32.024C108.731 31.072 108.577 30.3627 108.269 29.896C107.961 29.42 107.555 29.182 107.051 29.182ZM119.704 31.856C119.704 32.64 119.541 33.3587 119.214 34.012C118.897 34.6653 118.425 35.188 117.8 35.58C117.184 35.9627 116.447 36.154 115.588 36.154C115.401 36.154 115.205 36.1353 115 36.098C114.804 36.07 114.645 36.0327 114.524 35.986L114.566 37.148V38.422L115.868 38.59V39.388H111.71V38.59L112.62 38.422V29.546L111.71 29.294V28.328L114.02 28.034H114.048L114.398 28.314V29.098C114.631 28.8087 114.949 28.5567 115.35 28.342C115.751 28.1273 116.19 28.02 116.666 28.02C117.553 28.02 118.281 28.3373 118.85 28.972C119.419 29.5973 119.704 30.5587 119.704 31.856ZM115.938 29.182C115.658 29.182 115.392 29.2427 115.14 29.364C114.888 29.4853 114.697 29.6207 114.566 29.77V34.964C114.631 35.0573 114.762 35.1367 114.958 35.202C115.163 35.2673 115.387 35.3 115.63 35.3C116.237 35.3 116.717 35.0387 117.072 34.516C117.436 33.984 117.618 33.1533 117.618 32.024C117.618 31.072 117.464 30.3627 117.156 29.896C116.848 29.42 116.442 29.182 115.938 29.182Z" fill="white"/>
<path d="M19.4478 30.4554C19.4473 32.2336 19.9119 33.9699 20.7954 35.5002L19.3633 40.7291L24.7143 39.326C26.1944 40.1317 27.8526 40.5539 29.5378 40.554H29.5422C35.1052 40.554 39.6335 36.0273 39.6359 30.4634C39.637 27.7672 38.588 25.232 36.682 23.3246C34.7765 21.4174 32.2421 20.3665 29.5418 20.3652C23.9782 20.3652 19.4502 24.8917 19.4479 30.4554" fill="url(#paint0_linear_648_11295)"/>
<path d="M19.0878 30.4521C19.0872 32.2943 19.5685 34.0926 20.4835 35.6778L19 41.0941L24.5429 39.6407C26.0702 40.4734 27.7897 40.9125 29.5395 40.9131H29.544C35.3065 40.9131 39.9975 36.2236 40 30.4605C40.001 27.6675 38.9142 25.0411 36.9402 23.0653C34.966 21.0899 32.341 20.0011 29.544 20C23.7805 20 19.0901 24.6889 19.0878 30.4521ZM22.3887 35.4048L22.1817 35.0763C21.3117 33.6929 20.8525 32.0943 20.8532 30.4528C20.8551 25.6625 24.7535 21.7653 29.5473 21.7653C31.8687 21.7663 34.0504 22.6713 35.6914 24.3132C37.3323 25.9553 38.2352 28.1382 38.2346 30.4598C38.2325 35.25 34.3339 39.1477 29.544 39.1477H29.5405C27.9809 39.1469 26.4512 38.7281 25.1172 37.9365L24.7998 37.7483L21.5105 38.6107L22.3887 35.4047V35.4048Z" fill="url(#paint1_linear_648_11295)"/>
<path d="M26.934 26.0805C26.7383 25.6455 26.5323 25.6368 26.3462 25.6291C26.1938 25.6226 26.0195 25.6231 25.8455 25.6231C25.6712 25.6231 25.3881 25.6886 25.1489 25.9499C24.9093 26.2114 24.2344 26.8434 24.2344 28.1287C24.2344 29.4141 25.1706 30.6563 25.3011 30.8308C25.4318 31.005 27.1085 33.7271 29.764 34.7743C31.971 35.6446 32.4201 35.4715 32.8991 35.4278C33.3782 35.3844 34.4449 34.796 34.6625 34.186C34.8803 33.576 34.8803 33.0531 34.815 32.9439C34.7497 32.835 34.5755 32.7696 34.3142 32.639C34.0529 32.5083 32.7684 31.8763 32.529 31.7891C32.2894 31.702 32.1153 31.6585 31.941 31.9201C31.7668 32.1813 31.2665 32.7696 31.114 32.9439C30.9617 33.1185 30.8092 33.1402 30.548 33.0096C30.2866 32.8785 29.4452 32.6029 28.4469 31.713C27.6703 31.0205 27.1459 30.1653 26.9935 29.9037C26.8411 29.6425 26.9772 29.5009 27.1082 29.3707C27.2256 29.2537 27.3695 29.0657 27.5003 28.9132C27.6306 28.7606 27.674 28.6517 27.7611 28.4775C27.8483 28.3031 27.8047 28.1505 27.7395 28.0198C27.674 27.8892 27.1663 26.5971 26.934 26.0805Z" fill="white"/>
<defs>
<linearGradient id="paint0_linear_648_11295" x1="1032.99" y1="2056.75" x2="1032.99" y2="20.3652" gradientUnits="userSpaceOnUse">
<stop stop-color="#1FAF38"/>
<stop offset="1" stop-color="#60D669"/>
</linearGradient>
<linearGradient id="paint1_linear_648_11295" x1="1069" y1="2129.41" x2="1069" y2="20" gradientUnits="userSpaceOnUse">
<stop stop-color="#F9F9F9"/>
<stop offset="1" stop-color="white"/>
</linearGradient>
</defs>
</svg>
