<svg width="142" height="62" viewBox="0 0 142 62" fill="none" xmlns="http://www.w3.org/2000/svg">
<rect x="0.25" y="0.25" width="141.5" height="61.5" rx="5.75" fill="#35A162" fill-opacity="0.1" stroke="#35A162" stroke-width="0.5"/>
<path d="M77.306 35.1538C75.7193 35.1538 74.506 34.6824 73.666 33.7398C72.826 32.7878 72.406 31.4904 72.406 29.8478C72.406 28.7651 72.6253 27.8224 73.064 27.0198C73.512 26.2078 74.1233 25.5824 74.898 25.1438C75.6727 24.7051 76.55 24.4858 77.53 24.4858C77.9407 24.4858 78.3373 24.5138 78.72 24.5698C79.1027 24.6164 79.5553 24.6818 80.078 24.7658C80.47 24.8311 80.6847 24.8638 80.722 24.8638L80.568 27.7478H79.28L78.846 25.7458C78.7433 25.6431 78.566 25.5591 78.314 25.4938C78.062 25.4284 77.74 25.3958 77.348 25.3958C76.5547 25.3958 75.9153 25.7644 75.43 26.5018C74.954 27.2298 74.716 28.2891 74.716 29.6798C74.716 31.0238 74.9447 32.1204 75.402 32.9698C75.8593 33.8191 76.5267 34.2438 77.404 34.2438C77.824 34.2438 78.146 34.2064 78.37 34.1318C78.6033 34.0478 78.7993 33.9311 78.958 33.7818L79.574 32.3398L80.75 32.4518L80.47 34.6218C80.274 34.6404 80.078 34.6778 79.882 34.7338C79.6953 34.7804 79.5787 34.8084 79.532 34.8178C79.1587 34.9204 78.8087 34.9998 78.482 35.0558C78.1647 35.1211 77.7727 35.1538 77.306 35.1538ZM81.6908 32.8158C81.6908 31.9664 82.1155 31.3271 82.9648 30.8978C83.8235 30.4684 84.9295 30.2491 86.2828 30.2398V29.9178C86.2828 29.5351 86.2408 29.2364 86.1568 29.0218C86.0822 28.8071 85.9375 28.6484 85.7228 28.5458C85.5175 28.4338 85.2142 28.3778 84.8128 28.3778C84.3555 28.3778 83.9448 28.4384 83.5808 28.5598C83.2168 28.6718 82.8388 28.8211 82.4468 29.0078L82.0128 28.1118C82.1528 27.9904 82.3862 27.8458 82.7128 27.6778C83.0488 27.5098 83.4455 27.3651 83.9028 27.2438C84.3602 27.1131 84.8315 27.0478 85.3168 27.0478C86.0355 27.0478 86.5955 27.1411 86.9968 27.3278C87.4075 27.5144 87.7015 27.8131 87.8788 28.2238C88.0562 28.6344 88.1448 29.1851 88.1448 29.8758V34.1598H88.9008V34.9438C88.7142 34.9904 88.4482 35.0371 88.1028 35.0838C87.7575 35.1304 87.4542 35.1538 87.1928 35.1538C86.8755 35.1538 86.6608 35.1071 86.5488 35.0138C86.4462 34.9204 86.3948 34.7291 86.3948 34.4398V34.0618C86.1428 34.3418 85.8162 34.5938 85.4148 34.8178C85.0135 35.0418 84.5608 35.1538 84.0568 35.1538C83.6275 35.1538 83.2308 35.0651 82.8668 34.8878C82.5122 34.7011 82.2275 34.4351 82.0128 34.0898C81.7982 33.7351 81.6908 33.3104 81.6908 32.8158ZM84.9528 33.9918C85.1488 33.9918 85.3728 33.9358 85.6248 33.8238C85.8768 33.7024 86.0962 33.5578 86.2828 33.3898V31.0938C85.4428 31.0938 84.8128 31.2384 84.3928 31.5278C83.9822 31.8078 83.7768 32.1718 83.7768 32.6198C83.7768 33.0678 83.8795 33.4084 84.0848 33.6418C84.2995 33.8751 84.5888 33.9918 84.9528 33.9918ZM90.5865 24.7658L89.5505 24.5838V23.8278L92.1405 23.5198H92.1685L92.5465 23.7858V34.0478L93.5685 34.1598V34.9998H89.6065V34.1598L90.5865 34.0338V24.7658ZM95.3443 24.7658L94.3083 24.5838V23.8278L96.8983 23.5198H96.9263L97.3043 23.7858V34.0478L98.3263 34.1598V34.9998H94.3643V34.1598L95.3443 34.0338V24.7658Z" fill="#35A162"/>
<path d="M46.6219 27.1014C45.9992 25.1112 47.1545 23.0599 49.2462 22.0518C49.6174 21.8728 50.0428 21.8421 50.4359 21.9659C50.8289 22.0897 51.16 22.3587 51.3616 22.7181L52.3551 24.4887C52.5151 24.7735 52.5862 25.0996 52.5595 25.4252C52.5327 25.7508 52.4093 26.0609 52.205 26.3158L50.4041 28.5576C50.3154 28.6683 50.2569 28.8001 50.2342 28.9401C50.2116 29.0802 50.2256 29.2237 50.275 29.3568L50.3074 29.438L50.39 29.6408C50.808 30.6239 51.3564 31.5462 52.0204 32.383C52.74 33.2701 53.5835 34.0489 54.5249 34.6956L54.5987 34.744C54.7176 34.8208 54.8544 34.8655 54.9957 34.8736C55.1371 34.8818 55.2781 34.8533 55.4051 34.7908L57.9838 33.5204C58.2769 33.3764 58.6063 33.3232 58.9299 33.3677C59.2534 33.4122 59.5563 33.5523 59.7997 33.7701L61.3219 35.1295C61.9561 35.6952 62.0378 36.6576 61.5118 37.3238C60.0729 39.1485 57.8124 39.8244 56.007 38.7805C53.793 37.4946 51.8347 35.8122 50.2297 33.8174C48.6147 31.8259 47.3901 29.5474 46.6203 27.1016L46.6219 27.1014ZM51.9906 29.2024L53.4819 27.3415C53.8908 26.8318 54.138 26.2116 54.1918 25.5604C54.2456 24.9092 54.1035 24.2568 53.7839 23.687L52.7919 21.9161C52.3862 21.193 51.7199 20.6518 50.929 20.4028C50.1381 20.1538 49.2819 20.2157 48.5351 20.576C45.9372 21.8294 44.1247 24.6102 45.0575 27.5923C45.7093 29.6742 46.873 32.2709 48.9557 34.849C50.6871 36.9998 52.7994 38.8136 55.1873 40.1999C57.8952 41.7649 61.0105 40.6093 62.8007 38.341C63.313 37.6924 63.5584 36.8727 63.487 36.0493C63.4155 35.2258 63.0325 34.4607 62.4161 33.91L60.8936 32.549C60.4066 32.114 59.8008 31.8344 59.1538 31.7459C58.5068 31.6575 57.8482 31.7644 57.2623 32.0528L55.1213 33.1067C54.4482 32.597 53.8372 32.0104 53.3005 31.3588C52.7771 30.697 52.3373 29.9733 51.9909 29.204L51.9906 29.2024Z" fill="#35A162"/>
</svg>
