<svg width="183" height="50" viewBox="0 0 183 50" fill="none" xmlns="http://www.w3.org/2000/svg">
<rect width="183" height="50" rx="8" fill="#262C55"/>
<rect x="0.3" y="0.3" width="182.4" height="49.4" rx="7.7" stroke="#262C55" stroke-opacity="0.5" stroke-width="0.6"/>
<path d="M73.375 30H70.233V19.8182H73.5142C74.5019 19.8182 75.3471 20.022 76.0497 20.4297C76.7524 20.834 77.291 21.4157 77.6655 22.1747C78.04 22.9304 78.2273 23.8352 78.2273 24.8892C78.2273 25.9498 78.0384 26.8629 77.6605 27.6286C77.2827 28.3909 76.7325 28.9775 76.0099 29.3885C75.2874 29.7962 74.4091 30 73.375 30ZM71.4659 28.9062H73.2955C74.1373 28.9062 74.835 28.7438 75.3885 28.419C75.942 28.0942 76.3546 27.6319 76.6264 27.032C76.8982 26.4321 77.0341 25.7178 77.0341 24.8892C77.0341 24.0672 76.8999 23.3596 76.6314 22.7663C76.3629 22.1697 75.9619 21.7124 75.4283 21.3942C74.8946 21.0727 74.2301 20.9119 73.4347 20.9119H71.4659V28.9062ZM83.2386 30.1591C82.5492 30.1591 81.9444 29.995 81.424 29.6669C80.907 29.3388 80.5026 28.8797 80.2109 28.2898C79.9226 27.6998 79.7784 27.0104 79.7784 26.2216C79.7784 25.4261 79.9226 24.7318 80.2109 24.1385C80.5026 23.5452 80.907 23.0845 81.424 22.7564C81.9444 22.4283 82.5492 22.2642 83.2386 22.2642C83.928 22.2642 84.5313 22.4283 85.0483 22.7564C85.5687 23.0845 85.973 23.5452 86.2614 24.1385C86.553 24.7318 86.6989 25.4261 86.6989 26.2216C86.6989 27.0104 86.553 27.6998 86.2614 28.2898C85.973 28.8797 85.5687 29.3388 85.0483 29.6669C84.5313 29.995 83.928 30.1591 83.2386 30.1591ZM83.2386 29.1051C83.7623 29.1051 84.1932 28.9709 84.5312 28.7024C84.8693 28.4339 85.1196 28.081 85.282 27.6435C85.4444 27.206 85.5256 26.732 85.5256 26.2216C85.5256 25.7112 85.4444 25.2356 85.282 24.7947C85.1196 24.3539 84.8693 23.9976 84.5312 23.7259C84.1932 23.4541 83.7623 23.3182 83.2386 23.3182C82.715 23.3182 82.2841 23.4541 81.946 23.7259C81.608 23.9976 81.3577 24.3539 81.1953 24.7947C81.0329 25.2356 80.9517 25.7112 80.9517 26.2216C80.9517 26.732 81.0329 27.206 81.1953 27.6435C81.3577 28.081 81.608 28.4339 81.946 28.7024C82.2841 28.9709 82.715 29.1051 83.2386 29.1051ZM89.9602 30L87.6335 22.3636H88.8665L90.517 28.2102H90.5966L92.2273 22.3636H93.4801L95.0909 28.1903H95.1705L96.821 22.3636H98.054L95.7273 30H94.5739L92.9034 24.1335H92.7841L91.1136 30H89.9602ZM100.778 25.4062V30H99.6051V22.3636H100.739V23.5568H100.838C101.017 23.169 101.289 22.8575 101.653 22.6222C102.018 22.3835 102.489 22.2642 103.065 22.2642C103.582 22.2642 104.035 22.3703 104.423 22.5824C104.81 22.7912 105.112 23.1094 105.327 23.5369C105.543 23.9612 105.651 24.4981 105.651 25.1477V30H104.477V25.2273C104.477 24.6274 104.321 24.16 104.01 23.8253C103.698 23.4872 103.271 23.3182 102.727 23.3182C102.353 23.3182 102.018 23.3994 101.723 23.5618C101.431 23.7242 101.201 23.9612 101.032 24.2727C100.863 24.5843 100.778 24.9621 100.778 25.4062ZM108.968 19.8182V30H107.795V19.8182H108.968ZM114.219 30.1591C113.53 30.1591 112.925 29.995 112.404 29.6669C111.887 29.3388 111.483 28.8797 111.191 28.2898C110.903 27.6998 110.759 27.0104 110.759 26.2216C110.759 25.4261 110.903 24.7318 111.191 24.1385C111.483 23.5452 111.887 23.0845 112.404 22.7564C112.925 22.4283 113.53 22.2642 114.219 22.2642C114.908 22.2642 115.512 22.4283 116.029 22.7564C116.549 23.0845 116.953 23.5452 117.242 24.1385C117.533 24.7318 117.679 25.4261 117.679 26.2216C117.679 27.0104 117.533 27.6998 117.242 28.2898C116.953 28.8797 116.549 29.3388 116.029 29.6669C115.512 29.995 114.908 30.1591 114.219 30.1591ZM114.219 29.1051C114.743 29.1051 115.174 28.9709 115.512 28.7024C115.85 28.4339 116.1 28.081 116.262 27.6435C116.425 27.206 116.506 26.732 116.506 26.2216C116.506 25.7112 116.425 25.2356 116.262 24.7947C116.1 24.3539 115.85 23.9976 115.512 23.7259C115.174 23.4541 114.743 23.3182 114.219 23.3182C113.695 23.3182 113.265 23.4541 112.926 23.7259C112.588 23.9976 112.338 24.3539 112.176 24.7947C112.013 25.2356 111.932 25.7112 111.932 26.2216C111.932 26.732 112.013 27.206 112.176 27.6435C112.338 28.081 112.588 28.4339 112.926 28.7024C113.265 28.9709 113.695 29.1051 114.219 29.1051ZM121.718 30.179C121.234 30.179 120.794 30.0878 120.4 29.9055C120.006 29.7199 119.692 29.4531 119.46 29.1051C119.228 28.7538 119.112 28.3295 119.112 27.8324C119.112 27.3949 119.199 27.0402 119.371 26.7685C119.543 26.4934 119.774 26.2779 120.062 26.1222C120.35 25.9664 120.669 25.8504 121.017 25.7741C121.368 25.6946 121.721 25.6316 122.075 25.5852C122.539 25.5256 122.916 25.4808 123.204 25.451C123.496 25.4179 123.708 25.3632 123.84 25.2869C123.976 25.2107 124.044 25.0781 124.044 24.8892V24.8494C124.044 24.3589 123.91 23.9777 123.642 23.706C123.376 23.4342 122.974 23.2983 122.433 23.2983C121.873 23.2983 121.434 23.4209 121.116 23.6662C120.798 23.9115 120.574 24.1733 120.445 24.4517L119.331 24.054C119.53 23.59 119.795 23.2287 120.127 22.9702C120.461 22.7083 120.826 22.526 121.22 22.4233C121.618 22.3172 122.009 22.2642 122.394 22.2642C122.639 22.2642 122.921 22.294 123.239 22.3537C123.56 22.41 123.87 22.5277 124.169 22.7067C124.47 22.8857 124.72 23.1558 124.919 23.517C125.118 23.8783 125.218 24.3622 125.218 24.9688V30H124.044V28.9659H123.985C123.905 29.1316 123.772 29.3089 123.587 29.4979C123.401 29.6868 123.154 29.8475 122.846 29.9801C122.538 30.1127 122.162 30.179 121.718 30.179ZM121.896 29.125C122.36 29.125 122.752 29.0339 123.07 28.8516C123.391 28.6693 123.633 28.4339 123.796 28.1456C123.961 27.8572 124.044 27.554 124.044 27.2358V26.1619C123.994 26.2216 123.885 26.2763 123.716 26.326C123.55 26.3724 123.358 26.4138 123.139 26.4503C122.924 26.4834 122.713 26.5133 122.508 26.5398C122.306 26.563 122.142 26.5829 122.016 26.5994C121.711 26.6392 121.426 26.7038 121.161 26.7933C120.899 26.8795 120.687 27.0104 120.524 27.1861C120.365 27.3584 120.286 27.5937 120.286 27.892C120.286 28.2997 120.436 28.608 120.738 28.8168C121.043 29.0223 121.429 29.125 121.896 29.125ZM130.243 30.1591C129.606 30.1591 129.044 29.9983 128.557 29.6768C128.07 29.352 127.689 28.8946 127.414 28.3047C127.139 27.7114 127.001 27.0104 127.001 26.2017C127.001 25.3996 127.139 24.7036 127.414 24.1136C127.689 23.5237 128.072 23.0679 128.562 22.7464C129.053 22.425 129.619 22.2642 130.262 22.2642C130.76 22.2642 131.152 22.3471 131.441 22.5128C131.732 22.6752 131.954 22.8608 132.107 23.0696C132.263 23.2751 132.384 23.4441 132.47 23.5767H132.569V19.8182H133.743V30H132.609V28.8267H132.47C132.384 28.9659 132.261 29.1416 132.102 29.3537C131.943 29.5625 131.716 29.7498 131.421 29.9155C131.126 30.0779 130.733 30.1591 130.243 30.1591ZM130.402 29.1051C130.872 29.1051 131.27 28.9825 131.595 28.7372C131.92 28.4886 132.167 28.1456 132.336 27.7081C132.505 27.2673 132.589 26.7585 132.589 26.1818C132.589 25.6117 132.506 25.1129 132.341 24.6854C132.175 24.2545 131.93 23.9197 131.605 23.6811C131.28 23.4392 130.879 23.3182 130.402 23.3182C129.904 23.3182 129.49 23.4458 129.159 23.701C128.831 23.9529 128.584 24.2959 128.418 24.7301C128.256 25.161 128.174 25.6449 128.174 26.1818C128.174 26.7254 128.257 27.2192 128.423 27.6634C128.592 28.1042 128.841 28.4555 129.169 28.7173C129.5 28.9759 129.911 29.1051 130.402 29.1051ZM140.569 30H139.276L143.015 19.8182H144.287L148.026 30H146.733L143.691 21.429H143.611L140.569 30ZM141.046 26.0227H146.256V27.1165H141.046V26.0227ZM149.453 32.8636V22.3636H150.586V23.5767H150.725C150.812 23.4441 150.931 23.2751 151.083 23.0696C151.239 22.8608 151.461 22.6752 151.75 22.5128C152.041 22.3471 152.436 22.2642 152.933 22.2642C153.576 22.2642 154.143 22.425 154.633 22.7464C155.124 23.0679 155.507 23.5237 155.782 24.1136C156.057 24.7036 156.194 25.3996 156.194 26.2017C156.194 27.0104 156.057 27.7114 155.782 28.3047C155.507 28.8946 155.125 29.352 154.638 29.6768C154.151 29.9983 153.589 30.1591 152.953 30.1591C152.462 30.1591 152.069 30.0779 151.775 29.9155C151.48 29.7498 151.252 29.5625 151.093 29.3537C150.934 29.1416 150.812 28.9659 150.725 28.8267H150.626V32.8636H149.453ZM150.606 26.1818C150.606 26.7585 150.691 27.2673 150.86 27.7081C151.029 28.1456 151.276 28.4886 151.6 28.7372C151.925 28.9825 152.323 29.1051 152.794 29.1051C153.284 29.1051 153.694 28.9759 154.022 28.7173C154.353 28.4555 154.602 28.1042 154.767 27.6634C154.936 27.2192 155.021 26.7254 155.021 26.1818C155.021 25.6449 154.938 25.161 154.772 24.7301C154.61 24.2959 154.363 23.9529 154.032 23.701C153.703 23.4458 153.291 23.3182 152.794 23.3182C152.316 23.3182 151.915 23.4392 151.591 23.6811C151.266 23.9197 151.02 24.2545 150.855 24.6854C150.689 25.1129 150.606 25.6117 150.606 26.1818ZM157.984 32.8636V22.3636H159.118V23.5767H159.257C159.343 23.4441 159.462 23.2751 159.615 23.0696C159.77 22.8608 159.993 22.6752 160.281 22.5128C160.573 22.3471 160.967 22.2642 161.464 22.2642C162.107 22.2642 162.674 22.425 163.164 22.7464C163.655 23.0679 164.038 23.5237 164.313 24.1136C164.588 24.7036 164.725 25.3996 164.725 26.2017C164.725 27.0104 164.588 27.7114 164.313 28.3047C164.038 28.8946 163.657 29.352 163.169 29.6768C162.682 29.9983 162.12 30.1591 161.484 30.1591C160.993 30.1591 160.601 30.0779 160.306 29.9155C160.011 29.7498 159.784 29.5625 159.625 29.3537C159.466 29.1416 159.343 28.9659 159.257 28.8267H159.157V32.8636H157.984ZM159.137 26.1818C159.137 26.7585 159.222 27.2673 159.391 27.7081C159.56 28.1456 159.807 28.4886 160.132 28.7372C160.457 28.9825 160.854 29.1051 161.325 29.1051C161.815 29.1051 162.225 28.9759 162.553 28.7173C162.884 28.4555 163.133 28.1042 163.299 27.6634C163.468 27.2192 163.552 26.7254 163.552 26.1818C163.552 25.6449 163.469 25.161 163.304 24.7301C163.141 24.2959 162.894 23.9529 162.563 23.701C162.235 23.4458 161.822 23.3182 161.325 23.3182C160.848 23.3182 160.447 23.4392 160.122 23.6811C159.797 23.9197 159.552 24.2545 159.386 24.6854C159.22 25.1129 159.137 25.6117 159.137 26.1818Z" fill="white"/>
<path d="M21.9966 16.3108C22.7682 15.5389 23.2901 14.4671 23.1472 13.3984C22.0356 13.4355 20.6884 14.0082 19.8905 14.7801C19.1753 15.4634 18.5491 16.5555 18.7162 17.6033C19.9566 17.6817 21.2237 17.0815 21.9966 16.3108ZM24.3639 23.6913C24.3402 21.2954 26.3937 20.1447 26.4846 20.089C25.3302 18.462 23.5322 18.2394 22.8918 18.2143C21.3608 18.0641 19.9066 19.0807 19.1294 19.0807C18.3552 19.0807 17.1578 18.234 15.8881 18.2568C14.2188 18.2825 12.6807 19.1908 11.8234 20.6305C10.0893 23.5268 11.3789 27.8172 13.0687 30.1665C13.8947 31.3166 14.8782 32.6067 16.1697 32.56C17.4164 32.5134 17.8864 31.7851 19.3905 31.7851C20.8953 31.7851 21.3166 32.56 22.6331 32.5367C23.9726 32.5134 24.8204 31.3645 25.6394 30.2108C26.587 28.877 26.9776 27.5856 27 27.5204C26.9712 27.5049 24.3914 26.5564 24.3639 23.6913Z" fill="white"/>
<g clip-path="url(#clip0_22_274)">
<path d="M46.0628 16.7754C46.0259 16.9131 46 17.0608 46 17.2301V31.1695C46 31.3365 46.0249 31.4834 46.0611 31.6193L53.4833 24.2072L46.0628 16.7754Z" fill="#48A0DC"/>
<path d="M47.7142 16.2335C47.3687 16.0115 47.0281 15.9559 46.7405 16.0326L54.1938 23.4973L56.3801 21.3145L47.7142 16.2335Z" fill="#88C057"/>
<path d="M59.5749 23.1884L57.2616 21.832L54.8926 24.1978L57.3061 26.6156L59.5571 25.3128C60.6548 24.6533 60.2539 23.5905 59.5749 23.1884Z" fill="#FFCC66"/>
<path d="M54.1818 24.9062L46.7193 32.3577C47.0113 32.4439 47.3597 32.3927 47.714 32.1649L56.407 27.1346L54.1818 24.9062Z" fill="#ED7161"/>
</g>
<path d="M37 13V37" stroke="white" stroke-width="0.8"/>
<defs>
<clipPath id="clip0_22_274">
<rect width="14.24" height="16.3976" fill="white" transform="translate(46 16)"/>
</clipPath>
</defs>
</svg>
