<svg width="32" height="32" viewBox="0 0 32 32" fill="none" xmlns="http://www.w3.org/2000/svg">
<circle cx="16" cy="16" r="15.75" stroke="#3D79EF" stroke-opacity="0.6" stroke-width="0.5"/>
<path d="M11.9381 9.4688C11.9379 9.85842 11.7829 10.232 11.5073 10.5074C11.2317 10.7827 10.8579 10.9373 10.4683 10.9371C10.0787 10.9369 9.70512 10.782 9.42975 10.5063C9.15439 10.2307 8.99981 9.85695 9 9.46733C9.00019 9.07772 9.15516 8.70414 9.43079 8.42878C9.70643 8.15342 10.0802 7.99883 10.4698 7.99902C10.8594 7.99922 11.233 8.15418 11.5083 8.42982C11.7837 8.70545 11.9383 9.07919 11.9381 9.4688ZM11.9822 12.0249H9.04407V21.2212H11.9822V12.0249ZM16.6243 12.0249H13.7009V21.2212H16.595V16.3954C16.595 13.707 20.0986 13.4573 20.0986 16.3954V21.2212H23V15.3964C23 10.8644 17.8143 11.0333 16.595 13.2589L16.6243 12.0249Z" fill="#3D79EF"/>
</svg>
