<svg width="160" height="52" viewBox="0 0 160 52" fill="none" xmlns="http://www.w3.org/2000/svg">
<rect width="160" height="52" rx="8" fill="#262C55"/>
<path d="M55.125 19H52.8807V11.7273H55.2244C55.9299 11.7273 56.5336 11.8729 57.0355 12.1641C57.5374 12.4529 57.9221 12.8684 58.1896 13.4105C58.4571 13.9503 58.5909 14.5966 58.5909 15.3494C58.5909 16.107 58.456 16.7592 58.1861 17.3061C57.9162 17.8506 57.5232 18.2696 57.0071 18.5632C56.491 18.8544 55.8636 19 55.125 19ZM53.7614 18.2188H55.0682C55.6695 18.2188 56.1679 18.1027 56.5632 17.8707C56.9586 17.6387 57.2533 17.3085 57.4474 16.88C57.6416 16.4515 57.7386 15.9413 57.7386 15.3494C57.7386 14.7623 57.6428 14.2569 57.451 13.8331C57.2592 13.407 56.9728 13.0803 56.5916 12.853C56.2105 12.6233 55.7358 12.5085 55.1676 12.5085H53.7614V18.2188ZM62.1705 19.1136C61.678 19.1136 61.246 18.9964 60.8743 18.7621C60.505 18.5277 60.2161 18.1998 60.0078 17.7784C59.8018 17.357 59.6989 16.8646 59.6989 16.3011C59.6989 15.733 59.8018 15.237 60.0078 14.8132C60.2161 14.3894 60.505 14.0604 60.8743 13.826C61.246 13.5916 61.678 13.4744 62.1705 13.4744C62.6629 13.4744 63.0938 13.5916 63.4631 13.826C63.8348 14.0604 64.1236 14.3894 64.3295 14.8132C64.5379 15.237 64.642 15.733 64.642 16.3011C64.642 16.8646 64.5379 17.357 64.3295 17.7784C64.1236 18.1998 63.8348 18.5277 63.4631 18.7621C63.0938 18.9964 62.6629 19.1136 62.1705 19.1136ZM62.1705 18.3608C62.5445 18.3608 62.8523 18.2649 63.0938 18.0732C63.3352 17.8814 63.514 17.6293 63.63 17.3168C63.746 17.0043 63.804 16.6657 63.804 16.3011C63.804 15.9366 63.746 15.5968 63.63 15.282C63.514 14.9671 63.3352 14.7126 63.0938 14.5185C62.8523 14.3243 62.5445 14.2273 62.1705 14.2273C61.7964 14.2273 61.4886 14.3243 61.2472 14.5185C61.0057 14.7126 60.8269 14.9671 60.7109 15.282C60.5949 15.5968 60.5369 15.9366 60.5369 16.3011C60.5369 16.6657 60.5949 17.0043 60.7109 17.3168C60.8269 17.6293 61.0057 17.8814 61.2472 18.0732C61.4886 18.2649 61.7964 18.3608 62.1705 18.3608ZM66.9716 19L65.3097 13.5455H66.1903L67.3693 17.7216H67.4261L68.5909 13.5455H69.4858L70.6364 17.7074H70.6932L71.8722 13.5455H72.7528L71.0909 19H70.267L69.0739 14.8097H68.9886L67.7955 19H66.9716ZM74.6989 15.7188V19H73.8608V13.5455H74.6705V14.3977H74.7415C74.8693 14.1207 75.0634 13.8982 75.3239 13.7301C75.5843 13.5597 75.9205 13.4744 76.3324 13.4744C76.7017 13.4744 77.0249 13.5502 77.3018 13.7017C77.5788 13.8509 77.7943 14.0781 77.9482 14.3835C78.102 14.6866 78.179 15.0701 78.179 15.5341V19H77.3409V15.5909C77.3409 15.1624 77.2296 14.8286 77.0071 14.5895C76.7846 14.348 76.4792 14.2273 76.0909 14.2273C75.8234 14.2273 75.5843 14.2853 75.3736 14.4013C75.1652 14.5173 75.0007 14.6866 74.88 14.9091C74.7592 15.1316 74.6989 15.4015 74.6989 15.7188ZM80.5485 11.7273V19H79.7104V11.7273H80.5485ZM84.2994 19.1136C83.8069 19.1136 83.3749 18.9964 83.0032 18.7621C82.6339 18.5277 82.3451 18.1998 82.1367 17.7784C81.9308 17.357 81.8278 16.8646 81.8278 16.3011C81.8278 15.733 81.9308 15.237 82.1367 14.8132C82.3451 14.3894 82.6339 14.0604 83.0032 13.826C83.3749 13.5916 83.8069 13.4744 84.2994 13.4744C84.7918 13.4744 85.2227 13.5916 85.592 13.826C85.9637 14.0604 86.2525 14.3894 86.4585 14.8132C86.6668 15.237 86.771 15.733 86.771 16.3011C86.771 16.8646 86.6668 17.357 86.4585 17.7784C86.2525 18.1998 85.9637 18.5277 85.592 18.7621C85.2227 18.9964 84.7918 19.1136 84.2994 19.1136ZM84.2994 18.3608C84.6734 18.3608 84.9812 18.2649 85.2227 18.0732C85.4641 17.8814 85.6429 17.6293 85.7589 17.3168C85.8749 17.0043 85.9329 16.6657 85.9329 16.3011C85.9329 15.9366 85.8749 15.5968 85.7589 15.282C85.6429 14.9671 85.4641 14.7126 85.2227 14.5185C84.9812 14.3243 84.6734 14.2273 84.2994 14.2273C83.9253 14.2273 83.6175 14.3243 83.3761 14.5185C83.1346 14.7126 82.9558 14.9671 82.8398 15.282C82.7238 15.5968 82.6658 15.9366 82.6658 16.3011C82.6658 16.6657 82.7238 17.0043 82.8398 17.3168C82.9558 17.6293 83.1346 17.8814 83.3761 18.0732C83.6175 18.2649 83.9253 18.3608 84.2994 18.3608ZM89.6554 19.1278C89.3097 19.1278 88.996 19.0627 88.7143 18.9325C88.4326 18.8 88.2089 18.6094 88.0431 18.3608C87.8774 18.1098 87.7946 17.8068 87.7946 17.4517C87.7946 17.1392 87.8561 16.8859 87.9792 16.6918C88.1023 16.4953 88.2669 16.3414 88.4728 16.2301C88.6788 16.1188 88.9061 16.036 89.1547 15.9815C89.4056 15.9247 89.6577 15.8797 89.911 15.8466C90.2425 15.804 90.5112 15.772 90.7172 15.7507C90.9255 15.727 91.077 15.688 91.1717 15.6335C91.2688 15.5791 91.3173 15.4844 91.3173 15.3494V15.321C91.3173 14.9706 91.2214 14.6984 91.0297 14.5043C90.8403 14.3101 90.5526 14.2131 90.1667 14.2131C89.7666 14.2131 89.4529 14.3007 89.2257 14.4759C88.9984 14.651 88.8386 14.8381 88.7463 15.0369L87.9508 14.7528C88.0929 14.4214 88.2823 14.1634 88.519 13.9787C88.7581 13.7917 89.0185 13.6615 89.3002 13.5881C89.5843 13.5123 89.8637 13.4744 90.1383 13.4744C90.3135 13.4744 90.5147 13.4957 90.742 13.5384C90.9717 13.5786 91.193 13.6626 91.4061 13.7905C91.6215 13.9183 91.8002 14.1113 91.9423 14.3693C92.0843 14.6274 92.1554 14.973 92.1554 15.4062V19H91.3173V18.2614H91.2747C91.2179 18.3797 91.1232 18.5064 90.9906 18.6413C90.858 18.7763 90.6816 18.8911 90.4615 18.9858C90.2413 19.0805 89.9726 19.1278 89.6554 19.1278ZM89.7832 18.375C90.1146 18.375 90.394 18.3099 90.6213 18.1797C90.8509 18.0495 91.0237 17.8814 91.1397 17.6754C91.2581 17.4695 91.3173 17.2528 91.3173 17.0256V16.2585C91.2818 16.3011 91.2037 16.3402 91.0829 16.3757C90.9645 16.4089 90.8272 16.4384 90.671 16.4645C90.5171 16.4882 90.3668 16.5095 90.22 16.5284C90.0756 16.545 89.9584 16.5592 89.8684 16.571C89.6506 16.5994 89.447 16.6456 89.2576 16.7095C89.0706 16.7711 88.9191 16.8646 88.8031 16.9901C88.6895 17.1132 88.6326 17.2812 88.6326 17.4943C88.6326 17.7855 88.7404 18.0057 88.9558 18.1548C89.1736 18.3016 89.4494 18.375 89.7832 18.375ZM95.7447 19.1136C95.2901 19.1136 94.8888 18.9988 94.5408 18.7692C94.1928 18.5372 93.9206 18.2105 93.7241 17.7891C93.5276 17.3653 93.4293 16.8646 93.4293 16.2869C93.4293 15.714 93.5276 15.2169 93.7241 14.7955C93.9206 14.3741 94.194 14.0485 94.5444 13.8189C94.8948 13.5893 95.2996 13.4744 95.7589 13.4744C96.114 13.4744 96.3945 13.5336 96.6005 13.652C96.8088 13.768 96.9674 13.9006 97.0763 14.0497C97.1876 14.1965 97.274 14.3172 97.3356 14.4119H97.4066V11.7273H98.2447V19H97.435V18.1619H97.3356C97.274 18.2614 97.1864 18.3868 97.0728 18.5384C96.9592 18.6875 96.797 18.8213 96.5863 18.9396C96.3756 19.0556 96.0951 19.1136 95.7447 19.1136ZM95.8583 18.3608C96.1945 18.3608 96.4786 18.2732 96.7106 18.098C96.9426 17.9205 97.119 17.6754 97.2397 17.3629C97.3604 17.0481 97.4208 16.6847 97.4208 16.2727C97.4208 15.8655 97.3616 15.5092 97.2433 15.2038C97.1249 14.8961 96.9497 14.657 96.7177 14.4865C96.4857 14.3137 96.1992 14.2273 95.8583 14.2273C95.5032 14.2273 95.2073 14.3184 94.9705 14.5007C94.7362 14.6806 94.5598 14.9257 94.4414 15.2358C94.3254 15.5436 94.2674 15.8892 94.2674 16.2727C94.2674 16.661 94.3266 17.0137 94.445 17.331C94.5657 17.6458 94.7433 17.8968 94.9776 18.0838C95.2144 18.2685 95.5079 18.3608 95.8583 18.3608ZM104.924 19.1136C104.432 19.1136 104 18.9964 103.628 18.7621C103.259 18.5277 102.97 18.1998 102.762 17.7784C102.556 17.357 102.453 16.8646 102.453 16.3011C102.453 15.733 102.556 15.237 102.762 14.8132C102.97 14.3894 103.259 14.0604 103.628 13.826C104 13.5916 104.432 13.4744 104.924 13.4744C105.417 13.4744 105.848 13.5916 106.217 13.826C106.589 14.0604 106.877 14.3894 107.083 14.8132C107.292 15.237 107.396 15.733 107.396 16.3011C107.396 16.8646 107.292 17.357 107.083 17.7784C106.877 18.1998 106.589 18.5277 106.217 18.7621C105.848 18.9964 105.417 19.1136 104.924 19.1136ZM104.924 18.3608C105.298 18.3608 105.606 18.2649 105.848 18.0732C106.089 17.8814 106.268 17.6293 106.384 17.3168C106.5 17.0043 106.558 16.6657 106.558 16.3011C106.558 15.9366 106.5 15.5968 106.384 15.282C106.268 14.9671 106.089 14.7126 105.848 14.5185C105.606 14.3243 105.298 14.2273 104.924 14.2273C104.55 14.2273 104.243 14.3243 104.001 14.5185C103.76 14.7126 103.581 14.9671 103.465 15.282C103.349 15.5968 103.291 15.9366 103.291 16.3011C103.291 16.6657 103.349 17.0043 103.465 17.3168C103.581 17.6293 103.76 17.8814 104.001 18.0732C104.243 18.2649 104.55 18.3608 104.924 18.3608ZM109.513 15.7188V19H108.675V13.5455H109.485V14.3977H109.556C109.684 14.1207 109.878 13.8982 110.138 13.7301C110.399 13.5597 110.735 13.4744 111.147 13.4744C111.516 13.4744 111.839 13.5502 112.116 13.7017C112.393 13.8509 112.609 14.0781 112.763 14.3835C112.916 14.6866 112.993 15.0701 112.993 15.5341V19H112.155V15.5909C112.155 15.1624 112.044 14.8286 111.822 14.5895C111.599 14.348 111.294 14.2273 110.905 14.2273C110.638 14.2273 110.399 14.2853 110.188 14.4013C109.98 14.5173 109.815 14.6866 109.694 14.9091C109.574 15.1316 109.513 15.4015 109.513 15.7188Z" fill="white"/>
<path d="M52.1477 39V27.3636H56.5114C57.4053 27.3636 58.1553 27.5303 58.7614 27.8636C59.3712 28.197 59.8314 28.6553 60.142 29.2386C60.4564 29.8182 60.6136 30.4773 60.6136 31.2159C60.6136 31.9621 60.4564 32.625 60.142 33.2045C59.8277 33.7841 59.3636 34.2405 58.75 34.5739C58.1364 34.9034 57.3807 35.0682 56.483 35.0682H53.5909V33.3352H56.1989C56.7216 33.3352 57.1496 33.2443 57.483 33.0625C57.8163 32.8807 58.0625 32.6307 58.2216 32.3125C58.3845 31.9943 58.4659 31.6288 58.4659 31.2159C58.4659 30.803 58.3845 30.4394 58.2216 30.125C58.0625 29.8106 57.8144 29.5663 57.4773 29.392C57.1439 29.214 56.714 29.125 56.1875 29.125H54.2557V39H52.1477ZM64.4105 27.3636V39H62.3537V27.3636H64.4105ZM69.0369 39.1761C68.4839 39.1761 67.9858 39.0777 67.5426 38.8807C67.1032 38.6799 66.7547 38.3845 66.4972 37.9943C66.2434 37.6042 66.1165 37.1231 66.1165 36.5511C66.1165 36.0587 66.2074 35.6515 66.3892 35.3295C66.571 35.0076 66.8191 34.75 67.1335 34.5568C67.4479 34.3636 67.8021 34.2178 68.196 34.1193C68.5938 34.017 69.0047 33.9432 69.429 33.8977C69.9403 33.8447 70.3551 33.7973 70.6733 33.7557C70.9915 33.7102 71.2225 33.642 71.3665 33.5511C71.5142 33.4564 71.5881 33.3106 71.5881 33.1136V33.0795C71.5881 32.6515 71.4612 32.3201 71.2074 32.0852C70.9536 31.8504 70.5881 31.733 70.1108 31.733C69.607 31.733 69.2074 31.8428 68.9119 32.0625C68.6203 32.2822 68.4233 32.5417 68.321 32.8409L66.4006 32.5682C66.5521 32.0379 66.8021 31.5947 67.1506 31.2386C67.4991 30.8788 67.9252 30.6098 68.429 30.4318C68.9328 30.25 69.4896 30.1591 70.0994 30.1591C70.5199 30.1591 70.9384 30.2083 71.3551 30.3068C71.7718 30.4053 72.1525 30.5682 72.4972 30.7955C72.8419 31.0189 73.1184 31.3239 73.3267 31.7102C73.5388 32.0966 73.6449 32.5795 73.6449 33.1591V39H71.6676V37.8011H71.5994C71.4744 38.0436 71.2983 38.2708 71.071 38.483C70.8475 38.6913 70.5653 38.8598 70.2244 38.9886C69.8873 39.1136 69.4915 39.1761 69.0369 39.1761ZM69.571 37.6648C69.9839 37.6648 70.3419 37.5833 70.6449 37.4205C70.9479 37.2538 71.1809 37.0341 71.3438 36.7614C71.5104 36.4886 71.5938 36.1913 71.5938 35.8693V34.8409C71.5294 34.8939 71.4195 34.9432 71.2642 34.9886C71.1127 35.0341 70.9422 35.0739 70.7528 35.108C70.5634 35.142 70.3759 35.1723 70.1903 35.1989C70.0047 35.2254 69.8438 35.2481 69.7074 35.267C69.4006 35.3087 69.1259 35.3769 68.8835 35.4716C68.6411 35.5663 68.4498 35.6989 68.3097 35.8693C68.1695 36.036 68.0994 36.2519 68.0994 36.517C68.0994 36.8958 68.2377 37.1818 68.5142 37.375C68.7907 37.5682 69.143 37.6648 69.571 37.6648ZM76.679 42.2727C76.3987 42.2727 76.1392 42.25 75.9006 42.2045C75.6657 42.1629 75.4782 42.1136 75.3381 42.0568L75.8153 40.4545C76.1146 40.5417 76.3816 40.5833 76.6165 40.5795C76.8513 40.5758 77.0578 40.5019 77.2358 40.358C77.4176 40.2178 77.571 39.983 77.696 39.6534L77.8722 39.1818L74.7074 30.2727H76.8892L78.9006 36.8636H78.9915L81.0085 30.2727H83.196L79.7017 40.0568C79.5388 40.5189 79.3229 40.9148 79.054 41.2443C78.785 41.5777 78.4555 41.8314 78.0653 42.0057C77.679 42.1837 77.2169 42.2727 76.679 42.2727ZM91.0341 30.5625C90.9811 30.0663 90.7576 29.6799 90.3636 29.4034C89.9735 29.1269 89.4659 28.9886 88.8409 28.9886C88.4015 28.9886 88.0246 29.0549 87.7102 29.1875C87.3958 29.3201 87.1553 29.5 86.9886 29.7273C86.822 29.9545 86.7367 30.214 86.733 30.5057C86.733 30.7481 86.7879 30.9583 86.8977 31.1364C87.0114 31.3144 87.1648 31.4659 87.358 31.5909C87.5511 31.7121 87.7652 31.8144 88 31.8977C88.2348 31.9811 88.4716 32.0511 88.7102 32.108L89.8011 32.3807C90.2405 32.483 90.6629 32.6212 91.0682 32.7955C91.4773 32.9697 91.8428 33.1894 92.1648 33.4545C92.4905 33.7197 92.7481 34.0398 92.9375 34.4148C93.1269 34.7898 93.2216 35.2292 93.2216 35.733C93.2216 36.4148 93.0473 37.0152 92.6989 37.5341C92.3504 38.0492 91.8466 38.4527 91.1875 38.7443C90.5322 39.0322 89.7386 39.1761 88.8068 39.1761C87.9015 39.1761 87.1155 39.036 86.4489 38.7557C85.786 38.4754 85.267 38.0663 84.892 37.5284C84.5208 36.9905 84.3201 36.3352 84.2898 35.5625H86.3636C86.3939 35.9678 86.5189 36.3049 86.7386 36.5739C86.9583 36.8428 87.2443 37.0436 87.5966 37.1761C87.9527 37.3087 88.3504 37.375 88.7898 37.375C89.2481 37.375 89.6496 37.3068 89.9943 37.1705C90.3428 37.0303 90.6155 36.8371 90.8125 36.5909C91.0095 36.3409 91.1098 36.0492 91.1136 35.7159C91.1098 35.4129 91.0208 35.1629 90.8466 34.9659C90.6723 34.7652 90.428 34.5985 90.1136 34.4659C89.803 34.3295 89.4394 34.2083 89.0227 34.1023L87.6989 33.7614C86.7405 33.5152 85.983 33.142 85.4261 32.642C84.8731 32.1383 84.5966 31.4697 84.5966 30.6364C84.5966 29.9508 84.7822 29.3504 85.1534 28.8352C85.5284 28.3201 86.0379 27.9205 86.6818 27.6364C87.3258 27.3485 88.0549 27.2045 88.8693 27.2045C89.6951 27.2045 90.4186 27.3485 91.0398 27.6364C91.6648 27.9205 92.1553 28.3163 92.5114 28.8239C92.8674 29.3277 93.0511 29.9072 93.0625 30.5625H91.0341ZM99.3679 30.2727V31.8636H94.3509V30.2727H99.3679ZM95.5895 28.1818H97.6463V36.375C97.6463 36.6515 97.688 36.8636 97.7713 37.0114C97.8584 37.1553 97.9721 37.2538 98.1122 37.3068C98.2524 37.3598 98.4077 37.3864 98.5781 37.3864C98.7069 37.3864 98.8243 37.3769 98.9304 37.358C99.0402 37.339 99.1236 37.322 99.1804 37.3068L99.527 38.9148C99.4171 38.9527 99.2599 38.9943 99.0554 39.0398C98.8546 39.0852 98.6084 39.1117 98.3168 39.1193C97.8016 39.1345 97.3376 39.0568 96.9247 38.8864C96.5118 38.7121 96.1842 38.4432 95.9418 38.0795C95.7031 37.7159 95.5857 37.2614 95.5895 36.7159V28.1818ZM104.801 39.1705C103.949 39.1705 103.21 38.983 102.585 38.608C101.96 38.233 101.475 37.7083 101.131 37.0341C100.79 36.3598 100.619 35.572 100.619 34.6705C100.619 33.7689 100.79 32.9792 101.131 32.3011C101.475 31.6231 101.96 31.0966 102.585 30.7216C103.21 30.3466 103.949 30.1591 104.801 30.1591C105.653 30.1591 106.392 30.3466 107.017 30.7216C107.642 31.0966 108.125 31.6231 108.466 32.3011C108.811 32.9792 108.983 33.7689 108.983 34.6705C108.983 35.572 108.811 36.3598 108.466 37.0341C108.125 37.7083 107.642 38.233 107.017 38.608C106.392 38.983 105.653 39.1705 104.801 39.1705ZM104.812 37.5227C105.275 37.5227 105.661 37.3958 105.972 37.142C106.282 36.8845 106.513 36.5398 106.665 36.108C106.82 35.6761 106.898 35.1951 106.898 34.6648C106.898 34.1307 106.82 33.6477 106.665 33.2159C106.513 32.7803 106.282 32.4337 105.972 32.1761C105.661 31.9186 105.275 31.7898 104.812 31.7898C104.339 31.7898 103.945 31.9186 103.631 32.1761C103.32 32.4337 103.087 32.7803 102.932 33.2159C102.78 33.6477 102.705 34.1307 102.705 34.6648C102.705 35.1951 102.78 35.6761 102.932 36.108C103.087 36.5398 103.32 36.8845 103.631 37.142C103.945 37.3958 104.339 37.5227 104.812 37.5227ZM110.729 39V30.2727H112.723V31.7273H112.814C112.973 31.2235 113.246 30.8352 113.632 30.5625C114.022 30.286 114.467 30.1477 114.967 30.1477C115.081 30.1477 115.208 30.1534 115.348 30.1648C115.492 30.1723 115.611 30.1856 115.706 30.2045V32.0966C115.619 32.0663 115.481 32.0398 115.291 32.017C115.106 31.9905 114.926 31.9773 114.751 31.9773C114.376 31.9773 114.039 32.0587 113.74 32.2216C113.445 32.3807 113.212 32.6023 113.041 32.8864C112.871 33.1705 112.786 33.4981 112.786 33.8693V39H110.729ZM120.577 39.1705C119.702 39.1705 118.946 38.9886 118.31 38.625C117.677 38.2576 117.19 37.7386 116.849 37.0682C116.509 36.3939 116.338 35.6004 116.338 34.6875C116.338 33.7898 116.509 33.0019 116.849 32.3239C117.194 31.642 117.675 31.1117 118.293 30.733C118.91 30.3504 119.635 30.1591 120.469 30.1591C121.007 30.1591 121.514 30.2462 121.991 30.4205C122.473 30.5909 122.897 30.8561 123.264 31.2159C123.635 31.5758 123.927 32.0341 124.139 32.5909C124.351 33.1439 124.457 33.803 124.457 34.5682V35.1989H117.304V33.8125H122.486C122.482 33.4186 122.397 33.0682 122.23 32.7614C122.063 32.4508 121.83 32.2064 121.531 32.0284C121.236 31.8504 120.891 31.7614 120.497 31.7614C120.077 31.7614 119.707 31.8636 119.389 32.0682C119.071 32.2689 118.823 32.5341 118.645 32.8636C118.471 33.1894 118.382 33.5473 118.378 33.9375V35.1477C118.378 35.6553 118.471 36.0909 118.656 36.4545C118.842 36.8144 119.101 37.0909 119.435 37.2841C119.768 37.4735 120.158 37.5682 120.605 37.5682C120.904 37.5682 121.175 37.5265 121.418 37.4432C121.66 37.3561 121.87 37.2292 122.048 37.0625C122.226 36.8958 122.361 36.6894 122.452 36.4432L124.372 36.6591C124.251 37.1667 124.02 37.6098 123.679 37.9886C123.342 38.3636 122.91 38.6553 122.384 38.8636C121.857 39.0682 121.255 39.1705 120.577 39.1705Z" fill="white"/>
<g clip-path="url(#clip0_7856_4356)">
<path d="M13.1058 14.3063C13.0436 14.5383 13 14.7872 13 15.0726V38.566C13 38.8475 13.042 39.0951 13.1029 39.3241L25.6123 26.8319L13.1058 14.3063Z" fill="#48A0DC"/>
<path d="M15.8891 13.3938C15.3069 13.0195 14.7328 12.9259 14.2481 13.0551L26.8098 25.6362L30.4945 21.9573L15.8891 13.3938Z" fill="#88C057"/>
<path d="M35.8791 25.1144L31.9803 22.8285L27.9875 26.8158L32.0552 30.8906L35.8491 28.6949C37.6992 27.5834 37.0235 25.7923 35.8791 25.1144Z" fill="#FFCC66"/>
<path d="M26.7896 28.011L14.2123 40.5695C14.7044 40.7148 15.2916 40.6285 15.8887 40.2447L30.5398 31.7667L26.7896 28.011Z" fill="#ED7161"/>
</g>
<defs>
<clipPath id="clip0_7856_4356">
<rect width="24" height="27.6364" fill="white" transform="translate(13 13)"/>
</clipPath>
</defs>
</svg>
