<svg width="143" height="50" viewBox="0 0 143 50" fill="none" xmlns="http://www.w3.org/2000/svg">
<rect width="143" height="50" rx="8" fill="#262C55"/>
<path d="M52.125 19H49.8807V11.7273H52.2244C52.9299 11.7273 53.5336 11.8729 54.0355 12.1641C54.5374 12.4529 54.9221 12.8684 55.1896 13.4105C55.4571 13.9503 55.5909 14.5966 55.5909 15.3494C55.5909 16.107 55.456 16.7592 55.1861 17.3061C54.9162 17.8506 54.5232 18.2696 54.0071 18.5632C53.491 18.8544 52.8636 19 52.125 19ZM50.7614 18.2188H52.0682C52.6695 18.2188 53.1679 18.1027 53.5632 17.8707C53.9586 17.6387 54.2533 17.3085 54.4474 16.88C54.6416 16.4515 54.7386 15.9413 54.7386 15.3494C54.7386 14.7623 54.6428 14.2569 54.451 13.8331C54.2592 13.407 53.9728 13.0803 53.5916 12.853C53.2105 12.6233 52.7358 12.5085 52.1676 12.5085H50.7614V18.2188ZM59.1705 19.1136C58.678 19.1136 58.246 18.9964 57.8743 18.7621C57.505 18.5277 57.2161 18.1998 57.0078 17.7784C56.8018 17.357 56.6989 16.8646 56.6989 16.3011C56.6989 15.733 56.8018 15.237 57.0078 14.8132C57.2161 14.3894 57.505 14.0604 57.8743 13.826C58.246 13.5916 58.678 13.4744 59.1705 13.4744C59.6629 13.4744 60.0938 13.5916 60.4631 13.826C60.8348 14.0604 61.1236 14.3894 61.3295 14.8132C61.5379 15.237 61.642 15.733 61.642 16.3011C61.642 16.8646 61.5379 17.357 61.3295 17.7784C61.1236 18.1998 60.8348 18.5277 60.4631 18.7621C60.0938 18.9964 59.6629 19.1136 59.1705 19.1136ZM59.1705 18.3608C59.5445 18.3608 59.8523 18.2649 60.0938 18.0732C60.3352 17.8814 60.514 17.6293 60.63 17.3168C60.746 17.0043 60.804 16.6657 60.804 16.3011C60.804 15.9366 60.746 15.5968 60.63 15.282C60.514 14.9671 60.3352 14.7126 60.0938 14.5185C59.8523 14.3243 59.5445 14.2273 59.1705 14.2273C58.7964 14.2273 58.4886 14.3243 58.2472 14.5185C58.0057 14.7126 57.8269 14.9671 57.7109 15.282C57.5949 15.5968 57.5369 15.9366 57.5369 16.3011C57.5369 16.6657 57.5949 17.0043 57.7109 17.3168C57.8269 17.6293 58.0057 17.8814 58.2472 18.0732C58.4886 18.2649 58.7964 18.3608 59.1705 18.3608ZM63.9716 19L62.3097 13.5455H63.1903L64.3693 17.7216H64.4261L65.5909 13.5455H66.4858L67.6364 17.7074H67.6932L68.8722 13.5455H69.7528L68.0909 19H67.267L66.0739 14.8097H65.9886L64.7955 19H63.9716ZM71.6989 15.7188V19H70.8608V13.5455H71.6705V14.3977H71.7415C71.8693 14.1207 72.0634 13.8982 72.3239 13.7301C72.5843 13.5597 72.9205 13.4744 73.3324 13.4744C73.7017 13.4744 74.0249 13.5502 74.3018 13.7017C74.5788 13.8509 74.7943 14.0781 74.9482 14.3835C75.102 14.6866 75.179 15.0701 75.179 15.5341V19H74.3409V15.5909C74.3409 15.1624 74.2296 14.8286 74.0071 14.5895C73.7846 14.348 73.4792 14.2273 73.0909 14.2273C72.8234 14.2273 72.5843 14.2853 72.3736 14.4013C72.1652 14.5173 72.0007 14.6866 71.88 14.9091C71.7592 15.1316 71.6989 15.4015 71.6989 15.7188ZM77.5485 11.7273V19H76.7104V11.7273H77.5485ZM81.2994 19.1136C80.8069 19.1136 80.3749 18.9964 80.0032 18.7621C79.6339 18.5277 79.3451 18.1998 79.1367 17.7784C78.9308 17.357 78.8278 16.8646 78.8278 16.3011C78.8278 15.733 78.9308 15.237 79.1367 14.8132C79.3451 14.3894 79.6339 14.0604 80.0032 13.826C80.3749 13.5916 80.8069 13.4744 81.2994 13.4744C81.7918 13.4744 82.2227 13.5916 82.592 13.826C82.9637 14.0604 83.2525 14.3894 83.4585 14.8132C83.6668 15.237 83.771 15.733 83.771 16.3011C83.771 16.8646 83.6668 17.357 83.4585 17.7784C83.2525 18.1998 82.9637 18.5277 82.592 18.7621C82.2227 18.9964 81.7918 19.1136 81.2994 19.1136ZM81.2994 18.3608C81.6734 18.3608 81.9812 18.2649 82.2227 18.0732C82.4641 17.8814 82.6429 17.6293 82.7589 17.3168C82.8749 17.0043 82.9329 16.6657 82.9329 16.3011C82.9329 15.9366 82.8749 15.5968 82.7589 15.282C82.6429 14.9671 82.4641 14.7126 82.2227 14.5185C81.9812 14.3243 81.6734 14.2273 81.2994 14.2273C80.9253 14.2273 80.6175 14.3243 80.3761 14.5185C80.1346 14.7126 79.9558 14.9671 79.8398 15.282C79.7238 15.5968 79.6658 15.9366 79.6658 16.3011C79.6658 16.6657 79.7238 17.0043 79.8398 17.3168C79.9558 17.6293 80.1346 17.8814 80.3761 18.0732C80.6175 18.2649 80.9253 18.3608 81.2994 18.3608ZM86.6554 19.1278C86.3097 19.1278 85.996 19.0627 85.7143 18.9325C85.4326 18.8 85.2089 18.6094 85.0431 18.3608C84.8774 18.1098 84.7946 17.8068 84.7946 17.4517C84.7946 17.1392 84.8561 16.8859 84.9792 16.6918C85.1023 16.4953 85.2669 16.3414 85.4728 16.2301C85.6788 16.1188 85.9061 16.036 86.1547 15.9815C86.4056 15.9247 86.6577 15.8797 86.911 15.8466C87.2425 15.804 87.5112 15.772 87.7172 15.7507C87.9255 15.727 88.077 15.688 88.1717 15.6335C88.2688 15.5791 88.3173 15.4844 88.3173 15.3494V15.321C88.3173 14.9706 88.2214 14.6984 88.0297 14.5043C87.8403 14.3101 87.5526 14.2131 87.1667 14.2131C86.7666 14.2131 86.4529 14.3007 86.2257 14.4759C85.9984 14.651 85.8386 14.8381 85.7463 15.0369L84.9508 14.7528C85.0929 14.4214 85.2823 14.1634 85.519 13.9787C85.7581 13.7917 86.0185 13.6615 86.3002 13.5881C86.5843 13.5123 86.8637 13.4744 87.1383 13.4744C87.3135 13.4744 87.5147 13.4957 87.742 13.5384C87.9717 13.5786 88.193 13.6626 88.4061 13.7905C88.6215 13.9183 88.8002 14.1113 88.9423 14.3693C89.0843 14.6274 89.1554 14.973 89.1554 15.4062V19H88.3173V18.2614H88.2747C88.2179 18.3797 88.1232 18.5064 87.9906 18.6413C87.858 18.7763 87.6816 18.8911 87.4615 18.9858C87.2413 19.0805 86.9726 19.1278 86.6554 19.1278ZM86.7832 18.375C87.1146 18.375 87.394 18.3099 87.6213 18.1797C87.8509 18.0495 88.0237 17.8814 88.1397 17.6754C88.2581 17.4695 88.3173 17.2528 88.3173 17.0256V16.2585C88.2818 16.3011 88.2037 16.3402 88.0829 16.3757C87.9645 16.4089 87.8272 16.4384 87.671 16.4645C87.5171 16.4882 87.3668 16.5095 87.22 16.5284C87.0756 16.545 86.9584 16.5592 86.8684 16.571C86.6506 16.5994 86.447 16.6456 86.2576 16.7095C86.0706 16.7711 85.9191 16.8646 85.8031 16.9901C85.6895 17.1132 85.6326 17.2812 85.6326 17.4943C85.6326 17.7855 85.7404 18.0057 85.9558 18.1548C86.1736 18.3016 86.4494 18.375 86.7832 18.375ZM92.7447 19.1136C92.2901 19.1136 91.8888 18.9988 91.5408 18.7692C91.1928 18.5372 90.9206 18.2105 90.7241 17.7891C90.5276 17.3653 90.4293 16.8646 90.4293 16.2869C90.4293 15.714 90.5276 15.2169 90.7241 14.7955C90.9206 14.3741 91.194 14.0485 91.5444 13.8189C91.8948 13.5893 92.2996 13.4744 92.7589 13.4744C93.114 13.4744 93.3945 13.5336 93.6005 13.652C93.8088 13.768 93.9674 13.9006 94.0763 14.0497C94.1876 14.1965 94.274 14.3172 94.3356 14.4119H94.4066V11.7273H95.2447V19H94.435V18.1619H94.3356C94.274 18.2614 94.1864 18.3868 94.0728 18.5384C93.9592 18.6875 93.797 18.8213 93.5863 18.9396C93.3756 19.0556 93.0951 19.1136 92.7447 19.1136ZM92.8583 18.3608C93.1945 18.3608 93.4786 18.2732 93.7106 18.098C93.9426 17.9205 94.119 17.6754 94.2397 17.3629C94.3604 17.0481 94.4208 16.6847 94.4208 16.2727C94.4208 15.8655 94.3616 15.5092 94.2433 15.2038C94.1249 14.8961 93.9497 14.657 93.7177 14.4865C93.4857 14.3137 93.1992 14.2273 92.8583 14.2273C92.5032 14.2273 92.2073 14.3184 91.9705 14.5007C91.7362 14.6806 91.5598 14.9257 91.4414 15.2358C91.3254 15.5436 91.2674 15.8892 91.2674 16.2727C91.2674 16.661 91.3266 17.0137 91.445 17.331C91.5657 17.6458 91.7433 17.8968 91.9776 18.0838C92.2144 18.2685 92.5079 18.3608 92.8583 18.3608ZM101.924 19.1136C101.432 19.1136 101 18.9964 100.628 18.7621C100.259 18.5277 99.9701 18.1998 99.7617 17.7784C99.5558 17.357 99.4528 16.8646 99.4528 16.3011C99.4528 15.733 99.5558 15.237 99.7617 14.8132C99.9701 14.3894 100.259 14.0604 100.628 13.826C101 13.5916 101.432 13.4744 101.924 13.4744C102.417 13.4744 102.848 13.5916 103.217 13.826C103.589 14.0604 103.877 14.3894 104.083 14.8132C104.292 15.237 104.396 15.733 104.396 16.3011C104.396 16.8646 104.292 17.357 104.083 17.7784C103.877 18.1998 103.589 18.5277 103.217 18.7621C102.848 18.9964 102.417 19.1136 101.924 19.1136ZM101.924 18.3608C102.298 18.3608 102.606 18.2649 102.848 18.0732C103.089 17.8814 103.268 17.6293 103.384 17.3168C103.5 17.0043 103.558 16.6657 103.558 16.3011C103.558 15.9366 103.5 15.5968 103.384 15.282C103.268 14.9671 103.089 14.7126 102.848 14.5185C102.606 14.3243 102.298 14.2273 101.924 14.2273C101.55 14.2273 101.243 14.3243 101.001 14.5185C100.76 14.7126 100.581 14.9671 100.465 15.282C100.349 15.5968 100.291 15.9366 100.291 16.3011C100.291 16.6657 100.349 17.0043 100.465 17.3168C100.581 17.6293 100.76 17.8814 101.001 18.0732C101.243 18.2649 101.55 18.3608 101.924 18.3608ZM106.513 15.7188V19H105.675V13.5455H106.485V14.3977H106.556C106.684 14.1207 106.878 13.8982 107.138 13.7301C107.399 13.5597 107.735 13.4744 108.147 13.4744C108.516 13.4744 108.839 13.5502 109.116 13.7017C109.393 13.8509 109.609 14.0781 109.763 14.3835C109.916 14.6866 109.993 15.0701 109.993 15.5341V19H109.155V15.5909C109.155 15.1624 109.044 14.8286 108.822 14.5895C108.599 14.348 108.294 14.2273 107.905 14.2273C107.638 14.2273 107.399 14.2853 107.188 14.4013C106.98 14.5173 106.815 14.6866 106.694 14.9091C106.574 15.1316 106.513 15.4015 106.513 15.7188Z" fill="white"/>
<path d="M49.0043 36V25.8182H52.8224C53.6046 25.8182 54.2609 25.964 54.7912 26.2557C55.3248 26.5473 55.7275 26.9484 55.9993 27.4588C56.2744 27.9659 56.4119 28.5426 56.4119 29.1889C56.4119 29.8419 56.2744 30.4219 55.9993 30.929C55.7242 31.4361 55.3182 31.8355 54.7812 32.1271C54.2443 32.4155 53.5831 32.5597 52.7976 32.5597H50.267V31.0433H52.549C53.0064 31.0433 53.3809 30.9638 53.6726 30.8047C53.9643 30.6456 54.1797 30.4268 54.3189 30.1484C54.4614 29.87 54.5327 29.5502 54.5327 29.1889C54.5327 28.8277 54.4614 28.5095 54.3189 28.2344C54.1797 27.9593 53.9626 27.7455 53.6676 27.593C53.3759 27.4373 52.9998 27.3594 52.5391 27.3594H50.8487V36H49.0043ZM59.7342 25.8182V36H57.9345V25.8182H59.7342ZM63.7823 36.1541C63.2984 36.1541 62.8626 36.0679 62.4748 35.8956C62.0903 35.7199 61.7854 35.4614 61.56 35.12C61.3379 34.7786 61.2269 34.3577 61.2269 33.8572C61.2269 33.4264 61.3065 33.0701 61.4656 32.7884C61.6246 32.5066 61.8417 32.2812 62.1168 32.1122C62.3919 31.9432 62.7018 31.8156 63.0465 31.7294C63.3945 31.6399 63.7541 31.5753 64.1254 31.5355C64.5728 31.4891 64.9357 31.4477 65.2141 31.4112C65.4925 31.3714 65.6947 31.3118 65.8207 31.2322C65.9499 31.1494 66.0146 31.0218 66.0146 30.8494V30.8196C66.0146 30.4451 65.9035 30.1551 65.6815 29.9496C65.4594 29.7441 65.1396 29.6413 64.7219 29.6413C64.2811 29.6413 63.9315 29.7375 63.6729 29.9297C63.4177 30.1219 63.2454 30.349 63.1559 30.6108L61.4755 30.3722C61.6081 29.9081 61.8268 29.5204 62.1317 29.2088C62.4367 28.8939 62.8095 28.6586 63.2504 28.5028C63.6912 28.3438 64.1784 28.2642 64.712 28.2642C65.0799 28.2642 65.4461 28.3073 65.8107 28.3935C66.1753 28.4796 66.5084 28.6222 66.81 28.821C67.1116 29.0166 67.3536 29.2834 67.5359 29.6214C67.7215 29.9595 67.8143 30.3821 67.8143 30.8892V36H66.0842V34.951H66.0245C65.9151 35.1631 65.761 35.362 65.5621 35.5476C65.3666 35.7299 65.1197 35.8774 64.8214 35.9901C64.5264 36.0994 64.18 36.1541 63.7823 36.1541ZM64.2496 34.8317C64.6109 34.8317 64.9241 34.7604 65.1893 34.6179C65.4544 34.4721 65.6583 34.2798 65.8008 34.0412C65.9466 33.8026 66.0195 33.5424 66.0195 33.2607V32.3608C65.9632 32.4072 65.8671 32.4503 65.7312 32.4901C65.5986 32.5298 65.4495 32.5646 65.2837 32.5945C65.118 32.6243 64.954 32.6508 64.7915 32.674C64.6291 32.6972 64.4883 32.7171 64.369 32.7337C64.1005 32.7701 63.8602 32.8298 63.6481 32.9126C63.436 32.9955 63.2686 33.1115 63.146 33.2607C63.0233 33.4065 62.962 33.5954 62.962 33.8274C62.962 34.1589 63.083 34.4091 63.3249 34.5781C63.5669 34.7472 63.8751 34.8317 64.2496 34.8317ZM70.4691 38.8636C70.2238 38.8636 69.9968 38.8438 69.788 38.804C69.5825 38.7675 69.4184 38.7244 69.2958 38.6747L69.7134 37.2727C69.9753 37.349 70.2089 37.3854 70.4144 37.3821C70.6199 37.3788 70.8005 37.3142 70.9563 37.1882C71.1154 37.0656 71.2496 36.8601 71.359 36.5717L71.5131 36.1591L68.744 28.3636H70.6531L72.413 34.1307H72.4925L74.2575 28.3636H76.1715L73.114 36.9247C72.9715 37.3291 72.7826 37.6754 72.5472 37.9638C72.3119 38.2554 72.0236 38.4775 71.6822 38.63C71.3441 38.7857 70.9397 38.8636 70.4691 38.8636ZM83.0298 28.6172C82.9834 28.183 82.7879 27.8449 82.4432 27.603C82.1018 27.361 81.6577 27.2401 81.1108 27.2401C80.7263 27.2401 80.3965 27.2981 80.1214 27.4141C79.8464 27.5301 79.6359 27.6875 79.4901 27.8864C79.3442 28.0852 79.2696 28.3123 79.2663 28.5675C79.2663 28.7796 79.3144 28.9635 79.4105 29.1193C79.5099 29.2751 79.6442 29.4077 79.8132 29.517C79.9822 29.6231 80.1695 29.7126 80.375 29.7855C80.5805 29.8584 80.7876 29.9197 80.9964 29.9695L81.951 30.2081C82.3355 30.2976 82.705 30.4186 83.0597 30.571C83.4176 30.7235 83.7375 30.9157 84.0192 31.1477C84.3042 31.3797 84.5296 31.6598 84.6953 31.9879C84.861 32.3161 84.9439 32.7005 84.9439 33.1413C84.9439 33.7379 84.7914 34.2633 84.4865 34.7173C84.1816 35.1681 83.7408 35.5211 83.1641 35.7763C82.5907 36.0282 81.8963 36.1541 81.081 36.1541C80.2888 36.1541 79.6011 36.0315 79.0178 35.7862C78.4377 35.541 77.9837 35.183 77.6555 34.7124C77.3307 34.2417 77.1551 33.6683 77.1286 32.9922H78.9432C78.9697 33.3468 79.0791 33.6418 79.2713 33.8771C79.4635 34.1125 79.7138 34.2881 80.022 34.4041C80.3336 34.5201 80.6816 34.5781 81.0661 34.5781C81.4671 34.5781 81.8184 34.5185 82.12 34.3991C82.425 34.2765 82.6636 34.1075 82.8359 33.892C83.0083 33.6733 83.0961 33.4181 83.0994 33.1264C83.0961 32.8613 83.0182 32.6425 82.8658 32.4702C82.7133 32.2945 82.4995 32.1487 82.2244 32.0327C81.9527 31.9134 81.6345 31.8073 81.2699 31.7145L80.1115 31.4162C79.273 31.2008 78.6101 30.8743 78.1229 30.4368C77.639 29.996 77.397 29.411 77.397 28.6818C77.397 28.0819 77.5594 27.5566 77.8842 27.1058C78.2124 26.6551 78.6581 26.3054 79.2216 26.0568C79.785 25.8049 80.4231 25.679 81.1357 25.679C81.8582 25.679 82.4912 25.8049 83.0348 26.0568C83.5817 26.3054 84.0109 26.6518 84.3224 27.0959C84.634 27.5367 84.7947 28.0438 84.8047 28.6172H83.0298ZM90.3219 28.3636V29.7557H85.932V28.3636H90.3219ZM87.0158 26.5341H88.8155V33.7031C88.8155 33.9451 88.852 34.1307 88.9249 34.2599C89.0011 34.3859 89.1006 34.4721 89.2232 34.5185C89.3458 34.5649 89.4817 34.5881 89.6309 34.5881C89.7435 34.5881 89.8463 34.5798 89.9391 34.5632C90.0352 34.5466 90.1081 34.5317 90.1578 34.5185L90.4611 35.9254C90.365 35.9586 90.2275 35.995 90.0485 36.0348C89.8728 36.0746 89.6574 36.0978 89.4022 36.1044C88.9514 36.1177 88.5454 36.0497 88.1841 35.9006C87.8229 35.7481 87.5362 35.5128 87.324 35.1946C87.1152 34.8764 87.0125 34.4787 87.0158 34.0014V26.5341ZM95.076 36.1491C94.3303 36.1491 93.6839 35.9851 93.1371 35.657C92.5902 35.3288 92.166 34.8698 91.8643 34.2798C91.5661 33.6899 91.4169 33.0005 91.4169 32.2116C91.4169 31.4228 91.5661 30.7318 91.8643 30.1385C92.166 29.5452 92.5902 29.0845 93.1371 28.7564C93.6839 28.4283 94.3303 28.2642 95.076 28.2642C95.8217 28.2642 96.468 28.4283 97.0149 28.7564C97.5618 29.0845 97.9844 29.5452 98.2827 30.1385C98.5843 30.7318 98.7351 31.4228 98.7351 32.2116C98.7351 33.0005 98.5843 33.6899 98.2827 34.2798C97.9844 34.8698 97.5618 35.3288 97.0149 35.657C96.468 35.9851 95.8217 36.1491 95.076 36.1491ZM95.0859 34.7074C95.4903 34.7074 95.8284 34.5964 96.1001 34.3743C96.3719 34.1489 96.5741 33.8473 96.7067 33.4695C96.8426 33.0916 96.9105 32.6707 96.9105 32.2067C96.9105 31.7393 96.8426 31.3168 96.7067 30.9389C96.5741 30.5578 96.3719 30.2545 96.1001 30.0291C95.8284 29.8037 95.4903 29.6911 95.0859 29.6911C94.6716 29.6911 94.3269 29.8037 94.0518 30.0291C93.7801 30.2545 93.5762 30.5578 93.4403 30.9389C93.3078 31.3168 93.2415 31.7393 93.2415 32.2067C93.2415 32.6707 93.3078 33.0916 93.4403 33.4695C93.5762 33.8473 93.7801 34.1489 94.0518 34.3743C94.3269 34.5964 94.6716 34.7074 95.0859 34.7074ZM100.263 36V28.3636H102.008V29.6364H102.087C102.226 29.1955 102.465 28.8558 102.803 28.6172C103.144 28.3752 103.534 28.2543 103.971 28.2543C104.071 28.2543 104.182 28.2592 104.305 28.2692C104.43 28.2758 104.535 28.2874 104.618 28.304V29.9595C104.541 29.933 104.421 29.9098 104.255 29.8899C104.092 29.8667 103.935 29.8551 103.782 29.8551C103.454 29.8551 103.159 29.9264 102.898 30.0689C102.639 30.2081 102.435 30.402 102.286 30.6506C102.137 30.8991 102.062 31.1858 102.062 31.5107V36H100.263ZM108.88 36.1491C108.114 36.1491 107.453 35.9901 106.896 35.6719C106.342 35.3504 105.917 34.8963 105.618 34.3097C105.32 33.7197 105.171 33.0253 105.171 32.2266C105.171 31.4411 105.32 30.7517 105.618 30.1584C105.92 29.5618 106.341 29.0978 106.881 28.7663C107.421 28.4316 108.056 28.2642 108.785 28.2642C109.256 28.2642 109.7 28.3404 110.118 28.4929C110.538 28.642 110.91 28.8741 111.231 29.1889C111.556 29.5038 111.811 29.9048 111.997 30.392C112.182 30.8759 112.275 31.4527 112.275 32.1222V32.674H106.016V31.4609H110.55C110.547 31.1162 110.472 30.8097 110.326 30.5412C110.181 30.2694 109.977 30.0556 109.715 29.8999C109.456 29.7441 109.155 29.6662 108.81 29.6662C108.442 29.6662 108.119 29.7557 107.841 29.9347C107.562 30.1103 107.345 30.3423 107.189 30.6307C107.037 30.9157 106.959 31.2289 106.956 31.5703V32.6293C106.956 33.0734 107.037 33.4545 107.199 33.7727C107.362 34.0876 107.589 34.3295 107.88 34.4986C108.172 34.6643 108.513 34.7472 108.904 34.7472C109.166 34.7472 109.403 34.7107 109.615 34.6378C109.828 34.5616 110.011 34.4505 110.167 34.3047C110.323 34.1589 110.441 33.9782 110.52 33.7628L112.201 33.9517C112.095 34.3958 111.892 34.7836 111.594 35.1151C111.299 35.4432 110.921 35.6984 110.461 35.8807C110 36.0597 109.473 36.1491 108.88 36.1491Z" fill="white"/>
<g clip-path="url(#clip0_7945_5347)">
<path d="M15.0926 14.143C15.0382 14.346 15 14.5638 15 14.8135V35.3702C15 35.6165 15.0368 35.8332 15.0901 36.0335L26.0358 25.1029L15.0926 14.143Z" fill="#48A0DC"/>
<path d="M17.5281 13.3446C17.0187 13.0171 16.5164 12.9351 16.0923 13.0482L27.0838 24.0567L30.3079 20.8376L17.5281 13.3446Z" fill="#88C057"/>
<path d="M35.0194 23.6001L31.6079 21.5999L28.1143 25.0888L31.6735 28.6543L34.9931 26.7331C36.612 25.7605 36.0207 24.1933 35.0194 23.6001Z" fill="#FFCC66"/>
<path d="M27.0657 26.1346L16.0605 37.1234C16.4911 37.2505 17.0049 37.175 17.5274 36.8391L30.3471 29.4209L27.0657 26.1346Z" fill="#ED7161"/>
</g>
<defs>
<clipPath id="clip0_7945_5347">
<rect width="21" height="24.1818" fill="white" transform="translate(15 13)"/>
</clipPath>
</defs>
</svg>
