<svg width="32" height="32" viewBox="0 0 32 32" fill="none" xmlns="http://www.w3.org/2000/svg">
<circle cx="16" cy="16" r="15.75" stroke="#3D79EF" stroke-opacity="0.6" stroke-width="0.5"/>
<path d="M23 12.3468C22.6163 12.9183 22.1309 13.4273 21.5671 13.8345C21.5749 13.9519 21.5749 14.0772 21.5749 14.2025C21.5749 18 18.6857 22.377 13.4083 22.377C11.7875 22.377 10.2763 21.8993 9 21.085C9.22707 21.1085 9.45414 21.1242 9.68904 21.1242C11.0358 21.1242 12.2729 20.6622 13.2517 19.8949C12.653 19.8825 12.073 19.6834 11.593 19.3254C11.1129 18.9675 10.7566 18.4685 10.5738 17.8982C10.7461 17.9295 10.9262 17.953 11.1141 17.953C11.3725 17.953 11.6309 17.9139 11.8658 17.8512C11.2164 17.7179 10.6328 17.3647 10.2134 16.8513C9.79408 16.3378 9.56463 15.6954 9.56376 15.0324V15.0011C9.95526 15.2125 10.3937 15.3456 10.8635 15.3613C10.4703 15.0975 10.1482 14.7409 9.92555 14.323C9.70294 13.9051 9.58675 13.4388 9.58725 12.9653C9.58725 12.4407 9.72819 11.9474 9.97875 11.5246C11.396 13.2629 13.5101 14.406 15.8982 14.5235C15.8512 14.3121 15.8199 14.0928 15.8199 13.8658C15.822 13.105 16.1257 12.3761 16.6643 11.8389C17.203 11.3017 17.9327 11 18.6935 11C19.5235 11 20.2673 11.3445 20.7919 11.9083C21.4418 11.7752 22.0604 11.5403 22.6163 11.2114C22.3971 11.877 21.943 12.4407 21.3479 12.7931C21.9184 12.7307 22.4757 12.5801 23 12.3468Z" fill="#3D79EF"/>
</svg>
