<svg width="84" height="42" viewBox="0 0 84 42" fill="none" xmlns="http://www.w3.org/2000/svg">
<g id="Group 15995">
<path id="Vector" d="M22.942 34.2391C25.2224 34.2391 27.0711 32.3904 27.0711 30.11C27.0711 27.8296 25.2224 25.981 22.942 25.981C20.6616 25.981 18.813 27.8296 18.813 30.11C18.813 32.3904 20.6616 34.2391 22.942 34.2391Z" fill="#E4E4E4"/>
<path id="Vector_2" opacity="0.2" d="M19.8807 27.353C19.4956 28.254 19.4433 29.2625 19.7333 30.1984C20.0233 31.1343 20.6366 31.9366 21.4637 32.4619C22.2908 32.9872 23.2777 33.2014 24.2481 33.066C25.2185 32.9307 26.1092 32.4547 26.7609 31.7231C26.5257 32.2735 26.1735 32.7662 25.7289 33.1671C25.2843 33.5679 24.7579 33.8673 24.1861 34.0444C23.6144 34.2216 23.0109 34.2724 22.4175 34.1932C21.8242 34.114 21.2552 33.9067 20.7499 33.5858C20.2446 33.2648 19.8151 32.8379 19.4912 32.3345C19.1673 31.8311 18.9567 31.2633 18.874 30.6704C18.7914 30.0775 18.8386 29.4738 19.0124 28.901C19.1862 28.3281 19.4825 27.8 19.8807 27.353Z" fill="black"/>
<path id="Vector_3" d="M22.9431 30.1074H22.9544L23.1586 41.8139H22.7275L22.9431 30.1074Z" fill="#3F3D56"/>
<path id="Vector_4" d="M14.5871 26.5366C19.1848 26.5366 22.912 22.8094 22.912 18.2116C22.912 13.6139 19.1848 9.88672 14.5871 9.88672C9.9894 9.88672 6.26221 13.6139 6.26221 18.2116C6.26221 22.8094 9.9894 26.5366 14.5871 26.5366Z" fill="#E4E4E4"/>
<path id="Vector_5" d="M8.43075 12.6526C7.65423 14.469 7.54889 16.5024 8.13356 18.3893C8.71823 20.2763 9.9548 21.8939 11.6223 22.953C13.2898 24.0122 15.2796 24.4439 17.2362 24.171C19.1927 23.8981 20.9884 22.9384 22.3025 21.4634C21.8281 22.5732 21.1182 23.5666 20.2218 24.3747C19.3254 25.1829 18.264 25.7865 17.1112 26.1437C15.9584 26.5009 14.7417 26.6032 13.5454 26.4436C12.3491 26.2839 11.2019 25.866 10.1831 25.219C9.16433 24.5719 8.29842 23.711 7.64538 22.6961C6.99233 21.6811 6.56776 20.5363 6.40108 19.341C6.23439 18.1456 6.32958 16.9284 6.68004 15.7735C7.03051 14.6186 7.62788 13.5537 8.43075 12.6526Z" fill="#3D79EF"/>
<path id="Vector_6" d="M14.5961 18.2119H14.619L15.0307 41.8145H14.1616L14.5961 18.2119Z" fill="#3F3D56"/>
<path id="Vector_7" d="M69.4629 29.5967H31.3052V40.9083H69.4629V29.5967Z" fill="#F0F0F0"/>
<path id="Vector_8" d="M52.6094 31.9343H48.1602V40.9082H52.6094V31.9343Z" fill="#CACACA"/>
<path id="Vector_9" d="M67.2486 16.248H33.54V26.6547H67.2486V16.248Z" fill="#F0F0F0"/>
<path id="Vector_10" d="M70.6601 16.892H30.1167C30.049 16.892 29.9829 16.8717 29.9268 16.8338C29.8707 16.796 29.8272 16.7422 29.8019 16.6794C29.7766 16.6166 29.7707 16.5477 29.7849 16.4815C29.7991 16.4153 29.8327 16.3549 29.8815 16.308L40.9621 5.65727V1.01804C40.9622 0.928074 40.998 0.841819 41.0616 0.778201C41.1252 0.714583 41.2114 0.678798 41.3014 0.678696H43.4883C43.5783 0.678795 43.6646 0.714579 43.7282 0.778198C43.7918 0.841817 43.8276 0.928073 43.8277 1.01804V2.90287L44.6646 2.09839C46.0342 0.781937 47.8512 0.0326256 49.7506 0.00104055C51.65 -0.0305445 53.491 0.657937 54.9036 1.92813L70.887 16.3002C70.938 16.3462 70.974 16.4065 70.99 16.4732C71.0061 16.54 71.0015 16.61 70.9769 16.6741C70.9524 16.7382 70.9089 16.7933 70.8523 16.8322C70.7958 16.8711 70.7287 16.892 70.6601 16.892V16.892Z" fill="#CACACA"/>
<path id="Vector_11" d="M42.4295 18.8894C42.7117 18.8894 42.9912 18.945 43.2519 19.053C43.5127 19.161 43.7496 19.3193 43.9492 19.5189C44.1488 19.7185 44.3071 19.9554 44.4151 20.2161C44.5231 20.4769 44.5787 20.7564 44.5787 21.0386V23.9419H40.2803V21.0386C40.2803 20.7564 40.3359 20.4769 40.4439 20.2161C40.5519 19.9554 40.7102 19.7185 40.9098 19.5189C41.1093 19.3193 41.3463 19.161 41.607 19.053C41.8678 18.945 42.1472 18.8894 42.4295 18.8894Z" fill="white"/>
<path id="Vector_12" d="M50.3865 18.9282C50.9565 18.9282 51.5032 19.1547 51.9062 19.5577C52.3093 19.9608 52.5357 20.5074 52.5357 21.0774V23.9807H48.2373V21.0774C48.2373 20.5074 48.4637 19.9608 48.8668 19.5577C49.2698 19.1547 49.8165 18.9282 50.3865 18.9282Z" fill="white"/>
<path id="Vector_13" d="M58.3426 18.967C58.9126 18.967 59.4592 19.1935 59.8623 19.5965C60.2653 19.9996 60.4918 20.5462 60.4918 21.1162V24.0196H56.1934V21.1162C56.1934 20.5462 56.4198 19.9996 56.8228 19.5965C57.2259 19.1935 57.7726 18.967 58.3426 18.967Z" fill="white"/>
<path id="Vector_14" d="M61.5061 31.8247C62.0761 31.8247 62.6228 32.0511 63.0259 32.4542C63.4289 32.8572 63.6553 33.4039 63.6553 33.9739V36.8772H59.3569V33.9739C59.3569 33.4039 59.5834 32.8572 59.9864 32.4542C60.3895 32.0511 60.9361 31.8247 61.5061 31.8247Z" fill="white"/>
<path id="Vector_15" d="M40.2473 31.825C40.8174 31.825 41.364 32.0514 41.7671 32.4544C42.1701 32.8575 42.3966 33.4041 42.3966 33.9742V36.8775H38.0981V33.9742C38.0981 33.6919 38.1537 33.4124 38.2617 33.1517C38.3698 32.8909 38.5281 32.654 38.7276 32.4544C38.9272 32.2549 39.1641 32.0966 39.4249 31.9885C39.6856 31.8805 39.9651 31.825 40.2473 31.825Z" fill="white"/>
<path id="Vector_16" d="M75.04 29.7738L67.8821 26.6066C67.8436 26.5896 67.802 26.5808 67.76 26.5808H33.6463C33.6074 26.5808 33.5688 26.5883 33.5327 26.603L25.7413 29.7703C25.6765 29.7966 25.6228 29.8447 25.5895 29.9062C25.5563 29.9677 25.5454 30.0389 25.5588 30.1076C25.5722 30.1762 25.6091 30.2381 25.6631 30.2825C25.7171 30.327 25.7849 30.3513 25.8549 30.3513H27.8764V40.758H27.6501V41.8137H73.1227V40.758H72.7457V30.3513H74.918C74.9871 30.3513 75.0542 30.3276 75.1079 30.284C75.1617 30.2404 75.1988 30.1797 75.2131 30.1121C75.2274 30.0444 75.218 29.9739 75.1865 29.9123C75.155 29.8507 75.1033 29.8018 75.04 29.7738ZM72.1424 40.758H28.4797V30.3513H72.1424V40.758Z" fill="#CACACA"/>
<path id="Vector_17" d="M45.1153 23.5261H39.6104V24.4311H45.1153V23.5261Z" fill="#CACACA"/>
<path id="Vector_18" d="M53.1739 23.5261H47.6689V24.4311H53.1739V23.5261Z" fill="#CACACA"/>
<path id="Vector_19" d="M61.2457 23.5261H55.7407V24.4311H61.2457V23.5261Z" fill="#CACACA"/>
<path id="Vector_20" d="M64.2691 36.571H58.7642V37.476H64.2691V36.571Z" fill="#F1A5C2"/>
<path id="Vector_21" d="M42.919 36.571H37.4141V37.476H42.919V36.571Z" fill="#3D79EF"/>
<path id="Vector_22" d="M83.9076 41.8599H0.0924092C0.0679008 41.8599 0.0443961 41.8501 0.027066 41.8328C0.00973588 41.8155 0 41.792 0 41.7675C0 41.7429 0.00973588 41.7194 0.027066 41.7021C0.0443961 41.6848 0.0679008 41.675 0.0924092 41.675H83.9076C83.9321 41.675 83.9556 41.6848 83.9729 41.7021C83.9903 41.7194 84 41.7429 84 41.7675C84 41.792 83.9903 41.8155 83.9729 41.8328C83.9556 41.8501 83.9321 41.8599 83.9076 41.8599Z" fill="#3F3D56"/>
<path id="Vector_23" d="M62.8275 16.0944C62.8275 16.1535 62.8266 16.2136 62.8257 16.2727C62.8248 16.3439 62.8229 16.4141 62.8201 16.4853C62.8174 16.5472 62.8146 16.6082 62.8109 16.6691C62.7998 16.8734 62.7823 17.0767 62.7582 17.2809C62.7527 17.3326 62.7462 17.3835 62.7388 17.4352C62.7333 17.475 62.7277 17.5156 62.7213 17.5563C62.7148 17.6016 62.7083 17.6468 62.7009 17.6921C62.6861 17.7882 62.6695 17.8843 62.651 17.9804C62.6418 18.0285 62.6326 18.0765 62.6224 18.1246C62.603 18.2198 62.5817 18.3159 62.5596 18.4111C62.5577 18.4185 62.5559 18.4268 62.554 18.4342C62.5429 18.4813 62.5318 18.5275 62.5198 18.5746C62.5161 18.5885 62.5134 18.6014 62.5087 18.6153C62.5004 18.6504 62.4912 18.6855 62.4819 18.7206C62.469 18.7696 62.4561 18.8177 62.4422 18.8666C62.42 18.9424 62.3978 19.0173 62.3747 19.093C62.3719 19.1009 62.3694 19.1089 62.3673 19.1171C62.323 19.2603 62.2759 19.4017 62.2241 19.5422C62.1973 19.6161 62.1687 19.6909 62.14 19.7649C62.1114 19.8388 62.0818 19.9127 62.0513 19.9857C62.0217 20.0569 61.9912 20.128 61.9608 20.1983C61.9534 20.2149 61.946 20.2315 61.9377 20.2482C61.9053 20.3212 61.872 20.3923 61.8378 20.4635C61.8369 20.4644 61.8369 20.4662 61.836 20.4672C61.8092 20.5245 61.7805 20.5818 61.7519 20.6381C61.7519 20.6398 61.7512 20.6415 61.75 20.6427C61.7223 20.6982 61.6937 20.7536 61.6641 20.8082L61.617 20.8978L61.6114 20.908C61.5523 21.0179 61.4913 21.127 61.4266 21.2351C61.4128 21.2591 61.3989 21.2831 61.385 21.3062C61.3712 21.3303 61.3564 21.3543 61.3416 21.3774C61.3324 21.394 61.3222 21.4107 61.3111 21.4273C61.2917 21.4587 61.2723 21.4911 61.252 21.5225C61.2483 21.5289 61.2436 21.5354 61.24 21.5419C61.2048 21.5964 61.1697 21.65 61.1346 21.7045C61.0912 21.7701 61.0468 21.8348 61.0015 21.8995L59.998 23.5056L59.9545 23.4695L59.9425 23.4585H59.9416L59.9018 23.4252L59.7928 23.3328C59.7596 23.3651 59.7272 23.3975 59.6939 23.4289C59.681 23.4418 59.6671 23.4538 59.6542 23.4668C59.644 23.476 59.6348 23.4852 59.6246 23.4945C57.8896 25.1888 55.5817 26.1699 53.1578 26.2437H53.1551C51.3201 26.294 49.5037 25.8653 47.885 24.9998C47.8489 24.9813 47.8138 24.9629 47.7787 24.9416C47.568 24.827 47.3619 24.706 47.1595 24.5766C47.1586 24.5757 47.1577 24.5757 47.1568 24.5747C46.922 24.4084 46.6929 24.231 46.4692 24.0425C45.2695 23.0312 44.3204 21.7558 43.6962 20.3162C43.072 18.8766 42.7899 17.312 42.8718 15.745C42.8745 15.6831 42.8782 15.6221 42.8828 15.5602C42.8976 15.3366 42.9204 15.1139 42.9512 14.8921C42.9595 14.8302 42.9688 14.7683 42.978 14.7073H62.7333C62.7721 14.99 62.7989 15.2744 62.8137 15.5602C62.8229 15.7386 62.8275 15.916 62.8275 16.0944Z" fill="#F0F0F0"/>
<path id="Vector_24" d="M62.725 14.7118C62.3693 12.3466 61.1767 10.1876 59.3641 8.62715C57.5515 7.06672 55.2391 6.2085 52.8473 6.2085C50.4556 6.2085 48.1432 7.06672 46.3305 8.62715C44.5179 10.1876 43.3254 12.3466 42.9697 14.7118C42.9605 14.7728 42.9512 14.8347 42.9429 14.8966C42.9124 15.1184 42.8896 15.3411 42.8745 15.5647H62.8054C62.7906 15.2792 62.7638 14.9949 62.725 14.7118Z" fill="#3D79EF"/>
<path id="Vector_25" d="M53.5034 25.0028H47.7798V20.4242C47.8854 18.3318 49.6738 18.1629 51.3542 18.2751C51.6364 18.2751 51.9159 18.3307 52.1767 18.4387C52.4374 18.5467 52.6743 18.705 52.8739 18.9045C53.0735 19.1041 53.2318 19.341 53.3398 19.6018C53.4478 19.8625 53.5034 20.142 53.5034 20.4242V25.0028Z" fill="#3D79EF"/>
<path id="Vector_26" d="M47.7787 21.7488V21.7497C47.7787 21.7506 47.7796 21.7506 47.7805 21.7506L47.7787 21.7488ZM45.4768 14.7118C45.4731 14.7349 45.4685 14.758 45.4648 14.7811C45.4684 14.758 45.4731 14.7349 45.4777 14.7118H45.4768ZM45.3622 15.5648C45.3594 15.5999 45.3566 15.635 45.3548 15.6701C45.3566 15.635 45.3594 15.5999 45.3631 15.5648C45.363 15.5583 45.3633 15.5518 45.364 15.5454C45.3631 15.5518 45.3631 15.5583 45.3622 15.5648ZM47.7787 21.7497C47.7787 21.7506 47.7796 21.7506 47.7805 21.7506L47.7787 21.7488V21.7497ZM45.4768 14.7118C45.4731 14.7349 45.4685 14.758 45.4648 14.7811C45.4684 14.758 45.4731 14.7349 45.4777 14.7118H45.4768ZM45.3548 15.6701C45.3566 15.635 45.3594 15.5999 45.3631 15.5648C45.363 15.5583 45.3633 15.5518 45.364 15.5454C45.3631 15.5518 45.3631 15.5583 45.3622 15.5648C45.3594 15.5999 45.3566 15.635 45.3548 15.6701ZM73.9037 32.6697C73.8858 32.6507 73.8666 32.6328 73.8464 32.6161L73.8455 32.6152L69.2694 28.7534L69.1511 28.6536L68.7011 28.2738L68.5883 28.1786L67.947 27.6371L67.7715 27.4892L67.4083 27.1824L67.2225 27.0253L65.4705 25.5477L64.466 24.7003L64.3311 24.5867L61.3712 22.0889C61.4165 22.0242 61.4608 21.9595 61.5042 21.8939C61.5394 21.8393 61.5745 21.7857 61.6096 21.7312C61.6133 21.7248 61.6179 21.7183 61.6216 21.7118C61.6419 21.6804 61.6613 21.6481 61.6807 21.6166C61.6918 21.6 61.702 21.5834 61.7112 21.5667C61.726 21.5436 61.7408 21.5196 61.7547 21.4956C61.7685 21.4725 61.7824 21.4485 61.7962 21.4244C61.861 21.3163 61.9219 21.2073 61.9811 21.0973L61.9866 21.0871L62.0337 20.9975C62.0633 20.943 62.092 20.8875 62.1197 20.8321C62.1208 20.8308 62.1215 20.8292 62.1215 20.8275C62.1502 20.7711 62.1788 20.7138 62.2056 20.6565C62.2066 20.6556 62.2066 20.6537 62.2075 20.6528C62.2417 20.5817 62.2749 20.5105 62.3073 20.4375C62.3156 20.4209 62.323 20.4042 62.3304 20.3876C62.3609 20.3174 62.3914 20.2462 62.421 20.1751C62.4514 20.1021 62.481 20.0281 62.5097 19.9542C62.5383 19.8803 62.5669 19.8054 62.5938 19.7315C62.6446 19.5901 62.6923 19.4484 62.737 19.3064C62.739 19.2983 62.7415 19.2903 62.7444 19.2824C62.7675 19.2066 62.7896 19.1318 62.8118 19.056C62.8257 19.007 62.8386 18.959 62.8516 18.91C62.8608 18.8749 62.8701 18.8398 62.8784 18.8046C62.883 18.7908 62.8858 18.7778 62.8895 18.764C62.9015 18.7169 62.9126 18.6706 62.9237 18.6235C62.9255 18.6161 62.9274 18.6078 62.9292 18.6004C62.9514 18.5052 62.9726 18.4091 62.992 18.3139C63.0022 18.2659 63.0114 18.2178 63.0207 18.1698C63.0382 18.0737 63.0558 17.9776 63.0706 17.8815C63.078 17.8362 63.0844 17.7909 63.0909 17.7456C63.0974 17.705 63.1029 17.6643 63.1085 17.6246C63.1159 17.5728 63.1223 17.522 63.1279 17.4703C63.1519 17.266 63.1695 17.0627 63.1806 16.8585C63.1842 16.7975 63.187 16.7365 63.1898 16.6746C63.1926 16.6035 63.1944 16.5332 63.1953 16.4621C63.1963 16.4029 63.1972 16.3429 63.1972 16.2837C63.1972 16.1054 63.1926 15.9279 63.1833 15.7496C63.1685 15.464 63.1417 15.1797 63.1029 14.8966C62.7718 12.4769 61.581 10.2571 59.7481 8.64298C57.9151 7.02889 55.5626 6.12833 53.1204 6.1059C50.6781 6.08347 48.3094 6.94068 46.4472 8.52083C44.5849 10.101 43.3535 12.2986 42.978 14.7118C42.9688 14.7728 42.9595 14.8347 42.9512 14.8966C42.9207 15.1184 42.8979 15.3411 42.8828 15.5648C42.8782 15.6267 42.8745 15.6877 42.8718 15.7496C42.7899 17.3165 43.072 18.8811 43.6962 20.3207C44.3204 21.7603 45.2695 23.0357 46.4693 24.047C46.6929 24.2355 46.922 24.413 47.1568 24.5793C47.1577 24.5802 47.1586 24.5802 47.1595 24.5811C47.2381 24.6366 47.3166 24.6911 47.3961 24.7447C47.5227 24.8279 47.6502 24.9092 47.7787 24.9868C47.7889 24.9923 47.799 24.9988 47.8092 25.0044C47.9201 25.0709 48.0319 25.1347 48.1437 25.1966H48.1446C48.5609 25.4254 48.9929 25.6243 49.4374 25.7917C50.7418 26.2824 52.1328 26.5007 53.5247 26.433H53.5275C55.152 26.3544 56.7339 25.8863 58.1396 25.0681C58.3439 24.9498 58.5453 24.8232 58.7421 24.6883C58.7911 24.6551 58.841 24.6209 58.889 24.5867C58.9482 24.5451 59.0073 24.5017 59.0665 24.4582C59.0674 24.4582 59.0674 24.4573 59.0683 24.4573C59.0727 24.4536 59.0774 24.4502 59.0822 24.4471C59.1219 24.4166 59.1626 24.3861 59.2014 24.3566C59.2116 24.3492 59.2217 24.3418 59.2319 24.3335C59.2346 24.3316 59.2371 24.3294 59.2393 24.327C59.2624 24.3104 59.2846 24.2919 59.3077 24.2743C59.3308 24.2568 59.3529 24.2383 59.376 24.2198C59.38 24.2173 59.3837 24.2146 59.3871 24.2115C59.413 24.1902 59.4389 24.1699 59.4648 24.1487C59.4916 24.1274 59.5174 24.1052 59.5424 24.084C59.5683 24.0627 59.5932 24.0415 59.6191 24.0193C59.6413 24.0008 59.6644 23.9814 59.6866 23.9611C59.6939 23.9555 59.7004 23.949 59.7078 23.9426C59.7107 23.9398 59.7137 23.9374 59.717 23.9352C59.7475 23.9093 59.7771 23.8825 59.8067 23.8557C59.8141 23.8492 59.8205 23.8428 59.8279 23.8363C59.8732 23.7956 59.9185 23.755 59.9629 23.7125C59.973 23.7032 59.9841 23.6931 59.9943 23.6838C60.0044 23.6746 60.0137 23.6653 60.0238 23.6561C60.0368 23.6432 60.0506 23.6312 60.0636 23.6182C60.0969 23.5868 60.1292 23.5545 60.1625 23.5221L60.2715 23.6145L60.3112 23.6478H60.3122L60.3242 23.6589L60.3676 23.6949L61.0126 24.2401L61.0265 24.2521L61.0376 24.2605L61.1106 24.3224L61.2566 24.4462L61.4026 24.5691L61.4239 24.5867L62.1031 25.1596L62.1973 25.2391L62.8525 25.7917L66.2439 28.6536L66.3622 28.7534L71.0039 32.6697L72.1942 33.6742L72.6368 34.0475C72.7307 34.127 72.8394 34.1872 72.9567 34.2247C73.0739 34.2622 73.1974 34.2761 73.32 34.2658C73.4427 34.2555 73.5621 34.2212 73.6715 34.1647C73.7808 34.1082 73.8779 34.0307 73.9573 33.9366C74.0238 33.8586 74.0766 33.7699 74.1135 33.6742C74.1806 33.5046 74.1965 33.319 74.1592 33.1405C74.1219 32.962 74.0331 32.7983 73.9037 32.6697ZM47.1355 11.2483C48.0626 10.1497 49.2816 9.33579 50.6516 8.90058C52.0216 8.46537 53.4868 8.42663 54.878 8.78883C56.2691 9.15103 57.5294 9.8994 58.5132 10.9475C59.497 11.9956 60.1643 13.3006 60.4379 14.7118C60.4499 14.7737 60.461 14.8347 60.4711 14.8966C60.509 15.1175 60.5367 15.3411 60.5534 15.5648C60.558 15.6267 60.5626 15.6877 60.5654 15.7496C60.5737 15.8882 60.5774 16.0277 60.5774 16.1663C60.5779 17.0072 60.4386 17.8422 60.1652 18.6374V18.6383C59.8597 19.5298 59.3906 20.3566 58.7819 21.0761C58.7689 21.0908 58.756 21.1066 58.7421 21.1213C58.6201 21.2655 58.4917 21.4041 58.3595 21.5363C58.3586 21.5372 58.3577 21.539 58.3568 21.54C58.3115 21.5852 58.2653 21.6314 58.2191 21.6739C58.1248 21.7654 58.0287 21.8523 57.9308 21.9355C57.7838 22.0639 57.6332 22.1844 57.4789 22.2968C57.4271 22.3347 57.3754 22.3716 57.3227 22.4086C57.271 22.4456 57.2183 22.4807 57.1656 22.5158C57.0603 22.586 56.9531 22.6535 56.845 22.7172C56.7914 22.7496 56.7359 22.781 56.6814 22.8115C56.6269 22.8429 56.5714 22.8725 56.516 22.9011C56.4606 22.9307 56.4051 22.9593 56.3487 22.9871C56.2369 23.0434 56.1242 23.0961 56.0096 23.1451C55.9523 23.171 55.895 23.195 55.8377 23.2172C55.8017 23.232 55.7665 23.2468 55.7305 23.2597C55.7164 23.2662 55.7019 23.2718 55.6871 23.2763C55.6677 23.2846 55.6483 23.292 55.6289 23.2985C55.6226 23.3014 55.6161 23.3038 55.6095 23.3059C55.5697 23.3216 55.5309 23.3355 55.4902 23.3493C55.432 23.3706 55.3738 23.39 55.3147 23.4085C55.2555 23.4279 55.1973 23.4463 55.1382 23.463C55.079 23.4815 55.019 23.4981 54.9598 23.5138C54.8997 23.5304 54.8406 23.5462 54.7805 23.56C54.7168 23.5767 54.653 23.5914 54.5883 23.6053C54.532 23.6182 54.4765 23.6293 54.4201 23.6395C54.3675 23.6506 54.3139 23.6598 54.2612 23.6691C54.1873 23.682 54.1133 23.694 54.0385 23.7042C53.9978 23.7107 53.9581 23.7162 53.9174 23.7199C53.8999 23.7227 53.8832 23.7245 53.8666 23.7264C53.8149 23.7338 53.7631 23.7393 53.7123 23.7439C53.6984 23.7448 53.6855 23.7467 53.6725 23.7476C53.6162 23.7532 53.5589 23.7578 53.5025 23.7624C53.3815 23.7707 53.2613 23.7763 53.1403 23.779C53.0793 23.78 53.0174 23.7809 52.9564 23.7809C52.8954 23.7809 52.8344 23.78 52.7734 23.7781C52.7734 23.7781 52.7734 23.779 52.7725 23.7781C52.7716 23.779 52.7716 23.779 52.7706 23.7781C52.7705 23.7782 52.7704 23.7783 52.7702 23.7784C52.7701 23.7785 52.7699 23.7785 52.7697 23.7785C52.7695 23.7785 52.7694 23.7785 52.7692 23.7784C52.769 23.7783 52.7689 23.7782 52.7688 23.7781C52.7658 23.779 52.7626 23.779 52.7596 23.7781C52.7161 23.7781 52.6727 23.7763 52.6302 23.7735C52.5988 23.7726 52.5664 23.7716 52.5341 23.7689C52.4907 23.767 52.4472 23.7642 52.4038 23.7605C52.3899 23.7605 52.3761 23.7587 52.3622 23.7578C52.3557 23.7576 52.3492 23.757 52.3428 23.7559C52.2984 23.7522 52.2532 23.7485 52.2088 23.7439C52.1866 23.7421 52.1635 23.7402 52.1413 23.7374C52.0739 23.7301 52.0064 23.7217 51.9399 23.7125C51.8641 23.7033 51.7883 23.6922 51.7135 23.6783C51.6784 23.6737 51.6442 23.6672 51.61 23.6607C51.5647 23.6533 51.5194 23.645 51.4741 23.6358C51.427 23.6266 51.3799 23.6173 51.3327 23.6062C51.2949 23.5979 51.256 23.5896 51.2182 23.5804C51.1997 23.5767 51.1812 23.572 51.1636 23.5674C51.0666 23.5443 50.9705 23.5194 50.8753 23.4916C50.8153 23.475 50.7552 23.4575 50.696 23.439C50.6147 23.414 50.5343 23.3872 50.4539 23.3586C50.4225 23.3484 50.392 23.3373 50.3606 23.3253C50.3292 23.3151 50.2987 23.3031 50.2673 23.2911C50.2386 23.2809 50.21 23.2699 50.1822 23.2588C50.136 23.2412 50.0908 23.2227 50.0455 23.2043C49.9521 23.1664 49.8607 23.1266 49.7692 23.0841C49.7174 23.0592 49.6657 23.0351 49.6149 23.0102C49.4143 22.9132 49.2169 22.8053 49.0225 22.6868C48.9744 22.6581 48.9264 22.6276 48.8784 22.5971C48.8183 22.5602 48.7601 22.5213 48.7019 22.4825C48.6695 22.4604 48.6381 22.4391 48.6067 22.4169C48.5484 22.3763 48.4911 22.3347 48.4348 22.2931C48.4052 22.2718 48.3756 22.2497 48.347 22.2275C48.2444 22.1498 48.1437 22.0685 48.0448 21.9854C47.9977 21.9456 47.9506 21.905 47.9044 21.8634C47.8849 21.8468 47.8655 21.8292 47.8461 21.8116C47.824 21.7913 47.8018 21.7719 47.7805 21.7506L47.7787 21.7488C47.7463 21.7202 47.714 21.6897 47.6826 21.6592C47.6336 21.613 47.5855 21.5658 47.5393 21.5178C47.4913 21.4707 47.4451 21.4217 47.3998 21.3736C47.3536 21.3256 47.3092 21.2766 47.2658 21.2267C47.2215 21.1777 47.178 21.1278 47.1355 21.077C47.0939 21.0289 47.0533 20.979 47.0144 20.9301C46.9202 20.8136 46.8302 20.695 46.7446 20.5743C46.7049 20.5188 46.667 20.4634 46.63 20.407C46.5903 20.3497 46.5524 20.2915 46.5164 20.2333C46.4785 20.1751 46.4424 20.1159 46.4073 20.0559C46.4064 20.0538 46.4052 20.0519 46.4036 20.0503C46.3343 19.933 46.2678 19.8147 46.2059 19.6945C46.1421 19.5726 46.082 19.4494 46.0257 19.3249C45.997 19.263 45.9693 19.2002 45.9434 19.1373C45.8898 19.0107 45.8399 18.8841 45.7937 18.7557C45.7706 18.6938 45.7494 18.6318 45.7281 18.569C45.7274 18.5648 45.7262 18.5608 45.7244 18.557C45.6819 18.4295 45.6431 18.301 45.6089 18.1716C45.608 18.1698 45.608 18.168 45.607 18.1661C45.5895 18.1023 45.5729 18.0386 45.5581 17.9739C45.5433 17.9175 45.5304 17.8611 45.5183 17.8039C45.5045 17.7401 45.4906 17.6763 45.4786 17.6116C45.4721 17.5784 45.4657 17.5451 45.4601 17.5118C45.4546 17.4841 45.45 17.4555 45.4453 17.4278C45.4407 17.4 45.4361 17.3714 45.4315 17.3427C45.4222 17.2864 45.4139 17.23 45.4065 17.1736C45.3973 17.1071 45.3899 17.0406 45.3825 16.9731C45.3742 16.8927 45.3668 16.8123 45.3603 16.731C45.3557 16.6765 45.3529 16.621 45.3502 16.5656C45.3474 16.5147 45.3446 16.4639 45.3437 16.4131C45.3428 16.4104 45.3428 16.4075 45.3437 16.4048C45.3436 16.4047 45.3435 16.4045 45.3434 16.4044C45.3433 16.4042 45.3433 16.404 45.3433 16.4039C45.3433 16.4037 45.3433 16.4035 45.3434 16.4034C45.3435 16.4032 45.3436 16.4031 45.3437 16.4029C45.3428 16.402 45.3428 16.402 45.3437 16.4011C45.3436 16.401 45.3435 16.4008 45.3434 16.4007C45.3433 16.4005 45.3433 16.4003 45.3433 16.4002C45.3433 16.4 45.3433 16.3998 45.3434 16.3997C45.3435 16.3995 45.3436 16.3994 45.3437 16.3992C45.3428 16.3789 45.3418 16.3586 45.3418 16.3383C45.34 16.2782 45.3391 16.2181 45.3391 16.1581C45.3391 16.1035 45.34 16.0499 45.3409 15.9954C45.3428 15.9196 45.3455 15.8439 45.3492 15.7681C45.3492 15.7514 45.3511 15.7357 45.352 15.7191C45.3529 15.7025 45.3538 15.6868 45.3548 15.6701C45.3566 15.635 45.3594 15.5999 45.3631 15.5648C45.3629 15.5583 45.3633 15.5518 45.364 15.5454C45.3668 15.5056 45.3705 15.4659 45.3742 15.4262C45.3816 15.3467 45.3908 15.2663 45.401 15.1868C45.4065 15.1471 45.4111 15.1074 45.4176 15.0676C45.4213 15.0399 45.4259 15.0112 45.4305 14.9826C45.4342 14.954 45.4389 14.9253 45.4444 14.8967C45.4509 14.8588 45.4574 14.82 45.4647 14.7811C45.4684 14.758 45.4731 14.7349 45.4777 14.7118C45.4952 14.6194 45.5146 14.527 45.5359 14.4346C45.5571 14.3413 45.5812 14.2489 45.607 14.1565C45.632 14.0631 45.6597 13.9698 45.6893 13.8765C45.7032 13.8293 45.7179 13.7831 45.7346 13.7369C45.7651 13.6436 45.7974 13.5512 45.8335 13.4597C45.8501 13.4144 45.8676 13.3682 45.887 13.3229C45.924 13.2314 45.9628 13.14 46.0026 13.0503C46.0229 13.005 46.0432 12.9598 46.0654 12.9145C46.107 12.8248 46.1504 12.7352 46.1976 12.6474C46.2428 12.5578 46.2918 12.47 46.3417 12.3831C46.3916 12.2963 46.4434 12.2094 46.4979 12.1235C46.5228 12.081 46.5505 12.0375 46.5792 11.9959C46.6346 11.9109 46.6929 11.8259 46.752 11.7427C46.8712 11.5745 46.9997 11.4091 47.1355 11.2483ZM45.3622 15.5648C45.3594 15.5999 45.3566 15.635 45.3548 15.6701C45.3566 15.635 45.3594 15.5999 45.3631 15.5648C45.363 15.5583 45.3633 15.5518 45.364 15.5454C45.3631 15.5518 45.3631 15.5583 45.3622 15.5648ZM45.4768 14.7118C45.4731 14.7349 45.4685 14.758 45.4648 14.7811C45.4685 14.758 45.4731 14.7349 45.4777 14.7118H45.4768ZM47.7787 21.7488V21.7497C47.7787 21.7506 47.7796 21.7506 47.7805 21.7506L47.7787 21.7488Z" fill="#3F3D56"/>
<path id="Vector_27" opacity="0.3" d="M48.0466 21.979C46.5849 20.7455 45.6406 19.0075 45.4011 17.11C45.1616 15.2125 45.6444 13.2943 46.7537 11.7363C46.608 11.883 46.4672 12.0367 46.3312 12.1973C45.6859 12.962 45.1976 13.8463 44.8941 14.7997C44.5906 15.7531 44.4779 16.757 44.5624 17.754C44.6468 18.751 44.9268 19.7216 45.3864 20.6104C45.846 21.4992 46.4761 22.2887 47.2408 22.934C48.7852 24.2371 50.784 24.8734 52.7975 24.7028C54.811 24.5322 56.6743 23.5688 57.9775 22.0244C58.1132 21.8636 58.2409 21.6989 58.3608 21.5303C57.0116 22.8859 55.202 23.6846 53.2913 23.7677C51.3805 23.8508 49.5084 23.2123 48.0466 21.979Z" fill="black"/>
</g>
</svg>
