<svg width="167" height="58" viewBox="0 0 167 58" fill="none" xmlns="http://www.w3.org/2000/svg">
<rect x="0.3" y="0.3" width="166.4" height="57.4" rx="7.7" fill="#262C55" stroke="#262C55" stroke-width="0.6"/>
<path d="M57.8523 16C57.7741 15.7609 57.6712 15.5466 57.5433 15.3572C57.4179 15.1655 57.2675 15.0021 57.0923 14.8672C56.9195 14.7322 56.723 14.6293 56.5028 14.5582C56.2827 14.4872 56.0412 14.4517 55.7784 14.4517C55.3475 14.4517 54.9557 14.563 54.603 14.7855C54.2502 15.008 53.9697 15.3359 53.7614 15.7692C53.553 16.2024 53.4489 16.7339 53.4489 17.3636C53.4489 17.9934 53.5542 18.5249 53.7649 18.9581C53.9756 19.3913 54.2609 19.7192 54.6207 19.9418C54.9806 20.1643 55.3854 20.2756 55.8352 20.2756C56.2519 20.2756 56.6188 20.1868 56.9361 20.0092C57.2557 19.8293 57.5043 19.576 57.6818 19.2493C57.8617 18.9202 57.9517 18.5331 57.9517 18.0881L58.2216 18.1449H56.0341V17.3636H58.804V18.1449C58.804 18.7438 58.6761 19.2647 58.4205 19.7074C58.1671 20.1501 57.8168 20.4934 57.3693 20.7372C56.9242 20.9787 56.4129 21.0994 55.8352 21.0994C55.1913 21.0994 54.6255 20.9479 54.1378 20.6449C53.6525 20.3419 53.2737 19.911 53.0014 19.3523C52.7315 18.7936 52.5966 18.1307 52.5966 17.3636C52.5966 16.7884 52.6735 16.2711 52.8274 15.8118C52.9837 15.3501 53.2038 14.9571 53.4879 14.6328C53.772 14.3085 54.1082 14.0599 54.4964 13.8871C54.8847 13.7143 55.312 13.6278 55.7784 13.6278C56.1619 13.6278 56.5194 13.6858 56.8509 13.8018C57.1847 13.9155 57.4818 14.0777 57.7422 14.2884C58.005 14.4967 58.224 14.7464 58.3991 15.0376C58.5743 15.3265 58.6951 15.6473 58.7614 16H57.8523ZM62.4856 21.1136C61.96 21.1136 61.5067 20.9976 61.1255 20.7656C60.7467 20.5312 60.4544 20.2045 60.2484 19.7855C60.0448 19.3641 59.943 18.8741 59.943 18.3153C59.943 17.7566 60.0448 17.2642 60.2484 16.8381C60.4544 16.4096 60.7408 16.0758 61.1078 15.8366C61.4771 15.5952 61.908 15.4744 62.4004 15.4744C62.6845 15.4744 62.965 15.5218 63.242 15.6165C63.519 15.7112 63.7711 15.8651 63.9984 16.0781C64.2257 16.2888 64.4068 16.5682 64.5417 16.9162C64.6767 17.2642 64.7441 17.6927 64.7441 18.2017V18.5568H60.5396V17.8324H63.8919C63.8919 17.5246 63.8303 17.25 63.7072 17.0085C63.5865 16.767 63.4136 16.5765 63.1887 16.4368C62.9662 16.2971 62.7034 16.2273 62.4004 16.2273C62.0666 16.2273 61.7778 16.3101 61.5339 16.4759C61.2924 16.6392 61.1066 16.8523 60.9764 17.1151C60.8462 17.3778 60.7811 17.6596 60.7811 17.9602V18.4432C60.7811 18.8551 60.8521 19.2043 60.9941 19.4908C61.1386 19.7749 61.3386 19.9915 61.5943 20.1406C61.85 20.2874 62.1471 20.3608 62.4856 20.3608C62.7058 20.3608 62.9047 20.33 63.0822 20.2685C63.2621 20.2045 63.4172 20.1098 63.5474 19.9844C63.6776 19.8565 63.7782 19.6979 63.8493 19.5085L64.6589 19.7358C64.5737 20.0104 64.4305 20.2519 64.2292 20.4602C64.028 20.6662 63.7794 20.8272 63.4835 20.9432C63.1876 21.0568 62.8549 21.1136 62.4856 21.1136ZM68.3912 15.5455V16.2557H65.5645V15.5455H68.3912ZM66.3883 14.2386H67.2264V19.4375C67.2264 19.6742 67.2607 19.8518 67.3294 19.9702C67.4004 20.0862 67.4904 20.1643 67.5993 20.2045C67.7105 20.2424 67.8277 20.2614 67.9508 20.2614C68.0431 20.2614 68.1189 20.2566 68.1781 20.2472C68.2373 20.2353 68.2846 20.2259 68.3201 20.2188L68.4906 20.9716C68.4338 20.9929 68.3545 21.0142 68.2527 21.0355C68.1509 21.0592 68.0218 21.071 67.8656 21.071C67.6288 21.071 67.3968 21.0201 67.1696 20.9183C66.9447 20.8165 66.7576 20.6615 66.6085 20.4531C66.4617 20.2448 66.3883 19.982 66.3883 19.6648V14.2386ZM74.6802 21.1136C74.1878 21.1136 73.7557 20.9964 73.3841 20.7621C73.0147 20.5277 72.7259 20.1998 72.5176 19.7784C72.3116 19.357 72.2086 18.8646 72.2086 18.3011C72.2086 17.733 72.3116 17.237 72.5176 16.8132C72.7259 16.3894 73.0147 16.0604 73.3841 15.826C73.7557 15.5916 74.1878 15.4744 74.6802 15.4744C75.1726 15.4744 75.6035 15.5916 75.9728 15.826C76.3445 16.0604 76.6333 16.3894 76.8393 16.8132C77.0476 17.237 77.1518 17.733 77.1518 18.3011C77.1518 18.8646 77.0476 19.357 76.8393 19.7784C76.6333 20.1998 76.3445 20.5277 75.9728 20.7621C75.6035 20.9964 75.1726 21.1136 74.6802 21.1136ZM74.6802 20.3608C75.0543 20.3608 75.362 20.2649 75.6035 20.0732C75.845 19.8814 76.0237 19.6293 76.1397 19.3168C76.2557 19.0043 76.3137 18.6657 76.3137 18.3011C76.3137 17.9366 76.2557 17.5968 76.1397 17.282C76.0237 16.9671 75.845 16.7126 75.6035 16.5185C75.362 16.3243 75.0543 16.2273 74.6802 16.2273C74.3062 16.2273 73.9984 16.3243 73.7569 16.5185C73.5154 16.7126 73.3367 16.9671 73.2207 17.282C73.1047 17.5968 73.0467 17.9366 73.0467 18.3011C73.0467 18.6657 73.1047 19.0043 73.2207 19.3168C73.3367 19.6293 73.5154 19.8814 73.7569 20.0732C73.9984 20.2649 74.3062 20.3608 74.6802 20.3608ZM79.2692 17.7188V21H78.4311V15.5455H79.2408V16.3977H79.3118C79.4396 16.1207 79.6338 15.8982 79.8942 15.7301C80.1546 15.5597 80.4908 15.4744 80.9027 15.4744C81.272 15.4744 81.5952 15.5502 81.8722 15.7017C82.1491 15.8509 82.3646 16.0781 82.5185 16.3835C82.6723 16.6866 82.7493 17.0701 82.7493 17.5341V21H81.9112V17.5909C81.9112 17.1624 81.8 16.8286 81.5774 16.5895C81.3549 16.348 81.0495 16.2273 80.6612 16.2273C80.3937 16.2273 80.1546 16.2853 79.9439 16.4013C79.7356 16.5173 79.571 16.6866 79.4503 16.9091C79.3295 17.1316 79.2692 17.4015 79.2692 17.7188Z" fill="white"/>
<path d="M32.4949 16.3686C33.6523 15.2107 34.4351 13.6031 34.2208 12C32.5534 12.0556 30.5326 12.9147 29.3358 14.0725C28.2629 15.0975 27.3236 16.7356 27.5743 18.3072C29.4349 18.4249 31.3356 17.5246 32.4949 16.3686ZM36.0458 27.4393C36.0103 23.8454 39.0906 22.1193 39.227 22.0359C37.4952 19.5954 34.7982 19.2614 33.8377 19.2238C31.5412 18.9985 29.36 20.5235 28.194 20.5235C27.0329 20.5235 25.2368 19.2534 23.3321 19.2875C20.8282 19.326 18.521 20.6886 17.2351 22.8481C14.634 27.1925 16.5684 33.6282 19.103 37.1521C20.342 38.8772 21.8173 40.8124 23.7545 40.7424C25.6246 40.6724 26.3296 39.5801 28.5858 39.5801C30.8429 39.5801 31.4749 40.7424 33.4496 40.7074C35.4589 40.6724 36.7305 38.9491 37.959 37.2185C39.3805 35.2178 39.9664 33.2808 40 33.183C39.9569 33.1596 36.0871 31.737 36.0458 27.4393Z" fill="white"/>
<path d="M54.642 41H52.392L56.4886 29.3636H59.0909L63.1932 41H60.9432L57.8352 31.75H57.7443L54.642 41ZM54.7159 36.4375H60.8523V38.1307H54.7159V36.4375ZM64.6349 44.2727V32.2727H66.6577V33.7159H66.777C66.883 33.5038 67.0327 33.2784 67.2259 33.0398C67.419 32.7973 67.6804 32.5909 68.0099 32.4205C68.3395 32.2462 68.7599 32.1591 69.2713 32.1591C69.9455 32.1591 70.5535 32.3314 71.0952 32.6761C71.6406 33.017 72.0724 33.5227 72.3906 34.1932C72.7126 34.8598 72.8736 35.678 72.8736 36.6477C72.8736 37.6061 72.7164 38.4205 72.402 39.0909C72.0876 39.7614 71.6596 40.2727 71.1179 40.625C70.5762 40.9773 69.9626 41.1534 69.277 41.1534C68.777 41.1534 68.3622 41.0701 68.0327 40.9034C67.7031 40.7367 67.438 40.536 67.2372 40.3011C67.0402 40.0625 66.8868 39.8371 66.777 39.625H66.6918V44.2727H64.6349ZM66.652 36.6364C66.652 37.2008 66.7315 37.6951 66.8906 38.1193C67.0535 38.5436 67.2865 38.875 67.5895 39.1136C67.8963 39.3485 68.2675 39.4659 68.7031 39.4659C69.1577 39.4659 69.5384 39.3447 69.8452 39.1023C70.152 38.8561 70.383 38.5208 70.5384 38.0966C70.6974 37.6686 70.777 37.1818 70.777 36.6364C70.777 36.0947 70.6993 35.6136 70.544 35.1932C70.3887 34.7727 70.1577 34.4432 69.8509 34.2045C69.544 33.9659 69.1615 33.8466 68.7031 33.8466C68.2637 33.8466 67.8906 33.9621 67.5838 34.1932C67.277 34.4242 67.044 34.7481 66.8849 35.1648C66.7296 35.5814 66.652 36.072 66.652 36.6364ZM74.6349 44.2727V32.2727H76.6577V33.7159H76.777C76.883 33.5038 77.0327 33.2784 77.2259 33.0398C77.419 32.7973 77.6804 32.5909 78.0099 32.4205C78.3395 32.2462 78.7599 32.1591 79.2713 32.1591C79.9455 32.1591 80.5535 32.3314 81.0952 32.6761C81.6406 33.017 82.0724 33.5227 82.3906 34.1932C82.7126 34.8598 82.8736 35.678 82.8736 36.6477C82.8736 37.6061 82.7164 38.4205 82.402 39.0909C82.0876 39.7614 81.6596 40.2727 81.1179 40.625C80.5762 40.9773 79.9626 41.1534 79.277 41.1534C78.777 41.1534 78.3622 41.0701 78.0327 40.9034C77.7031 40.7367 77.438 40.536 77.2372 40.3011C77.0402 40.0625 76.8868 39.8371 76.777 39.625H76.6918V44.2727H74.6349ZM76.652 36.6364C76.652 37.2008 76.7315 37.6951 76.8906 38.1193C77.0535 38.5436 77.2865 38.875 77.5895 39.1136C77.8963 39.3485 78.2675 39.4659 78.7031 39.4659C79.1577 39.4659 79.5384 39.3447 79.8452 39.1023C80.152 38.8561 80.383 38.5208 80.5384 38.0966C80.6974 37.6686 80.777 37.1818 80.777 36.6364C80.777 36.0947 80.6993 35.6136 80.544 35.1932C80.3887 34.7727 80.1577 34.4432 79.8509 34.2045C79.544 33.9659 79.1615 33.8466 78.7031 33.8466C78.2637 33.8466 77.8906 33.9621 77.5838 34.1932C77.277 34.4242 77.044 34.7481 76.8849 35.1648C76.7296 35.5814 76.652 36.072 76.652 36.6364ZM91.0497 32.5625C90.9967 32.0663 90.7732 31.6799 90.3793 31.4034C89.9891 31.1269 89.4815 30.9886 88.8565 30.9886C88.4171 30.9886 88.0402 31.0549 87.7259 31.1875C87.4115 31.3201 87.1709 31.5 87.0043 31.7273C86.8376 31.9545 86.7524 32.214 86.7486 32.5057C86.7486 32.7481 86.8035 32.9583 86.9134 33.1364C87.027 33.3144 87.1804 33.4659 87.3736 33.5909C87.5668 33.7121 87.7808 33.8144 88.0156 33.8977C88.2505 33.9811 88.4872 34.0511 88.7259 34.108L89.8168 34.3807C90.2562 34.483 90.6785 34.6212 91.0838 34.7955C91.4929 34.9697 91.8584 35.1894 92.1804 35.4545C92.5062 35.7197 92.7637 36.0398 92.9531 36.4148C93.1425 36.7898 93.2372 37.2292 93.2372 37.733C93.2372 38.4148 93.063 39.0152 92.7145 39.5341C92.366 40.0492 91.8622 40.4527 91.2031 40.7443C90.5478 41.0322 89.7543 41.1761 88.8224 41.1761C87.9171 41.1761 87.1312 41.036 86.4645 40.7557C85.8016 40.4754 85.2827 40.0663 84.9077 39.5284C84.5365 38.9905 84.3357 38.3352 84.3054 37.5625H86.3793C86.4096 37.9678 86.5346 38.3049 86.7543 38.5739C86.974 38.8428 87.2599 39.0436 87.6122 39.1761C87.9683 39.3087 88.366 39.375 88.8054 39.375C89.2637 39.375 89.6652 39.3068 90.0099 39.1705C90.3584 39.0303 90.6312 38.8371 90.8281 38.5909C91.0251 38.3409 91.1255 38.0492 91.1293 37.7159C91.1255 37.4129 91.0365 37.1629 90.8622 36.9659C90.688 36.7652 90.4437 36.5985 90.1293 36.4659C89.8187 36.3295 89.455 36.2083 89.0384 36.1023L87.7145 35.7614C86.7562 35.5152 85.9986 35.142 85.4418 34.642C84.8887 34.1383 84.6122 33.4697 84.6122 32.6364C84.6122 31.9508 84.7978 31.3504 85.169 30.8352C85.544 30.3201 86.0535 29.9205 86.6974 29.6364C87.3414 29.3485 88.0705 29.2045 88.8849 29.2045C89.7107 29.2045 90.4342 29.3485 91.0554 29.6364C91.6804 29.9205 92.1709 30.3163 92.527 30.8239C92.883 31.3277 93.0668 31.9072 93.0781 32.5625H91.0497ZM99.3835 32.2727V33.8636H94.3665V32.2727H99.3835ZM95.6051 30.1818H97.6619V38.375C97.6619 38.6515 97.7036 38.8636 97.7869 39.0114C97.8741 39.1553 97.9877 39.2538 98.1278 39.3068C98.268 39.3598 98.4233 39.3864 98.5938 39.3864C98.7225 39.3864 98.84 39.3769 98.946 39.358C99.0559 39.339 99.1392 39.322 99.196 39.3068L99.5426 40.9148C99.4328 40.9527 99.2756 40.9943 99.071 41.0398C98.8703 41.0852 98.6241 41.1117 98.3324 41.1193C97.8172 41.1345 97.3532 41.0568 96.9403 40.8864C96.5275 40.7121 96.1998 40.4432 95.9574 40.0795C95.7188 39.7159 95.6013 39.2614 95.6051 38.7159V30.1818ZM104.817 41.1705C103.964 41.1705 103.226 40.983 102.601 40.608C101.976 40.233 101.491 39.7083 101.146 39.0341C100.805 38.3598 100.635 37.572 100.635 36.6705C100.635 35.7689 100.805 34.9792 101.146 34.3011C101.491 33.6231 101.976 33.0966 102.601 32.7216C103.226 32.3466 103.964 32.1591 104.817 32.1591C105.669 32.1591 106.408 32.3466 107.033 32.7216C107.658 33.0966 108.141 33.6231 108.482 34.3011C108.826 34.9792 108.999 35.7689 108.999 36.6705C108.999 37.572 108.826 38.3598 108.482 39.0341C108.141 39.7083 107.658 40.233 107.033 40.608C106.408 40.983 105.669 41.1705 104.817 41.1705ZM104.828 39.5227C105.29 39.5227 105.677 39.3958 105.987 39.142C106.298 38.8845 106.529 38.5398 106.68 38.108C106.836 37.6761 106.913 37.1951 106.913 36.6648C106.913 36.1307 106.836 35.6477 106.68 35.2159C106.529 34.7803 106.298 34.4337 105.987 34.1761C105.677 33.9186 105.29 33.7898 104.828 33.7898C104.355 33.7898 103.961 33.9186 103.646 34.1761C103.336 34.4337 103.103 34.7803 102.947 35.2159C102.796 35.6477 102.72 36.1307 102.72 36.6648C102.72 37.1951 102.796 37.6761 102.947 38.108C103.103 38.5398 103.336 38.8845 103.646 39.142C103.961 39.3958 104.355 39.5227 104.828 39.5227ZM110.744 41V32.2727H112.739V33.7273H112.83C112.989 33.2235 113.261 32.8352 113.648 32.5625C114.038 32.286 114.483 32.1477 114.983 32.1477C115.097 32.1477 115.223 32.1534 115.364 32.1648C115.508 32.1723 115.627 32.1856 115.722 32.2045V34.0966C115.634 34.0663 115.496 34.0398 115.307 34.017C115.121 33.9905 114.941 33.9773 114.767 33.9773C114.392 33.9773 114.055 34.0587 113.756 34.2216C113.46 34.3807 113.227 34.6023 113.057 34.8864C112.886 35.1705 112.801 35.4981 112.801 35.8693V41H110.744ZM120.592 41.1705C119.717 41.1705 118.962 40.9886 118.325 40.625C117.693 40.2576 117.206 39.7386 116.865 39.0682C116.524 38.3939 116.354 37.6004 116.354 36.6875C116.354 35.7898 116.524 35.0019 116.865 34.3239C117.21 33.642 117.691 33.1117 118.308 32.733C118.926 32.3504 119.651 32.1591 120.484 32.1591C121.022 32.1591 121.53 32.2462 122.007 32.4205C122.488 32.5909 122.912 32.8561 123.28 33.2159C123.651 33.5758 123.943 34.0341 124.155 34.5909C124.367 35.1439 124.473 35.803 124.473 36.5682V37.1989H117.32V35.8125H122.501C122.498 35.4186 122.412 35.0682 122.246 34.7614C122.079 34.4508 121.846 34.2064 121.547 34.0284C121.251 33.8504 120.907 33.7614 120.513 33.7614C120.092 33.7614 119.723 33.8636 119.405 34.0682C119.087 34.2689 118.839 34.5341 118.661 34.8636C118.486 35.1894 118.397 35.5473 118.393 35.9375V37.1477C118.393 37.6553 118.486 38.0909 118.672 38.4545C118.857 38.8144 119.117 39.0909 119.45 39.2841C119.784 39.4735 120.174 39.5682 120.621 39.5682C120.92 39.5682 121.191 39.5265 121.433 39.4432C121.676 39.3561 121.886 39.2292 122.064 39.0625C122.242 38.8958 122.376 38.6894 122.467 38.4432L124.388 38.6591C124.267 39.1667 124.036 39.6098 123.695 39.9886C123.357 40.3636 122.926 40.6553 122.399 40.8636C121.873 41.0682 121.27 41.1705 120.592 41.1705Z" fill="white"/>
</svg>
