<svg width="22" height="21" viewBox="0 0 22 21" fill="none" xmlns="http://www.w3.org/2000/svg">
<g id="Group 16210">
<path id="Vector" d="M6.875 9.625C6.875 9.98967 6.73013 10.3394 6.47227 10.5973C6.21441 10.8551 5.86467 11 5.5 11C5.13533 11 4.78559 10.8551 4.52773 10.5973C4.26987 10.3394 4.125 9.98967 4.125 9.625C4.125 9.26033 4.26987 8.91059 4.52773 8.65273C4.78559 8.39487 5.13533 8.25 5.5 8.25C5.86467 8.25 6.21441 8.39487 6.47227 8.65273C6.73013 8.91059 6.875 9.26033 6.875 9.625ZM12.375 9.625C12.375 9.98967 12.2301 10.3394 11.9723 10.5973C11.7144 10.8551 11.3647 11 11 11C10.6353 11 10.2856 10.8551 10.0277 10.5973C9.76987 10.3394 9.625 9.98967 9.625 9.625C9.625 9.26033 9.76987 8.91059 10.0277 8.65273C10.2856 8.39487 10.6353 8.25 11 8.25C11.3647 8.25 11.7144 8.39487 11.9723 8.65273C12.2301 8.91059 12.375 9.26033 12.375 9.625ZM16.5 11C16.8647 11 17.2144 10.8551 17.4723 10.5973C17.7301 10.3394 17.875 9.98967 17.875 9.625C17.875 9.26033 17.7301 8.91059 17.4723 8.65273C17.2144 8.39487 16.8647 8.25 16.5 8.25C16.1353 8.25 15.7856 8.39487 15.5277 8.65273C15.2699 8.91059 15.125 9.26033 15.125 9.625C15.125 9.98967 15.2699 10.3394 15.5277 10.5973C15.7856 10.8551 16.1353 11 16.5 11Z" fill="#262C55" fill-opacity="0.4"/>
<path id="Vector_2" d="M2.97687 20.3541L3.00437 20.3486C5.52063 19.8495 7.05787 19.1909 7.77287 18.8292C8.82556 19.11 9.91052 19.2515 11 19.25C17.0748 19.25 22 14.9407 22 9.625C22 4.30925 17.0748 0 11 0C4.92525 0 0 4.30925 0 9.625C0 12.045 1.02163 14.2587 2.70875 15.95C2.59072 17.0364 2.34898 18.1057 1.98825 19.1372L1.98412 19.1524C1.88161 19.4478 1.76972 19.7399 1.64863 20.0282C1.54 20.284 1.75038 20.57 2.024 20.526C2.34253 20.4739 2.6602 20.4166 2.97687 20.3541ZM4.07687 16.0806C4.09614 15.8793 4.07076 15.6762 4.00254 15.4859C3.93433 15.2955 3.82497 15.1225 3.68225 14.9792C2.22475 13.5162 1.375 11.6435 1.375 9.625C1.375 5.236 5.5055 1.375 11 1.375C16.4945 1.375 20.625 5.236 20.625 9.625C20.625 14.0154 16.4945 17.875 11 17.875C10.0308 17.8764 9.06553 17.7507 8.129 17.501C7.80172 17.4133 7.45358 17.4495 7.15138 17.6027C6.61925 17.8722 5.44637 18.3865 3.52962 18.8306C3.79703 17.9329 3.98024 17.0123 4.07687 16.0806Z" fill="#262C55" fill-opacity="0.4"/>
</g>
</svg>
