<svg width="74" height="64" viewBox="0 0 74 64" fill="none" xmlns="http://www.w3.org/2000/svg">
<g id="Group 15997">
<path id="Vector" opacity="0.1" d="M69.7369 29.7401C67.2247 32.9344 68.2005 37.6012 69.7969 41.338C70.3322 42.5894 70.9362 43.9102 70.7112 45.2524C70.4356 46.893 68.9742 48.0947 67.4331 48.7263C64.6303 49.8853 61.2749 49.6089 58.7003 48.007C56.4747 46.6222 54.8807 44.3705 52.6171 43.0489C48.8275 40.8383 44.0067 41.6728 39.8933 43.1957C36.9832 44.2734 33.8015 45.6756 30.9095 44.549C28.8749 43.7594 27.468 41.8275 26.7014 39.7827C26.3311 38.795 26.0627 37.7299 25.3592 36.9404C24.9392 36.4754 24.3913 36.1446 23.8291 35.8667C18.6973 33.3237 12.2233 34.6824 7.24307 31.8654C3.87896 29.9611 1.72517 26.3681 0.76907 22.6218C-0.187029 18.8756 -0.07334 14.947 0.16904 11.0894C0.341154 8.34745 0.649853 5.42073 2.40178 3.30405C4.25398 1.07447 7.43492 0.242322 10.3135 0.667869C13.192 1.09342 15.7943 2.61007 18.0862 4.39595C20.9514 6.6279 23.6081 9.40777 27.1261 10.3126C29.5215 10.9284 32.0416 10.5912 34.5128 10.4752C38.6435 10.2802 42.7751 10.712 46.8829 11.1858C50.8155 11.6405 54.778 12.1411 58.5227 13.4201C61.1739 14.3256 63.2992 15.9686 65.8028 17.1166C67.4347 17.865 69.2142 18.0719 70.7585 19.0248C72.662 20.1988 74.4061 22.2413 73.9166 24.6304C73.4516 26.9049 71.0712 28.041 69.7369 29.7401Z" fill="#6C63FF"/>
<path id="Vector_2" opacity="0.1" d="M5.8335 55.8771C6.39563 56.1669 6.98461 56.4171 7.56569 56.6666C9.71237 57.573 11.8914 58.4872 14.1976 58.7983C18.5257 59.3818 22.9959 57.8019 27.2506 58.7849C30.8152 59.6075 33.7633 62.1285 37.2458 63.2511C38.8651 63.773 40.5499 63.9775 42.2498 63.9775H42.4692C42.6798 63.9749 42.8887 63.9696 43.0961 63.9617C44.8196 63.897 46.5502 63.642 48.2398 63.3159C53.5745 62.2895 59.004 60.4081 63.0826 56.9445C51.2099 54.771 26.7469 51.4408 5.8335 55.8771Z" fill="#6C63FF"/>
<path id="Vector_3" d="M8.7451 55.647C8.7451 55.647 10.6928 49.0341 8.37955 44.1667C7.40845 42.1243 7.08633 39.8307 7.53478 37.6138C7.74921 36.5612 8.05973 35.5305 8.46245 34.5347" stroke="#535461" stroke-width="2" stroke-miterlimit="10"/>
<path id="Vector_4" d="M7.02979 31.4625C7.02979 32.2733 8.49749 34.6205 8.49749 34.6205C8.49749 34.6205 9.96519 32.2701 9.96519 31.4625C9.9563 31.0792 9.79781 30.7146 9.5236 30.4467C9.2494 30.1788 8.88125 30.0288 8.49788 30.0288C8.11452 30.0288 7.74637 30.1788 7.47216 30.4467C7.19796 30.7146 7.03947 31.0792 7.03057 31.4625H7.02979Z" fill="#6C63FF"/>
<path id="Vector_5" d="M4.60034 35.9509C5.04089 36.6315 7.54996 37.8063 7.54996 37.8063C7.54996 37.8063 7.50417 35.0359 7.06362 34.3553C6.96135 34.1883 6.82668 34.0434 6.66756 33.9292C6.50843 33.8151 6.32807 33.7339 6.13709 33.6905C5.94611 33.6471 5.74838 33.6424 5.55555 33.6766C5.36272 33.7108 5.17868 33.7833 5.01428 33.8897C4.84989 33.9962 4.70845 34.1344 4.59832 34.2964C4.48818 34.4583 4.41157 34.6407 4.37299 34.8327C4.33442 35.0247 4.33466 35.2225 4.3737 35.4144C4.41275 35.6063 4.48981 35.7884 4.60034 35.9501V35.9509Z" fill="#6C63FF"/>
<path id="Vector_6" d="M4.7076 43.6225C5.43158 43.9872 8.19013 43.7354 8.19013 43.7354C8.19013 43.7354 6.75243 41.3668 6.02845 41.0021C5.85583 40.9095 5.66644 40.8525 5.47142 40.8342C5.27641 40.816 5.07972 40.837 4.89294 40.896C4.70617 40.955 4.53309 41.0507 4.3839 41.1777C4.23472 41.3046 4.11244 41.46 4.02428 41.6349C3.93611 41.8098 3.88385 42.0006 3.87057 42.196C3.85728 42.3915 3.88325 42.5875 3.94693 42.7728C4.01061 42.958 4.11072 43.1286 4.24135 43.2745C4.37199 43.4205 4.53052 43.5388 4.7076 43.6225Z" fill="#6C63FF"/>
<path id="Vector_7" d="M6.09427 49.41C6.74561 49.8916 9.50812 50.1095 9.50812 50.1095C9.50812 50.1095 8.49123 47.5325 7.83988 47.0501C7.52674 46.8223 7.13626 46.7275 6.75353 46.7863C6.3708 46.8452 6.02682 47.0529 5.79653 47.3642C5.56625 47.6755 5.46833 48.0652 5.5241 48.4484C5.57986 48.8316 5.7848 49.1772 6.09427 49.41Z" fill="#6C63FF"/>
<path id="Vector_8" d="M10.6258 37.9633C10.0448 38.5278 7.33594 39.1128 7.33594 39.1128C7.33594 39.1128 7.99913 36.4229 8.58021 35.8577C8.85943 35.5864 9.23498 35.4372 9.62424 35.4428C10.0135 35.4484 10.3846 35.6084 10.6558 35.8877C10.9271 36.1669 11.0763 36.5424 11.0707 36.9317C11.0651 37.3209 10.9051 37.692 10.6258 37.9633Z" fill="#6C63FF"/>
<path id="Vector_9" d="M12.1676 44.7518C11.4436 45.1165 8.68506 44.8647 8.68506 44.8647C8.68506 44.8647 10.1228 42.4962 10.8467 42.1314C11.1932 41.9653 11.5909 41.9416 11.9546 42.0654C12.3183 42.1893 12.6189 42.4508 12.7919 42.7938C12.9649 43.1368 12.9965 43.534 12.88 43.9001C12.7634 44.2662 12.5079 44.572 12.1684 44.7518H12.1676Z" fill="#6C63FF"/>
<path id="Vector_10" d="M12.7581 51.5528C12.1067 52.0344 9.34424 52.2523 9.34424 52.2523C9.34424 52.2523 10.3611 49.6753 11.0125 49.1929C11.3256 48.9651 11.7161 48.8703 12.0988 48.9292C12.4816 48.988 12.8255 49.1957 13.0558 49.507C13.2861 49.8183 13.384 50.208 13.3283 50.5912C13.2725 50.9744 13.0676 51.32 12.7581 51.5528Z" fill="#6C63FF"/>
<path id="Vector_11" opacity="0.25" d="M7.02979 31.4625C7.02979 32.2733 8.49749 34.6205 8.49749 34.6205C8.49749 34.6205 9.96519 32.2701 9.96519 31.4625C9.9563 31.0792 9.79781 30.7146 9.5236 30.4467C9.2494 30.1788 8.88125 30.0288 8.49788 30.0288C8.11452 30.0288 7.74637 30.1788 7.47216 30.4467C7.19796 30.7146 7.03947 31.0792 7.03057 31.4625H7.02979Z" fill="black"/>
<path id="Vector_12" opacity="0.25" d="M4.60034 35.9509C5.04089 36.6315 7.54996 37.8063 7.54996 37.8063C7.54996 37.8063 7.50417 35.0359 7.06362 34.3553C6.96135 34.1883 6.82668 34.0434 6.66756 33.9292C6.50843 33.8151 6.32807 33.7339 6.13709 33.6905C5.94611 33.6471 5.74838 33.6424 5.55555 33.6766C5.36272 33.7108 5.17868 33.7833 5.01428 33.8897C4.84989 33.9962 4.70845 34.1344 4.59832 34.2964C4.48818 34.4583 4.41157 34.6407 4.37299 34.8327C4.33442 35.0247 4.33466 35.2225 4.3737 35.4144C4.41275 35.6063 4.48981 35.7884 4.60034 35.9501V35.9509Z" fill="black"/>
<path id="Vector_13" opacity="0.25" d="M4.7076 43.6225C5.43158 43.9872 8.19013 43.7354 8.19013 43.7354C8.19013 43.7354 6.75243 41.3668 6.02845 41.0021C5.85583 40.9095 5.66644 40.8525 5.47142 40.8342C5.27641 40.816 5.07972 40.837 4.89294 40.896C4.70617 40.955 4.53309 41.0507 4.3839 41.1777C4.23472 41.3046 4.11244 41.46 4.02428 41.6349C3.93611 41.8098 3.88385 42.0006 3.87057 42.196C3.85728 42.3915 3.88325 42.5875 3.94693 42.7728C4.01061 42.958 4.11072 43.1286 4.24135 43.2745C4.37199 43.4205 4.53052 43.5388 4.7076 43.6225Z" fill="black"/>
<path id="Vector_14" opacity="0.25" d="M6.09427 49.41C6.74561 49.8916 9.50812 50.1095 9.50812 50.1095C9.50812 50.1095 8.49123 47.5325 7.83988 47.0501C7.52674 46.8223 7.13626 46.7275 6.75353 46.7863C6.3708 46.8452 6.02682 47.0529 5.79653 47.3642C5.56625 47.6755 5.46833 48.0652 5.5241 48.4484C5.57986 48.8316 5.7848 49.1772 6.09427 49.41Z" fill="black"/>
<path id="Vector_15" opacity="0.25" d="M10.6258 37.9633C10.0448 38.5278 7.33594 39.1128 7.33594 39.1128C7.33594 39.1128 7.99913 36.4229 8.58021 35.8577C8.85943 35.5864 9.23498 35.4372 9.62424 35.4428C10.0135 35.4484 10.3846 35.6084 10.6558 35.8877C10.9271 36.1669 11.0763 36.5424 11.0707 36.9317C11.0651 37.3209 10.9051 37.692 10.6258 37.9633Z" fill="black"/>
<path id="Vector_16" opacity="0.25" d="M12.1676 44.7518C11.4436 45.1165 8.68506 44.8647 8.68506 44.8647C8.68506 44.8647 10.1228 42.4962 10.8467 42.1314C11.1932 41.9653 11.5909 41.9416 11.9546 42.0654C12.3183 42.1893 12.6189 42.4508 12.7919 42.7938C12.9649 43.1368 12.9965 43.534 12.88 43.9001C12.7634 44.2662 12.5079 44.572 12.1684 44.7518H12.1676Z" fill="black"/>
<path id="Vector_17" opacity="0.25" d="M12.7581 51.5528C12.1067 52.0344 9.34424 52.2523 9.34424 52.2523C9.34424 52.2523 10.3611 49.6753 11.0125 49.1929C11.3256 48.9651 11.7161 48.8703 12.0988 48.9292C12.4816 48.988 12.8255 49.1957 13.0558 49.507C13.2861 49.8183 13.384 50.208 13.3283 50.5912C13.2725 50.9744 13.0676 51.32 12.7581 51.5528Z" fill="black"/>
<path id="Vector_18" d="M18.7914 53.6327C18.7914 53.6327 19.8462 50.0523 18.5941 47.4177C18.0619 46.3159 17.9015 45.0711 18.1369 43.8704C18.2531 43.3012 18.4212 42.7438 18.6391 42.2053" stroke="#535461" stroke-width="2" stroke-miterlimit="10"/>
<path id="Vector_19" d="M17.867 40.539C17.867 40.978 18.6613 42.2499 18.6613 42.2499C18.6613 42.2499 19.4555 40.9772 19.4555 40.539C19.4555 40.3283 19.3718 40.1262 19.2228 39.9771C19.0737 39.8281 18.8716 39.7444 18.6609 39.7444C18.4501 39.7444 18.248 39.8281 18.099 39.9771C17.9499 40.1262 17.8662 40.3283 17.8662 40.539H17.867Z" fill="#6C63FF"/>
<path id="Vector_20" d="M16.5553 42.9697C16.7922 43.3377 18.1525 43.974 18.1525 43.974C18.1525 43.974 18.128 42.4739 17.8896 42.106C17.8329 42.0184 17.7595 41.9428 17.6735 41.8836C17.5876 41.8244 17.4909 41.7826 17.3888 41.7608C17.2868 41.7389 17.1814 41.7374 17.0788 41.7563C16.9761 41.7751 16.8782 41.814 16.7906 41.8707C16.703 41.9275 16.6274 42.0009 16.5682 42.0868C16.5089 42.1727 16.4672 42.2695 16.4453 42.3715C16.4235 42.4736 16.422 42.5789 16.4408 42.6816C16.4597 42.7842 16.4986 42.8821 16.5553 42.9697Z" fill="#6C63FF"/>
<path id="Vector_21" d="M16.6034 47.1231C16.9981 47.3205 18.4887 47.1839 18.4887 47.1839C18.4887 47.1839 17.7103 45.9017 17.3187 45.7043C17.2254 45.6573 17.1237 45.6292 17.0195 45.6215C16.9153 45.6139 16.8107 45.6268 16.7115 45.6595C16.6123 45.6923 16.5205 45.7443 16.4414 45.8125C16.3623 45.8808 16.2974 45.9639 16.2505 46.0572C16.2035 46.1505 16.1754 46.2522 16.1677 46.3564C16.16 46.4606 16.1729 46.5652 16.2057 46.6644C16.2385 46.7636 16.2904 46.8554 16.3587 46.9345C16.4269 47.0136 16.5101 47.0785 16.6034 47.1254V47.1231Z" fill="#6C63FF"/>
<path id="Vector_22" d="M17.3551 50.2551C17.708 50.5156 19.2034 50.634 19.2034 50.634C19.2034 50.634 18.6507 49.239 18.3002 48.9761C18.2163 48.9139 18.121 48.8688 18.0197 48.8434C17.9184 48.818 17.8131 48.8129 17.7098 48.8282C17.6065 48.8435 17.5072 48.879 17.4176 48.9327C17.3281 48.9864 17.25 49.0572 17.1877 49.1411C17.1255 49.225 17.0805 49.3203 17.0551 49.4216C17.0297 49.5229 17.0245 49.6282 17.0399 49.7315C17.0552 49.8348 17.0907 49.934 17.1444 50.0236C17.1981 50.1132 17.2689 50.1913 17.3528 50.2535L17.3551 50.2551Z" fill="#6C63FF"/>
<path id="Vector_23" d="M19.8124 44.0581C19.4966 44.3636 18.0312 44.6802 18.0312 44.6802C18.0312 44.6802 18.3905 43.2235 18.7047 42.918C18.7789 42.8421 18.8675 42.7818 18.9653 42.7407C19.0632 42.6996 19.1682 42.6785 19.2744 42.6787C19.3805 42.6789 19.4855 42.7004 19.5832 42.7418C19.6809 42.7833 19.7693 42.8439 19.8431 42.9201C19.917 42.9963 19.9749 43.0865 20.0133 43.1854C20.0517 43.2844 20.0699 43.39 20.0668 43.4961C20.0637 43.6022 20.0394 43.7065 19.9953 43.8031C19.9512 43.8996 19.8882 43.9863 19.81 44.0581H19.8124Z" fill="#6C63FF"/>
<path id="Vector_24" d="M20.6427 47.7334C20.2479 47.9308 18.7573 47.7942 18.7573 47.7942C18.7573 47.7942 19.5358 46.5121 19.9274 46.3147C20.0207 46.2677 20.1223 46.2396 20.2265 46.2319C20.3307 46.2242 20.4354 46.2371 20.5346 46.2699C20.6338 46.3027 20.7255 46.3547 20.8046 46.4229C20.8837 46.4911 20.9486 46.5743 20.9956 46.6676C21.0426 46.7609 21.0707 46.8625 21.0784 46.9667C21.0861 47.0709 21.0731 47.1756 21.0404 47.2748C21.0076 47.374 20.9556 47.4657 20.8874 47.5448C20.8191 47.6239 20.736 47.6888 20.6427 47.7358V47.7334Z" fill="#6C63FF"/>
<path id="Vector_25" d="M20.9615 51.4155C20.6086 51.676 19.1133 51.7945 19.1133 51.7945C19.1133 51.7945 19.6659 50.3994 20.0165 50.1365C20.1859 50.0108 20.3983 49.9576 20.6069 49.9886C20.8155 50.0195 21.0033 50.1321 21.1289 50.3015C21.2545 50.4709 21.3077 50.6833 21.2768 50.8919C21.2458 51.1005 21.1333 51.2883 20.9639 51.4139L20.9615 51.4155Z" fill="#6C63FF"/>
<path id="Vector_26" opacity="0.5" d="M17.867 40.539C17.867 40.978 18.6613 42.2499 18.6613 42.2499C18.6613 42.2499 19.4555 40.9772 19.4555 40.539C19.4555 40.3283 19.3718 40.1262 19.2228 39.9771C19.0737 39.8281 18.8716 39.7444 18.6609 39.7444C18.4501 39.7444 18.248 39.8281 18.099 39.9771C17.9499 40.1262 17.8662 40.3283 17.8662 40.539H17.867Z" fill="white"/>
<path id="Vector_27" opacity="0.5" d="M16.5553 42.9697C16.7922 43.3377 18.1525 43.974 18.1525 43.974C18.1525 43.974 18.128 42.4739 17.8896 42.106C17.8329 42.0184 17.7595 41.9428 17.6735 41.8836C17.5876 41.8244 17.4909 41.7826 17.3888 41.7608C17.2868 41.7389 17.1814 41.7374 17.0788 41.7563C16.9761 41.7751 16.8782 41.814 16.7906 41.8707C16.703 41.9275 16.6274 42.0009 16.5682 42.0868C16.5089 42.1727 16.4672 42.2695 16.4453 42.3715C16.4235 42.4736 16.422 42.5789 16.4408 42.6816C16.4597 42.7842 16.4986 42.8821 16.5553 42.9697Z" fill="white"/>
<path id="Vector_28" opacity="0.5" d="M16.6034 47.1231C16.9981 47.3205 18.4887 47.1839 18.4887 47.1839C18.4887 47.1839 17.7103 45.9017 17.3187 45.7043C17.2254 45.6573 17.1237 45.6292 17.0195 45.6215C16.9153 45.6139 16.8107 45.6268 16.7115 45.6595C16.6123 45.6923 16.5205 45.7443 16.4414 45.8125C16.3623 45.8808 16.2974 45.9639 16.2505 46.0572C16.2035 46.1505 16.1754 46.2522 16.1677 46.3564C16.16 46.4606 16.1729 46.5652 16.2057 46.6644C16.2385 46.7636 16.2904 46.8554 16.3587 46.9345C16.4269 47.0136 16.5101 47.0785 16.6034 47.1254V47.1231Z" fill="white"/>
<path id="Vector_29" opacity="0.5" d="M17.3551 50.2551C17.708 50.5156 19.2034 50.634 19.2034 50.634C19.2034 50.634 18.6507 49.239 18.3002 48.9761C18.2163 48.9139 18.121 48.8688 18.0197 48.8434C17.9184 48.818 17.8131 48.8129 17.7098 48.8282C17.6065 48.8435 17.5072 48.879 17.4176 48.9327C17.3281 48.9864 17.25 49.0572 17.1877 49.1411C17.1255 49.225 17.0805 49.3203 17.0551 49.4216C17.0297 49.5229 17.0245 49.6282 17.0399 49.7315C17.0552 49.8348 17.0907 49.934 17.1444 50.0236C17.1981 50.1132 17.2689 50.1913 17.3528 50.2535L17.3551 50.2551Z" fill="white"/>
<path id="Vector_30" opacity="0.5" d="M19.8124 44.0581C19.4966 44.3636 18.0312 44.6802 18.0312 44.6802C18.0312 44.6802 18.3905 43.2235 18.7047 42.918C18.7789 42.8421 18.8675 42.7818 18.9653 42.7407C19.0632 42.6996 19.1682 42.6785 19.2744 42.6787C19.3805 42.6789 19.4855 42.7004 19.5832 42.7418C19.6809 42.7833 19.7693 42.8439 19.8431 42.9201C19.917 42.9963 19.9749 43.0865 20.0133 43.1854C20.0517 43.2844 20.0699 43.39 20.0668 43.4961C20.0637 43.6022 20.0394 43.7065 19.9953 43.8031C19.9512 43.8996 19.8882 43.9863 19.81 44.0581H19.8124Z" fill="white"/>
<path id="Vector_31" opacity="0.5" d="M20.6427 47.7334C20.2479 47.9308 18.7573 47.7942 18.7573 47.7942C18.7573 47.7942 19.5358 46.5121 19.9274 46.3147C20.0207 46.2677 20.1223 46.2396 20.2265 46.2319C20.3307 46.2242 20.4354 46.2371 20.5346 46.2699C20.6338 46.3027 20.7255 46.3547 20.8046 46.4229C20.8837 46.4911 20.9486 46.5743 20.9956 46.6676C21.0426 46.7609 21.0707 46.8625 21.0784 46.9667C21.0861 47.0709 21.0731 47.1756 21.0404 47.2748C21.0076 47.374 20.9556 47.4657 20.8874 47.5448C20.8191 47.6239 20.736 47.6888 20.6427 47.7358V47.7334Z" fill="white"/>
<path id="Vector_32" opacity="0.5" d="M20.9615 51.4155C20.6086 51.676 19.1133 51.7945 19.1133 51.7945C19.1133 51.7945 19.6659 50.3994 20.0165 50.1365C20.1859 50.0108 20.3983 49.9576 20.6069 49.9886C20.8155 50.0195 21.0033 50.1321 21.1289 50.3015C21.2545 50.4709 21.3077 50.6833 21.2768 50.8919C21.2458 51.1005 21.1333 51.2883 20.9639 51.4139L20.9615 51.4155Z" fill="white"/>
<g id="Group" opacity="0.6">
<path id="Vector_33" d="M16.5237 4.28648C16.4052 4.38365 16.3128 4.5088 16.2548 4.65064C16.1967 4.79247 16.1749 4.94652 16.1913 5.09889C16.2995 6.10315 16.6248 8.38721 17.4356 9.67332C17.4835 9.74964 17.5335 9.82254 17.5856 9.89202H21.9682C21.9682 9.89202 22.8619 6.56738 22.9211 5.10204C22.928 4.93305 22.8959 4.76473 22.8275 4.61006C22.7591 4.45539 22.656 4.31849 22.5264 4.2099C21.8695 3.66434 20.3276 2.47297 19.4528 2.55192H19.4354C19.4354 2.55192 19.0991 2.17532 16.5237 4.28648Z" fill="#D6DBE6"/>
<path id="Vector_34" opacity="0.05" d="M16.191 5.0996C16.2992 6.10386 16.6245 8.38791 17.4353 9.67403C17.6098 9.75298 17.7882 9.82325 17.9651 9.89272C19.0704 10.3246 20.1149 10.5796 19.946 9.89272C19.9074 9.75696 19.8506 9.62707 19.777 9.50665C18.772 7.75788 19.237 3.94454 19.4501 2.55895H19.4328C19.4328 2.55895 19.0996 2.1784 16.5242 4.28956C16.4059 4.38642 16.3136 4.51115 16.2554 4.65254C16.1973 4.79392 16.1751 4.94754 16.191 5.0996Z" fill="black"/>
<path id="Vector_35" d="M17.5591 9.77515C17.5591 9.96779 17.7233 10.1454 18.0004 10.2891C18.1901 10.3832 18.3902 10.4548 18.5965 10.5023C18.9847 10.5928 19.3822 10.637 19.7808 10.6341C20.2599 10.6402 20.7372 10.5736 21.1964 10.4368C21.3839 10.3806 21.5622 10.2971 21.7253 10.1889C21.899 10.0665 21.9985 9.92595 21.9985 9.77594C21.9985 9.55725 21.7877 9.35829 21.4411 9.2067C21.3853 9.18197 21.3258 9.15881 21.2627 9.13723C20.7841 8.98445 20.2839 8.91032 19.7816 8.91774C19.0773 8.91774 18.4504 9.04485 18.0446 9.24302C17.9764 9.27599 17.9107 9.31399 17.848 9.35671C17.6625 9.47988 17.5591 9.62278 17.5591 9.77515Z" fill="#D6DBE6"/>
<path id="Vector_36" opacity="0.1" d="M17.5186 9.77515C17.5186 9.96779 17.6828 10.1454 17.9599 10.2891C18.1496 10.3832 18.3496 10.4548 18.556 10.5023C18.9442 10.5928 19.3417 10.637 19.7402 10.6341C20.2194 10.6402 20.6966 10.5736 21.1558 10.4368C21.3434 10.3806 21.5217 10.2971 21.6848 10.1889C21.8585 10.0665 21.958 9.92595 21.958 9.77594C21.958 9.55725 21.7472 9.35829 21.4006 9.2067C21.3448 9.18197 21.2853 9.15881 21.2222 9.13723C20.7436 8.98445 20.2434 8.91032 19.741 8.91774C19.0368 8.91774 18.4099 9.04485 18.0041 9.24302C17.9358 9.27599 17.8701 9.31399 17.8075 9.35671C17.6212 9.47988 17.5186 9.62278 17.5186 9.77515Z" fill="black"/>
<path id="Vector_37" d="M20.1978 10.0082C20.2639 9.88826 20.285 9.74857 20.257 9.61445C20.229 9.48034 20.154 9.36067 20.0454 9.27713C20.0454 9.27713 19.8938 9.09475 19.987 8.92896C19.987 8.92896 19.2125 9.44056 19.6072 10.0287L20.1978 10.0082Z" fill="#FFD865"/>
<path id="Vector_38" d="M20.0075 10.0257C20.0373 9.97167 20.0467 9.90876 20.0341 9.84837C20.0215 9.78798 19.9877 9.73409 19.9388 9.69648C19.9208 9.67487 19.9089 9.64883 19.9043 9.62107C19.8997 9.59331 19.9026 9.56483 19.9127 9.53857C19.9127 9.53857 19.5638 9.76911 19.7422 10.0336L20.0075 10.0257Z" fill="#FFD865"/>
<path id="Vector_39" opacity="0.1" d="M20.0075 10.0257C20.0373 9.97167 20.0467 9.90876 20.0341 9.84837C20.0215 9.78798 19.9877 9.73409 19.9388 9.69648C19.9208 9.67487 19.9089 9.64883 19.9043 9.62107C19.8997 9.59331 19.9026 9.56483 19.9127 9.53857C19.9127 9.53857 19.5638 9.76911 19.7422 10.0336L20.0075 10.0257Z" fill="black"/>
<path id="Vector_40" d="M18.001 10.2893C18.1907 10.3835 18.3907 10.455 18.5971 10.5025C19.2287 10.3557 21.0445 9.88354 21.4393 9.20693C21.3835 9.18219 21.324 9.15903 21.2609 9.13745C21.0051 9.43352 19.9779 10.4591 18.001 10.2893Z" fill="#565387"/>
<path id="Vector_41" d="M17.8413 9.35447C18.0782 9.7816 20.2888 10.2577 21.1912 10.4353C21.3788 10.3792 21.557 10.2956 21.7202 10.1874C20.4346 10.1707 19.1719 9.84576 18.0379 9.23999C17.9696 9.27321 17.9039 9.31148 17.8413 9.35447Z" fill="#565387"/>
<path id="Vector_42" opacity="0.35" d="M20.6557 4.25205C20.7859 4.37995 20.7496 4.59154 20.7346 4.77313C20.7093 5.11284 20.7961 5.45148 20.9817 5.73712C21.097 5.91318 21.2557 6.09319 21.2273 6.30162C21.1988 6.51005 20.9817 6.6498 20.8665 6.83375C20.7512 7.01771 20.7417 7.26404 20.7757 7.48589C20.8096 7.70774 20.8783 7.92407 20.8957 8.1475C20.9034 8.19861 20.8977 8.25084 20.8791 8.29909C20.8509 8.34599 20.8136 8.38679 20.7694 8.41909C20.6963 8.48441 20.6352 8.56188 20.5886 8.64805C20.5656 8.70084 20.5347 8.74982 20.497 8.79332C20.4646 8.82232 20.4271 8.84507 20.3864 8.86043C20.0904 8.98517 19.7493 8.96307 19.4438 8.86517C19.1419 8.75519 18.8541 8.60997 18.5864 8.43251C18.5104 8.39259 18.4424 8.33907 18.3858 8.27461C18.3218 8.17859 18.2883 8.06551 18.2895 7.95012C18.2769 7.703 18.3234 7.45431 18.2942 7.20798C18.265 6.96165 18.1505 6.71375 18.0803 6.46584C17.9469 5.993 17.9662 5.49012 18.1355 5.02893C18.1965 4.83535 18.3109 4.66292 18.4656 4.53154C18.8098 4.26942 19.3103 4.37363 19.709 4.20705C20.0075 4.08072 20.3825 3.98282 20.6557 4.25205Z" fill="#FFD865"/>
</g>
<g id="Group_2" opacity="0.6">
<path id="Vector_43" d="M9.75133 16.1518C9.68274 16.2079 9.62921 16.2803 9.59557 16.3623C9.56194 16.4443 9.54926 16.5334 9.55869 16.6216C9.62106 17.2018 9.80896 18.5227 10.2779 19.2664C10.3058 19.3106 10.3348 19.3527 10.3648 19.3927H12.8983C12.8983 19.3927 13.4147 17.4711 13.451 16.6239C13.4549 16.5261 13.4362 16.4287 13.3963 16.3393C13.3565 16.2499 13.2966 16.1709 13.2212 16.1084C12.8415 15.7926 11.9501 15.1057 11.4448 15.1515H11.4346C11.4346 15.1515 11.2404 14.9312 9.75133 16.1518Z" fill="#D6DBE6"/>
<path id="Vector_44" opacity="0.05" d="M9.55877 16.6209C9.62114 17.2012 9.80904 18.522 10.278 19.2657C10.3791 19.3092 10.4817 19.3518 10.5843 19.3921C11.2215 19.6415 11.827 19.7868 11.7291 19.3921C11.7068 19.3135 11.6739 19.2383 11.6312 19.1686C11.0502 18.1581 11.3154 15.9537 11.4425 15.15H11.4323C11.4323 15.15 11.2396 14.9297 9.75141 16.1503C9.6827 16.2065 9.62909 16.279 9.59545 16.3612C9.56182 16.4434 9.54921 16.5326 9.55877 16.6209Z" fill="black"/>
<path id="Vector_45" d="M10.3491 19.3227C10.3491 19.434 10.4439 19.5367 10.6041 19.6196C10.7137 19.6739 10.8292 19.7153 10.9484 19.7427C11.1718 19.7958 11.4008 19.8223 11.6305 19.8217C11.907 19.8241 12.1822 19.7847 12.4469 19.7048C12.5555 19.6723 12.6587 19.6239 12.7532 19.5611C12.7966 19.5372 12.8336 19.5032 12.8611 19.462C12.8886 19.4208 12.9057 19.3735 12.9111 19.3243C12.9111 19.198 12.7895 19.0827 12.589 18.9951C12.5563 18.9809 12.5219 18.9674 12.4855 18.9548C12.2088 18.8663 11.9195 18.8234 11.6289 18.8277C11.2223 18.8277 10.8591 18.9011 10.6247 19.0156C10.5852 19.0346 10.5472 19.0565 10.511 19.0811C10.4666 19.1055 10.4288 19.1401 10.4006 19.1822C10.3724 19.2242 10.3548 19.2724 10.3491 19.3227Z" fill="#D6DBE6"/>
<path id="Vector_46" opacity="0.1" d="M10.3188 19.3223C10.3188 19.4336 10.4136 19.5362 10.5739 19.6191C10.6834 19.6735 10.7989 19.7148 10.9181 19.7423C11.1416 19.7954 11.3705 19.8219 11.6002 19.8213C11.8771 19.8246 12.1529 19.786 12.4182 19.7068C12.5268 19.6743 12.63 19.6258 12.7245 19.5631C12.7679 19.5392 12.8049 19.5052 12.8324 19.464C12.8599 19.4227 12.877 19.3755 12.8824 19.3262C12.8824 19.1999 12.7608 19.0847 12.5603 18.997C12.5276 18.9828 12.4932 18.9694 12.4568 18.9567C12.1801 18.8683 11.8908 18.8254 11.6002 18.8296C11.1936 18.8296 10.8305 18.9031 10.596 19.0175C10.5565 19.0365 10.5185 19.0584 10.4823 19.0831C10.4379 19.107 10.3999 19.1412 10.3715 19.1828C10.3431 19.2245 10.325 19.2723 10.3188 19.3223Z" fill="black"/>
<path id="Vector_47" d="M11.8707 19.4572C11.9091 19.388 11.9213 19.3073 11.9052 19.2298C11.8891 19.1523 11.8458 19.0831 11.7831 19.0348C11.7596 19.0075 11.744 18.9744 11.7381 18.9389C11.7321 18.9034 11.7359 18.867 11.7491 18.8335C11.7491 18.8335 11.3015 19.1296 11.5296 19.4691L11.8707 19.4572Z" fill="#FFD865"/>
<path id="Vector_48" d="M11.7702 19.4676C11.7874 19.4364 11.7929 19.4 11.7857 19.3651C11.7785 19.3302 11.759 19.2991 11.7307 19.2773C11.7202 19.265 11.7133 19.25 11.7106 19.234C11.708 19.218 11.7097 19.2016 11.7157 19.1865C11.7157 19.1865 11.5144 19.32 11.617 19.4723L11.7702 19.4676Z" fill="#FFD865"/>
<path id="Vector_49" opacity="0.1" d="M11.7702 19.4676C11.7874 19.4364 11.7929 19.4 11.7857 19.3651C11.7785 19.3302 11.759 19.2991 11.7307 19.2773C11.7202 19.265 11.7133 19.25 11.7106 19.234C11.708 19.218 11.7097 19.2016 11.7157 19.1865C11.7157 19.1865 11.5144 19.32 11.617 19.4723L11.7702 19.4676Z" fill="black"/>
<path id="Vector_50" d="M10.5977 19.6204C10.7072 19.6748 10.8227 19.7161 10.9419 19.7436C11.3074 19.6591 12.3559 19.386 12.5841 18.9944C12.5514 18.9802 12.517 18.9667 12.4806 18.9541C12.3346 19.1254 11.7409 19.7183 10.5977 19.6204Z" fill="#565387"/>
<path id="Vector_51" d="M10.5156 19.0797C10.6522 19.3269 11.9312 19.6016 12.4523 19.7043C12.5609 19.6717 12.6642 19.6233 12.7586 19.5606C12.0145 19.5516 11.2834 19.3639 10.6269 19.0134C10.5883 19.0328 10.5511 19.0549 10.5156 19.0797Z" fill="#565387"/>
<path id="Vector_52" opacity="0.35" d="M12.1332 16.1296C12.2121 16.203 12.1876 16.3262 12.179 16.4312C12.1643 16.6276 12.2145 16.8234 12.3219 16.9886C12.3882 17.0904 12.4798 17.1946 12.464 17.3146C12.4482 17.4346 12.3219 17.516 12.2555 17.6225C12.1939 17.7379 12.1752 17.8713 12.2026 17.9991C12.2224 18.127 12.2619 18.2526 12.2721 18.3813C12.2766 18.4108 12.2734 18.441 12.2626 18.4689C12.2464 18.496 12.225 18.5197 12.1995 18.5384C12.1574 18.5762 12.1221 18.6211 12.0953 18.671C12.082 18.7014 12.0641 18.7296 12.0424 18.7547C12.0236 18.7714 12.0019 18.7845 11.9784 18.7934C11.8026 18.858 11.6095 18.858 11.4337 18.7934C11.2591 18.7298 11.0927 18.6458 10.9378 18.5431C10.8939 18.52 10.8545 18.4889 10.8218 18.4515C10.7847 18.3962 10.7652 18.331 10.7657 18.2644C10.7586 18.1215 10.7855 17.9778 10.7657 17.8357C10.7357 17.6895 10.6942 17.5459 10.6418 17.4062C10.5648 17.1329 10.5761 16.8422 10.6741 16.5756C10.7095 16.4638 10.7757 16.3642 10.8652 16.2883C11.0642 16.1367 11.3539 16.1983 11.5845 16.1004C11.7574 16.0309 11.9745 15.974 12.1332 16.1296Z" fill="#FFD865"/>
</g>
<g id="Group_3" opacity="0.6">
<path id="Vector_53" d="M50.0033 14.6262C49.9347 14.6823 49.8812 14.7546 49.8475 14.8367C49.8139 14.9187 49.8012 15.0078 49.8106 15.0959C49.873 15.6762 50.0609 16.9971 50.5299 17.7408C50.5578 17.785 50.5867 17.8271 50.6167 17.8671H53.1503C53.1503 17.8671 53.6666 15.9454 53.7029 15.0983C53.7068 15.0005 53.6881 14.9031 53.6483 14.8137C53.6084 14.7243 53.5485 14.6452 53.4732 14.5827C53.0934 14.2669 52.2021 13.5801 51.6968 13.6258H51.6865C51.6865 13.6258 51.4923 13.4056 50.0033 14.6262Z" fill="#D6DBE6"/>
<path id="Vector_54" opacity="0.05" d="M49.8107 15.0926C49.8731 15.6728 50.061 16.9937 50.53 17.7374C50.631 17.7808 50.7337 17.8235 50.8363 17.8637C51.4734 18.1132 52.079 18.2585 51.9811 17.8637C51.9588 17.7852 51.9258 17.71 51.8832 17.6403C51.3021 16.6297 51.5674 14.4254 51.6945 13.6217H51.6842C51.6842 13.6217 51.4916 13.4014 50.0034 14.622C49.9346 14.6782 49.881 14.7507 49.8474 14.8329C49.8138 14.915 49.8012 15.0043 49.8107 15.0926Z" fill="black"/>
<path id="Vector_55" d="M50.6011 17.7987C50.6011 17.9101 50.6958 18.0127 50.8561 18.0956C50.9656 18.15 51.0812 18.1913 51.2003 18.2188C51.4238 18.2718 51.6528 18.2983 51.8825 18.2977C52.1589 18.3001 52.4341 18.2607 52.6988 18.1809C52.8075 18.1484 52.9107 18.0999 53.0051 18.0372C53.0485 18.0133 53.0855 17.9793 53.113 17.938C53.1405 17.8968 53.1577 17.8496 53.163 17.8003C53.163 17.674 53.0415 17.5587 52.8409 17.4711C52.8083 17.4569 52.7738 17.4435 52.7375 17.4308C52.4615 17.3426 52.173 17.2997 51.8832 17.3037C51.4766 17.3037 51.1135 17.3771 50.879 17.4916C50.8395 17.5106 50.8015 17.5325 50.7653 17.5572C50.7205 17.5812 50.6822 17.6158 50.6536 17.6578C50.625 17.6999 50.607 17.7482 50.6011 17.7987Z" fill="#D6DBE6"/>
<path id="Vector_56" opacity="0.1" d="M50.5708 17.7992C50.5708 17.9105 50.6655 18.0131 50.8258 18.096C50.9354 18.1504 51.0509 18.1917 51.17 18.2192C51.3935 18.2722 51.6225 18.2987 51.8522 18.2981C52.129 18.3015 52.4048 18.2629 52.6701 18.1837C52.7788 18.1511 52.882 18.1027 52.9764 18.04C53.0198 18.0161 53.0568 17.9821 53.0843 17.9408C53.1118 17.8996 53.129 17.8524 53.1343 17.8031C53.1343 17.6768 53.0128 17.5615 52.8122 17.4739C52.7796 17.4597 52.7451 17.4463 52.7088 17.4336C52.4324 17.3444 52.1434 17.3007 51.853 17.3041C51.4464 17.3041 51.0832 17.3776 50.8487 17.492C50.8092 17.511 50.7712 17.5329 50.735 17.5576C50.6902 17.5816 50.6519 17.6162 50.6233 17.6582C50.5947 17.7003 50.5767 17.7486 50.5708 17.7992Z" fill="black"/>
<path id="Vector_57" d="M52.1315 17.9347C52.1698 17.8655 52.182 17.7848 52.166 17.7073C52.1499 17.6298 52.1065 17.5606 52.0438 17.5124C52.0203 17.4851 52.0048 17.4519 51.9988 17.4164C51.9928 17.3809 51.9966 17.3445 52.0099 17.311C52.0099 17.311 51.5622 17.6071 51.7904 17.9466L52.1315 17.9347Z" fill="#FFD865"/>
<path id="Vector_58" d="M52.0222 17.9437C52.0394 17.9125 52.0449 17.8761 52.0376 17.8412C52.0304 17.8063 52.0109 17.7752 51.9827 17.7534C51.9722 17.7411 51.9652 17.7261 51.9626 17.7101C51.9599 17.6941 51.9617 17.6777 51.9677 17.6626C51.9677 17.6626 51.7664 17.796 51.869 17.9484L52.0222 17.9437Z" fill="#FFD865"/>
<path id="Vector_59" opacity="0.1" d="M52.0222 17.9437C52.0394 17.9125 52.0449 17.8761 52.0376 17.8412C52.0304 17.8063 52.0109 17.7752 51.9827 17.7534C51.9722 17.7411 51.9652 17.7261 51.9626 17.7101C51.9599 17.6941 51.9617 17.6777 51.9677 17.6626C51.9677 17.6626 51.7664 17.796 51.869 17.9484L52.0222 17.9437Z" fill="black"/>
<path id="Vector_60" d="M50.8584 18.0929C50.9679 18.1472 51.0835 18.1885 51.2026 18.216C51.5682 18.1315 52.6166 17.8584 52.8448 17.4668C52.8122 17.4526 52.7777 17.4391 52.7414 17.4265C52.5953 17.601 52.0016 18.1931 50.8584 18.0929Z" fill="#565387"/>
<path id="Vector_61" d="M50.771 17.5546C50.9076 17.8017 52.1866 18.0765 52.7077 18.1791C52.8163 18.1466 52.9195 18.0982 53.014 18.0354C52.2699 18.0264 51.5388 17.8388 50.8823 17.4883C50.8436 17.5076 50.8064 17.5298 50.771 17.5546Z" fill="#565387"/>
<path id="Vector_62" opacity="0.35" d="M52.4003 14.6049C52.4792 14.6783 52.4547 14.8015 52.446 14.9065C52.4314 15.1029 52.4816 15.2987 52.589 15.4639C52.6553 15.5657 52.7469 15.67 52.7311 15.79C52.7153 15.91 52.5889 15.9913 52.5226 16.0979C52.461 16.2132 52.4423 16.3466 52.4697 16.4745C52.4895 16.6024 52.5289 16.7279 52.5392 16.8566C52.5437 16.8861 52.5404 16.9163 52.5297 16.9442C52.5135 16.9714 52.4921 16.995 52.4666 17.0137C52.4244 17.0516 52.3892 17.0965 52.3624 17.1464C52.3491 17.1768 52.3312 17.205 52.3095 17.23C52.2907 17.2468 52.269 17.2599 52.2455 17.2687C52.0697 17.3334 51.8766 17.3334 51.7007 17.2687C51.5262 17.2051 51.3598 17.1211 51.2049 17.0185C51.161 16.9953 51.1216 16.9643 51.0889 16.9269C51.0518 16.8715 51.0323 16.8063 51.0328 16.7398C51.0257 16.5969 51.0526 16.4532 51.0328 16.311C51.0028 16.1649 50.9613 16.0213 50.9089 15.8816C50.8319 15.6082 50.8432 15.3175 50.9412 15.051C50.9766 14.9391 51.0428 14.8395 51.1323 14.7636C51.3313 14.612 51.621 14.6736 51.8515 14.5757C52.0244 14.5062 52.2416 14.4494 52.4003 14.6049Z" fill="#FFD865"/>
</g>
<g id="Group_4" opacity="0.6">
<path id="Vector_63" d="M57.0193 1.7606C56.9008 1.85777 56.8084 1.98293 56.7504 2.12476C56.6923 2.26659 56.6705 2.42064 56.6869 2.57301C56.7951 3.57727 57.1204 5.86133 57.9312 7.14744C57.9791 7.22376 58.0291 7.29666 58.0812 7.36614H62.4638C62.4638 7.36614 63.3575 4.03992 63.4167 2.57617C63.4236 2.40717 63.3916 2.23885 63.3231 2.08418C63.2547 1.92951 63.1517 1.79261 63.022 1.68402C62.3651 1.13846 60.8232 -0.0529113 59.9484 0.0260399H59.931C59.931 0.0260399 59.5947 -0.350558 57.0193 1.7606Z" fill="#D6DBE6"/>
<path id="Vector_64" opacity="0.05" d="M56.6866 2.57201C56.7948 3.57627 57.1201 5.86033 57.9309 7.14644C58.1054 7.22539 58.2838 7.29566 58.4607 7.36514C59.566 7.797 60.6105 8.05201 60.4416 7.36514C60.403 7.22937 60.3462 7.09948 60.2726 6.97906C59.2676 5.2303 59.7326 1.41695 59.9458 0.0313585H59.9284C59.9284 0.0313585 59.5952 -0.349186 57.0198 1.76197C56.9015 1.85883 56.8092 1.98356 56.751 2.12495C56.6929 2.26634 56.6707 2.41996 56.6866 2.57201Z" fill="black"/>
<path id="Vector_65" d="M58.0547 7.24927C58.0547 7.44192 58.2189 7.61956 58.496 7.76325C58.6857 7.85735 58.8858 7.92889 59.0921 7.97642C59.4803 8.06688 59.8778 8.11113 60.2764 8.10826C60.7555 8.11428 61.2328 8.04773 61.692 7.91089C61.8795 7.85476 62.0578 7.77122 62.2209 7.66298C62.3946 7.54061 62.4941 7.40007 62.4941 7.25006C62.4941 7.03137 62.2833 6.83241 61.9367 6.68083C61.8809 6.65609 61.8214 6.63293 61.7583 6.61135C61.2797 6.45857 60.7795 6.38444 60.2772 6.39186C59.5729 6.39186 58.946 6.51898 58.5402 6.71714C58.472 6.75011 58.4063 6.78811 58.3436 6.83083C58.1581 6.954 58.0547 7.0969 58.0547 7.24927Z" fill="#D6DBE6"/>
<path id="Vector_66" opacity="0.1" d="M58.0127 7.24927C58.0127 7.44192 58.1769 7.61956 58.454 7.76325C58.6437 7.85735 58.8438 7.92889 59.0501 7.97642C59.4383 8.06688 59.8358 8.11113 60.2344 8.10826C60.7135 8.11428 61.1908 8.04773 61.65 7.91089C61.8376 7.85476 62.0158 7.77122 62.179 7.66298C62.3526 7.54061 62.4521 7.40007 62.4521 7.25006C62.4521 7.03137 62.2413 6.83241 61.8947 6.68083C61.8389 6.65609 61.7795 6.63293 61.7163 6.61135C61.2377 6.45857 60.7375 6.38444 60.2352 6.39186C59.5309 6.39186 58.9041 6.51898 58.4982 6.71714C58.43 6.75011 58.3643 6.78811 58.3017 6.83083C58.1153 6.954 58.0127 7.0969 58.0127 7.24927Z" fill="black"/>
<path id="Vector_67" d="M60.6934 7.48136C60.7596 7.3614 60.7806 7.22171 60.7526 7.0876C60.7247 6.95348 60.6496 6.83382 60.541 6.75027C60.541 6.75027 60.3894 6.5679 60.4826 6.4021C60.4826 6.4021 59.7081 6.9137 60.1028 7.50189L60.6934 7.48136Z" fill="#FFD865"/>
<path id="Vector_68" d="M60.5016 7.50031C60.5314 7.44628 60.5408 7.38337 60.5282 7.32298C60.5156 7.26259 60.4818 7.2087 60.4329 7.17109C60.4149 7.14947 60.403 7.12344 60.3984 7.09568C60.3938 7.06792 60.3968 7.03944 60.4069 7.01318C60.4069 7.01318 60.0579 7.24372 60.2363 7.50821L60.5016 7.50031Z" fill="#FFD865"/>
<path id="Vector_69" opacity="0.1" d="M60.5016 7.50031C60.5314 7.44628 60.5408 7.38337 60.5282 7.32298C60.5156 7.26259 60.4818 7.2087 60.4329 7.17109C60.4149 7.14947 60.403 7.12344 60.3984 7.09568C60.3938 7.06792 60.3968 7.03944 60.4069 7.01318C60.4069 7.01318 60.0579 7.24372 60.2363 7.50821L60.5016 7.50031Z" fill="black"/>
<path id="Vector_70" d="M58.4966 7.76201C58.6863 7.85611 58.8863 7.92765 59.0927 7.97518C59.7243 7.82833 61.5402 7.3562 61.9349 6.67958C61.8791 6.65485 61.8196 6.63169 61.7565 6.61011C61.5007 6.90617 60.4735 7.93175 58.4966 7.76201Z" fill="#565387"/>
<path id="Vector_71" d="M58.335 6.82884C58.5718 7.25596 60.7824 7.73204 61.6849 7.90968C61.8724 7.85355 62.0507 7.77001 62.2138 7.66177C60.9283 7.64502 59.6655 7.32013 58.5315 6.71436C58.4633 6.74757 58.3976 6.78584 58.335 6.82884Z" fill="#565387"/>
<path id="Vector_72" opacity="0.35" d="M61.1513 1.72568C61.2815 1.85358 61.2452 2.06517 61.2302 2.24676C61.2049 2.58647 61.2917 2.92511 61.4773 3.21075C61.5926 3.38681 61.7513 3.56682 61.7229 3.77525C61.6945 3.98369 61.4773 4.12343 61.3621 4.30738C61.2468 4.49134 61.2373 4.73767 61.2713 4.95952C61.3052 5.18137 61.3739 5.3977 61.3913 5.62113C61.399 5.67224 61.3933 5.72448 61.3747 5.77272C61.3465 5.81963 61.3092 5.86042 61.265 5.89272C61.1919 5.95805 61.1308 6.03551 61.0842 6.12168C61.0612 6.17447 61.0303 6.22345 60.9926 6.26695C60.9602 6.29595 60.9227 6.31871 60.882 6.33406C60.586 6.4588 60.2449 6.4367 59.9394 6.3388C59.6375 6.22882 59.3497 6.0836 59.082 5.90615C59.006 5.86623 58.938 5.81271 58.8814 5.74824C58.8174 5.65222 58.7839 5.53914 58.7851 5.42375C58.7725 5.17664 58.8191 4.92794 58.7898 4.68161C58.7606 4.43529 58.6461 4.18738 58.5759 3.93947C58.4425 3.46664 58.4618 2.96375 58.6311 2.50256C58.6921 2.30898 58.8065 2.13656 58.9612 2.00517C59.3054 1.74305 59.8059 1.84727 60.2046 1.68068C60.5031 1.55436 60.8781 1.45646 61.1513 1.72568Z" fill="#FFD865"/>
</g>
<path id="Vector_73" d="M34.7544 8.21352C34.5552 8.37674 34.3998 8.58701 34.3022 8.82533C34.2046 9.06365 34.1679 9.32253 34.1954 9.57859C34.377 11.2658 34.9225 15.1052 36.2852 17.2629C36.3663 17.3913 36.4502 17.5134 36.5371 17.6292H43.8993C43.8993 17.6292 45.3994 12.0442 45.5004 9.58332C45.512 9.29876 45.4577 9.01536 45.3419 8.75519C45.226 8.49501 45.0517 8.26507 44.8325 8.08325C43.7272 7.16663 41.1392 5.16916 39.6691 5.3018H39.6391C39.6391 5.3018 39.0801 4.66782 34.7544 8.21352Z" fill="#D6DBE6"/>
<path id="Vector_74" opacity="0.05" d="M34.1961 9.57839C34.3777 11.2656 34.9233 15.105 36.2859 17.2627C36.5789 17.389 36.8781 17.513 37.1749 17.6291C39.0256 18.3546 40.787 18.7825 40.5019 17.6291C40.4373 17.4011 40.342 17.1831 40.2185 16.9809C38.5297 14.0439 39.3106 7.63856 39.6658 5.30397H39.6358C39.6358 5.30397 39.0761 4.66447 34.7503 8.21017C34.5515 8.3742 34.3967 8.5852 34.3 8.8241C34.2032 9.06299 34.1675 9.32224 34.1961 9.57839Z" fill="black"/>
<path id="Vector_75" d="M36.4941 17.4324C36.4941 17.7561 36.7697 18.0554 37.2347 18.2954C37.5533 18.4533 37.8893 18.5733 38.2358 18.653C38.8859 18.8044 39.5516 18.8786 40.2191 18.8741C41.1231 18.8741 41.9512 18.7493 42.5963 18.5425C42.9115 18.4481 43.2111 18.3076 43.4853 18.1256C43.7774 17.9196 43.944 17.6835 43.944 17.4316C43.944 17.0653 43.5903 16.7298 43.0076 16.4755C42.9134 16.4345 42.8134 16.3955 42.7076 16.3587C42.0484 16.1289 41.176 15.99 40.2191 15.99C39.0348 15.99 37.9824 16.2032 37.2979 16.5363C37.183 16.5915 37.0725 16.6551 36.9671 16.7266C36.6663 16.9358 36.4941 17.1766 36.4941 17.4324Z" fill="#D6DBE6"/>
<path id="Vector_76" opacity="0.1" d="M36.4136 17.4324C36.4136 17.7561 36.6891 18.0554 37.1541 18.2954C37.4727 18.4533 37.8087 18.5733 38.1552 18.653C38.8053 18.8044 39.471 18.8786 40.1385 18.8741C41.0425 18.8741 41.8707 18.7493 42.5157 18.5425C42.831 18.4481 43.1305 18.3076 43.4047 18.1256C43.6968 17.9196 43.8634 17.6835 43.8634 17.4316C43.8634 17.0653 43.5097 16.7298 42.927 16.4755C42.8328 16.4345 42.7328 16.3955 42.627 16.3587C41.9678 16.1289 41.0954 15.99 40.1385 15.99C38.9542 15.99 37.9018 16.2032 37.2173 16.5363C37.1025 16.5915 36.9919 16.6551 36.8865 16.7266C36.5857 16.9358 36.4136 17.1766 36.4136 17.4324Z" fill="black"/>
<path id="Vector_77" d="M40.9318 17.8237C40.9318 17.8237 41.3312 17.1637 40.676 16.5952C40.676 16.5952 40.4217 16.2889 40.5773 16.011C40.5773 16.011 39.2761 16.87 39.9393 17.8584L40.9318 17.8237Z" fill="#FFD865"/>
<path id="Vector_78" d="M40.6073 17.8563C40.6572 17.7656 40.6731 17.66 40.652 17.5587C40.6308 17.4573 40.5741 17.3668 40.492 17.3037C40.492 17.3037 40.3775 17.1655 40.4478 17.0408C40.4478 17.0408 39.862 17.4276 40.1604 17.8721L40.6073 17.8563Z" fill="#FFD865"/>
<path id="Vector_79" opacity="0.1" d="M40.6073 17.8563C40.6572 17.7656 40.6731 17.66 40.652 17.5587C40.6308 17.4573 40.5741 17.3668 40.492 17.3037C40.492 17.3037 40.3775 17.1655 40.4478 17.0408C40.4478 17.0408 39.862 17.4276 40.1604 17.8721L40.6073 17.8563Z" fill="black"/>
<path id="Vector_80" d="M37.2402 18.2957C37.5588 18.4537 37.8948 18.5737 38.2413 18.6534C39.3032 18.4071 42.3468 17.6136 43.0124 16.4767C42.9181 16.4357 42.8181 16.3967 42.7123 16.3599C42.2852 16.8588 40.5562 18.5808 37.2402 18.2957Z" fill="#565387"/>
<path id="Vector_81" d="M36.9648 16.7264C37.3596 17.4441 41.0774 18.2431 42.5917 18.5423C42.907 18.4479 43.2065 18.3074 43.4807 18.1254C41.3216 18.0979 39.2006 17.5529 37.2956 16.5361C37.1808 16.5913 37.0702 16.6549 36.9648 16.7264Z" fill="#565387"/>
<path id="Vector_82" opacity="0.35" d="M41.7018 8.15533C41.9205 8.36929 41.8597 8.72615 41.836 9.0309C41.7935 9.60156 41.9394 10.1704 42.2513 10.6502C42.4447 10.9463 42.7124 11.2486 42.6634 11.5976C42.6145 11.9466 42.2505 12.1826 42.0571 12.4921C41.8636 12.8016 41.8478 13.2153 41.9039 13.588C41.96 13.9606 42.076 14.3238 42.106 14.6988C42.1189 14.7848 42.1091 14.8727 42.0776 14.9538C42.0313 15.0325 41.9698 15.1012 41.8968 15.1559C41.7741 15.2656 41.6712 15.3957 41.5928 15.5404C41.5542 15.6291 41.5023 15.7113 41.4389 15.7844C41.3843 15.8332 41.3211 15.8715 41.2526 15.8973C40.756 16.1065 40.1828 16.0694 39.6688 15.9044C39.1548 15.7394 38.689 15.4575 38.2287 15.1772C38.1009 15.1097 37.9866 15.0193 37.8916 14.9104C37.7838 14.7493 37.7271 14.5594 37.729 14.3656C37.7076 13.9503 37.7866 13.5319 37.7369 13.119C37.6847 12.6887 37.4961 12.2884 37.3768 11.8716C37.1531 11.0776 37.1857 10.2332 37.47 9.45881C37.5876 9.14301 37.755 8.8272 38.0227 8.6243C38.6014 8.18375 39.4438 8.36139 40.1117 8.07875C40.6099 7.86795 41.2391 7.70215 41.7018 8.15533Z" fill="#FFD865"/>
<path id="Vector_83" d="M36.1551 60.5833C36.6754 60.8778 37.9607 60.6559 38.7605 60.4743C38.8375 60.4571 38.9091 60.4214 38.9691 60.3702C39.0291 60.319 39.0757 60.2539 39.1048 60.1806C39.1339 60.1072 39.1447 60.0279 39.1361 59.9495C39.1276 59.8711 39.1 59.7959 39.0557 59.7306L38.8386 59.4093L38.7549 59.3966H38.8291L39.6439 55.9015C40.1176 54.3224 39.8539 53.1161 39.6439 52.1702C39.5437 51.7178 39.7797 50.7128 40.0529 49.7875C40.5045 49.9833 40.9506 50.1317 41.3256 50.1736C41.5577 50.1996 41.8135 50.2249 42.0811 50.2446C42.3685 51.0002 42.618 51.6657 42.6393 51.7502C42.978 53.105 44.636 53.7469 44.636 53.7469L48.8662 58.5558C48.8662 58.5558 48.6033 59.2387 48.0767 59.4495C48.0767 59.4495 46.763 59.7653 47.603 60.0811C48.1643 60.2919 49.4055 59.8695 50.1681 59.5656C50.2407 59.5366 50.3051 59.4903 50.3557 59.4307C50.4064 59.3712 50.4418 59.3002 50.4588 59.2239C50.4758 59.1476 50.474 59.0684 50.4535 58.9929C50.433 58.9175 50.3944 58.8482 50.341 58.7911L50.0734 58.5045H50.0489L48.7328 55.6915C48.5749 54.9019 47.104 52.696 46.2063 52.2752C45.6853 52.0305 45.2368 50.8928 44.9518 49.9856C45.356 49.8464 45.7162 49.6026 45.9956 49.279C46.9943 48.0703 47.4167 48.7532 49.3589 48.2803C51.8253 47.6803 50.8779 45.9907 50.5881 45.9836C49.272 45.3804 45.8511 42.2192 45.4989 41.8955C45.5645 41.8624 45.6008 41.8418 45.6008 41.8418L45.4745 41.8726L45.4697 41.8679C45.4111 41.6327 45.334 41.4025 45.2392 41.1794C45.4007 41.319 45.5714 41.4477 45.75 41.5647C46.3619 41.9642 47.1301 42.2271 47.8248 41.9997L47.8083 41.9816C47.8485 41.9713 47.8872 41.9603 47.9299 41.9476C47.5207 41.502 47.2696 40.934 47.2153 40.3315C47.5537 40.2749 47.8808 40.1643 48.1841 40.0038C49.3881 39.4243 50.255 38.1232 50.2092 36.7755C50.1918 36.2608 50.0592 35.7381 50.1784 35.2376C50.2897 34.7733 50.4018 34.5862 50.4887 34.1172C50.7516 32.6961 51.0145 32.9614 50.7776 31.8955C50.656 31.3484 50.0094 31.0721 49.7205 30.5921C49.2981 29.8902 49.2847 29.028 49.1678 28.2164C49.051 27.4048 48.7604 26.5213 48.0341 26.1432C46.9982 25.6031 46.279 24.2862 45.2447 24.4433C45.1895 24.452 45.1342 24.4583 45.0797 24.4639C44.688 24.2454 44.241 24.1458 43.7936 24.1773C43.5291 24.197 43.2686 24.2625 43.0041 24.261C42.7141 24.2588 42.4303 24.1769 42.1838 24.0241C42.1712 24.0549 42.1609 24.0865 42.1514 24.1181C42.1269 24.1046 42.1025 24.0912 42.0788 24.0762C42.0105 24.2544 41.9835 24.4458 41.9998 24.636C41.5911 24.7366 41.2234 24.9608 40.9466 25.2779C40.8874 24.8547 40.8527 24.5855 40.8527 24.5855L40.7477 19.3826C40.7477 19.3826 41.9564 17.3298 40.8006 17.3298C39.6447 17.3298 39.6952 19.1694 39.6952 19.1694L39.3794 23.1635C39.1694 24.5847 39.3794 25.5321 39.3794 25.5321C39.9234 26.9698 40.2376 29.0975 40.3647 30.1113C38.7707 31.3176 38.3262 32.385 38.3436 33.2693C38.3239 34.178 38.7991 34.9052 39.0644 35.412C39.1292 35.5352 39.1592 35.7942 39.1615 36.1573C39.1418 39.1575 37.4617 48.3671 37.4617 48.3671L37.4791 48.3743L37.4617 48.4722L37.5493 48.5085C37.4491 48.8243 37.3401 49.1401 37.2249 49.4448C36.6469 50.9686 37.2249 52.0202 37.2249 52.0202L37.7696 59.2529L37.7246 59.2458C37.7246 59.2458 37.2699 59.9106 36.718 60.0354C36.7204 60.0338 35.3735 60.1411 36.1551 60.5833ZM43.6957 38.7264L43.691 38.7217C43.1923 38.1637 42.9139 37.4433 42.9078 36.695C42.9179 36.1595 43.0417 35.6323 43.2709 35.1483C43.4422 34.4736 43.5626 33.7869 43.631 33.094C43.6595 33.4744 43.6651 33.8562 43.6475 34.2372C43.5844 35.7421 43.3065 37.2784 43.6965 38.7264H43.6957Z" fill="url(#paint0_linear_645_8351)"/>
<path id="Vector_84" d="M43.1438 31.0964C43.597 31.863 43.5148 33.2644 42.8856 35.8271C42.8856 35.8271 42.1664 37.7796 43.6048 39.4234C45.0433 41.0671 45.3512 42.5025 45.3512 42.5025C45.3512 42.5025 49.8673 45.3005 50.4373 46.5606C49.5893 44.6855 52.3732 47.3698 49.1527 48.153C47.2524 48.6157 46.8411 47.9477 45.8652 49.1288C44.8894 50.3099 42.6803 50.1552 41.2932 50.002C39.906 49.8489 37.543 48.2043 37.543 48.2043C37.543 48.2043 40.1626 37.1598 39.5957 36.0806C39.0612 35.0597 37.1387 33.1199 40.9047 30.6077C41.6548 30.1103 42.6811 30.3203 43.1438 31.0964Z" fill="#F0898B"/>
<path id="Vector_85" d="M43.1438 31.0964C43.5969 31.863 43.5148 33.2644 42.8856 35.8271C42.8856 35.8271 42.1664 37.7796 43.6048 39.4234C45.0433 41.0671 45.3512 42.5025 45.3512 42.5025C45.3512 42.5025 49.8965 45.2879 50.4373 46.5606C49.6407 44.6855 52.3732 47.3698 49.1527 48.153C47.2524 48.6157 46.8411 47.9477 45.8652 49.1288C44.8894 50.3099 42.6803 50.1552 41.2932 50.002C39.906 49.8489 37.543 48.2043 37.543 48.2043C37.543 48.2043 40.1626 37.1598 39.5957 36.0806C39.0612 35.0597 37.1387 33.1199 40.9047 30.6077C41.6547 30.1103 42.6811 30.3203 43.1438 31.0964Z" fill="#FFDF9C"/>
<path id="Vector_86" opacity="0.03" d="M43.1438 31.0964C43.5969 31.863 43.5148 33.2644 42.8856 35.8271C42.8856 35.8271 42.1664 37.7796 43.6048 39.4234C45.0433 41.0671 45.3512 42.5025 45.3512 42.5025C45.3512 42.5025 49.8965 45.2879 50.4373 46.5606C49.6407 44.6855 52.3732 47.3698 49.1527 48.153C47.2524 48.6157 46.8411 47.9477 45.8652 49.1288C44.8894 50.3099 42.6803 50.1552 41.2932 50.002C39.906 49.8489 37.543 48.2043 37.543 48.2043C37.543 48.2043 40.1626 37.1598 39.5957 36.0806C39.0612 35.0597 37.1387 33.1199 40.9047 30.6077C41.6547 30.1103 42.6811 30.3203 43.1438 31.0964Z" fill="#F1A5C2"/>
<path id="Vector_87" d="M44.5367 48.6699C44.5367 48.6699 45.2046 51.6495 46.0778 52.06C46.951 52.4706 48.3895 54.6283 48.5435 55.3989L49.8533 58.2001H48.669L44.5335 53.4993C44.5335 53.4993 42.9127 52.8677 42.5811 51.5469C42.5298 51.3416 41.1426 47.7454 41.1426 47.7454L44.5367 48.6699Z" fill="#FEC2BE"/>
<path id="Vector_88" d="M40.6766 47.7447C40.6766 47.7447 39.4433 51.0323 39.6502 51.9576C39.857 52.8829 40.1129 54.064 39.6502 55.6051L38.8528 59.0206L37.8264 58.9692L37.2864 51.8044C37.2864 51.8044 36.7211 50.778 37.2864 49.2874C37.8517 47.7968 38.2591 45.947 38.2591 45.947L40.6766 47.7447Z" fill="#FEC2BE"/>
<path id="Vector_89" d="M40.4218 30.9479C40.4218 30.9479 40.1139 27.8144 39.3954 25.9132C39.3954 25.9132 39.1902 24.9887 39.3954 23.6015L39.7033 19.6974C39.7033 19.6974 39.652 17.8997 40.7818 17.8997C41.9116 17.8997 40.7305 19.9034 40.7305 19.9034L40.8331 24.9895C40.8331 24.9895 41.5011 30.1782 41.9629 30.7434L40.4218 30.9479Z" fill="#FEC2BE"/>
<path id="Vector_90" opacity="0.05" d="M40.4218 30.9479C40.4218 30.9479 40.1139 27.8144 39.3954 25.9132C39.3954 25.9132 39.1902 24.9887 39.3954 23.6015L39.7033 19.6974C39.7033 19.6974 39.652 17.8997 40.7818 17.8997C41.9116 17.8997 40.7305 19.9034 40.7305 19.9034L40.8331 24.9895C40.8331 24.9895 41.5011 30.1782 41.9629 30.7434L40.4218 30.9479Z" fill="black"/>
<path id="Vector_91" d="M40.6853 27.2507C40.6853 27.2507 40.8905 29.7164 40.2739 30.5383C40.2739 30.5383 41.7124 29.7677 42.9448 30.4356C42.9448 30.4356 42.1743 28.3292 42.4309 27.4047L40.6853 27.2507Z" fill="#FEC2BE"/>
<path id="Vector_92" d="M43.1477 30.4809C43.6009 31.2475 43.8275 32.6489 43.1983 35.2116C43.1983 35.2116 42.1719 37.1641 43.6096 38.8079C45.0473 40.4516 45.356 41.887 45.356 41.887C45.356 41.887 49.1575 45.4319 50.442 45.9451C50.442 45.9451 51.0586 47.0749 49.1575 47.5375C47.2564 48.0002 46.8458 47.3322 45.87 48.5134C44.8941 49.6945 42.6851 49.5397 41.2979 49.3866C39.9107 49.2334 37.5225 48.2307 37.5225 48.2307C37.5225 48.2307 39.6541 36.5459 39.0896 35.4651C38.5551 34.4442 37.1467 32.5044 40.9118 29.9922C41.6587 29.4948 42.6851 29.7048 43.1477 30.4809Z" fill="#FFDF9C"/>
<path id="Vector_93" d="M41.6019 33.4642C42.5664 33.4642 43.3483 32.6824 43.3483 31.7178C43.3483 30.7533 42.5664 29.9714 41.6019 29.9714C40.6374 29.9714 39.8555 30.7533 39.8555 31.7178C39.8555 32.6824 40.6374 33.4642 41.6019 33.4642Z" fill="#FEC2BE"/>
<path id="Vector_94" opacity="0.1" d="M42.2216 32.4366L42.5808 37.8306L41.3965 43.5845C41.3965 43.5845 42.475 47.386 41.3965 47.026C40.3181 46.666 40.2667 43.5324 40.2667 43.5324L40.986 37.5219C40.986 37.5219 40.1128 33.0011 40.2667 32.0742C40.4207 31.1473 42.2216 32.4366 42.2216 32.4366Z" fill="black"/>
<path id="Vector_95" d="M42.2216 32.3348L42.5808 37.7288L41.3965 43.4827C41.3965 43.4827 42.475 47.2842 41.3965 46.9242C40.3181 46.5642 40.2667 43.4306 40.2667 43.4306L40.986 37.4201C40.986 37.4201 40.1128 32.8993 40.2667 31.9724C40.4207 31.0455 42.2216 32.3348 42.2216 32.3348Z" fill="#FEC2BE"/>
<path id="Vector_96" opacity="0.03" d="M42.4514 28.9179C41.7243 28.9179 41.0627 28.7103 40.7145 28.1284C40.7098 27.6745 40.6821 27.3484 40.6821 27.3484L42.4285 27.5063C42.318 27.901 42.3788 28.2421 42.5075 28.8161C42.4704 28.8169 42.4838 28.9179 42.4514 28.9179Z" fill="black"/>
<path id="Vector_97" d="M42.432 28.9958C43.5387 28.9958 44.4358 28.0987 44.4358 26.9921C44.4358 25.8854 43.5387 24.9883 42.432 24.9883C41.3253 24.9883 40.4282 25.8854 40.4282 26.9921C40.4282 28.0987 41.3253 28.9958 42.432 28.9958Z" fill="#FEC2BE"/>
<path id="Vector_98" opacity="0.03" d="M40.2413 34.7236C40.2413 34.7236 40.0834 35.4942 39.0854 35.5716L40.2413 34.7236Z" fill="black"/>
<path id="Vector_99" opacity="0.03" d="M45.5658 48.5159C46.5417 47.3317 46.953 48.002 48.8534 47.5401C50.7537 47.0782 50.1379 45.9476 50.1379 45.9476C48.8534 45.4337 45.0519 41.8896 45.0519 41.8896C45.0519 41.8896 44.744 40.4511 43.3055 38.8105C41.867 37.1699 42.8941 35.2142 42.8941 35.2142C43.5257 32.6523 43.2976 31.2501 42.8436 30.4835C42.7187 30.2733 42.5458 30.0958 42.3389 29.9656C42.1321 29.8353 41.8973 29.756 41.6538 29.7342C41.9493 29.703 42.2475 29.7569 42.5133 29.8897C42.7791 30.0224 43.0014 30.2285 43.1539 30.4835C43.6071 31.2501 43.8337 32.6515 43.2044 35.2142C43.2044 35.2142 42.178 37.1667 43.6157 38.8105C45.0534 40.4542 45.3621 41.8896 45.3621 41.8896C45.3621 41.8896 49.1637 45.4345 50.4482 45.9476C50.4482 45.9476 51.0648 47.0774 49.1637 47.5401C47.2625 48.0027 46.852 47.3348 45.8761 48.5159C45.2011 49.3331 43.9371 49.5115 42.7623 49.4926C43.8423 49.4752 44.95 49.262 45.5658 48.5159Z" fill="#F1A5C2"/>
<path id="Vector_100" opacity="0.1" d="M41.6992 29.3161C41.7639 29.1724 41.9021 29.0793 42.0063 28.9601C42.345 28.5756 42.2866 27.9992 42.3063 27.4868C42.3263 26.9974 42.4358 26.5158 42.6292 26.0657C42.508 26.0056 42.3978 25.9255 42.3031 25.8289C42.139 25.6541 42.0274 25.4366 41.9809 25.2014C41.9344 24.9662 41.955 24.7226 42.0402 24.4985C42.2815 24.6461 42.5588 24.7244 42.8416 24.7251C43.1006 24.7251 43.3556 24.6628 43.6145 24.6462C44.0521 24.6154 44.4891 24.7128 44.8722 24.9264C44.9259 24.9209 44.9796 24.9146 45.0301 24.9059C46.0415 24.7528 46.7442 26.0405 47.7563 26.5678C48.4669 26.9381 48.7535 27.8019 48.8616 28.5945C48.9698 29.3872 48.9864 30.2304 49.3985 30.9165C49.6811 31.3854 50.3135 31.6563 50.432 32.1908C50.6633 33.2329 50.4067 32.9755 50.1501 34.3627C50.0648 34.8214 49.9551 35.0046 49.8469 35.4578C49.7301 35.9472 49.8596 36.4581 49.8769 36.9578C49.933 38.6095 48.5869 40.1909 46.9471 40.3985C46.9954 41.002 47.2457 41.5717 47.6576 42.0154C46.9786 42.2381 46.2278 41.9807 45.6294 41.5899C44.6593 40.9505 43.9503 39.9848 43.6311 38.8677C43.2277 37.4355 43.5056 35.9133 43.5695 34.4266C43.6335 32.94 43.399 31.2868 42.2684 30.3212C41.9494 30.0496 41.5294 29.6943 41.6992 29.3161Z" fill="black"/>
<path id="Vector_101" d="M41.8003 29.2651C41.865 29.1214 42.0032 29.0283 42.1074 28.909C42.4461 28.5245 42.3877 27.9482 42.4074 27.4358C42.4275 26.9464 42.5369 26.4647 42.7303 26.0147C42.6091 25.9546 42.4989 25.8745 42.4043 25.7778C42.2402 25.603 42.1285 25.3856 42.082 25.1504C42.0355 24.9152 42.0561 24.6716 42.1414 24.4475C42.3823 24.5971 42.6599 24.6774 42.9435 24.6796C43.2025 24.6796 43.4575 24.6173 43.7164 24.6007C44.1527 24.5687 44.5888 24.6641 44.9718 24.8754C45.0255 24.8699 45.0791 24.8636 45.1297 24.8549C46.141 24.7017 46.8437 25.9894 47.8559 26.5168C48.5664 26.8871 48.853 27.7508 48.9612 28.5435C49.0693 29.3362 49.0859 30.1794 49.498 30.8654C49.7807 31.3344 50.4131 31.6052 50.5315 32.1397C50.7628 33.1819 50.5062 32.9245 50.2497 34.3117C50.1644 34.7704 50.0546 34.9535 49.9465 35.4067C49.8296 35.8962 49.9591 36.407 49.9765 36.9068C50.0325 38.5585 48.6864 40.1398 47.0466 40.3475C47.0929 40.9494 47.3401 41.5183 47.7485 41.9628C47.0695 42.1855 46.3187 41.9281 45.7202 41.5373C44.7485 40.8979 44.0383 39.9311 43.7188 38.8127C43.3154 37.3805 43.5933 35.8583 43.6572 34.3717C43.7212 32.885 43.4867 31.2318 42.3561 30.2662C42.0506 29.9986 41.6306 29.6433 41.8003 29.2651Z" fill="#AF637C"/>
<path id="Vector_102" d="M48.6622 58.2012C48.6622 58.2012 48.4056 58.8691 47.8916 59.0744C47.8916 59.0744 46.6071 59.3823 47.429 59.691C47.9816 59.8971 49.1904 59.4842 49.9365 59.1873C50.0068 59.1583 50.0691 59.1127 50.1181 59.0544C50.1671 58.9962 50.2013 58.927 50.2179 58.8527C50.2344 58.7784 50.2329 58.7012 50.2133 58.6277C50.1937 58.5541 50.1567 58.4864 50.1054 58.4302L49.8441 58.1499L48.6622 58.2012Z" fill="#4C4981"/>
<path id="Vector_103" d="M37.7798 58.8669C37.7798 58.8669 37.3353 59.5167 36.796 59.6399C36.796 59.6399 35.4791 59.7449 36.2434 60.1767C36.7518 60.4641 38.0087 60.2478 38.7919 60.0702C38.8671 60.0532 38.937 60.0181 38.9955 59.968C39.0541 59.9179 39.0995 59.8543 39.1279 59.7826C39.1563 59.711 39.1668 59.6335 39.1584 59.5569C39.1501 59.4803 39.1232 59.4069 39.0801 59.343L38.8677 59.0272L37.7798 58.8669Z" fill="#4C4981"/>
<path id="Vector_104" opacity="0.03" d="M45.4779 41.864C45.4779 41.864 44.2936 42.5319 42.9609 42.4806L45.4779 41.864Z" fill="black"/>
<path id="Vector_105" d="M51.9263 60.7765C51.7423 60.6052 51.5694 60.4031 51.5157 60.1575C51.462 59.912 51.567 59.6167 51.8023 59.5259C52.0652 59.4249 52.3471 59.6049 52.5602 59.792C52.7734 59.9791 53.0182 60.1867 53.2969 60.1473C53.1533 60.0171 53.0459 59.8519 52.9852 59.6679C52.9245 59.4839 52.9124 59.2873 52.9503 59.0972C52.9625 59.0188 52.9958 58.9451 53.0466 58.8841C53.1926 58.7262 53.4579 58.7948 53.6324 58.918C54.1851 59.3128 54.343 60.0652 54.3469 60.7457C54.403 60.5002 54.3556 60.2444 54.3572 59.9925C54.3587 59.7407 54.4274 59.462 54.6398 59.3262C54.7733 59.2547 54.9235 59.2201 55.0748 59.2259C55.3251 59.2164 55.6038 59.2417 55.7743 59.4249C55.9867 59.6523 55.9322 60.0336 55.7467 60.2839C55.5612 60.5341 55.2809 60.6912 55.0227 60.8642C54.8155 60.9877 54.6387 61.1564 54.5056 61.3576C54.4898 61.3857 54.4769 61.4153 54.4669 61.446H52.8958C52.5439 61.2676 52.2177 61.0424 51.9263 60.7765Z" fill="#6C63FF"/>
<path id="Vector_106" d="M66.3074 48.3833C66.3074 48.3833 72.1759 52.6553 60.2629 57.4192C60.2629 57.4192 58.1526 52.5322 61.2632 48.9659C61.8673 48.2706 62.7054 47.821 63.6187 47.7023C64.5321 47.5836 65.4573 47.8039 66.219 48.3217L66.3074 48.3833Z" fill="#6C63FF"/>
<path id="Vector_107" d="M66.239 48.2966C66.239 48.2966 60.5885 51.8921 60.2593 57.4171" stroke="#535461" stroke-miterlimit="10"/>
<path id="Vector_108" d="M60.1343 56.7796C60.1343 56.7796 62.082 50.1666 59.7687 45.2993C58.7976 43.2568 58.4755 40.9633 58.9239 38.7463C59.1384 37.6938 59.4489 36.6631 59.8516 35.6672" stroke="#535461" stroke-width="2" stroke-miterlimit="10"/>
<path id="Vector_109" d="M58.4224 32.596C58.4224 33.4068 59.8901 35.7541 59.8901 35.7541C59.8901 35.7541 61.3578 33.4037 61.3578 32.596C61.3489 32.2128 61.1904 31.8482 60.9162 31.5803C60.642 31.3124 60.2738 31.1624 59.8905 31.1624C59.5071 31.1624 59.1389 31.3124 58.8647 31.5803C58.5905 31.8482 58.432 32.2128 58.4232 32.596H58.4224Z" fill="#6C63FF"/>
<path id="Vector_110" d="M55.99 37.0858C56.4305 37.7663 58.9396 38.9411 58.9396 38.9411C58.9396 38.9411 58.8938 36.1707 58.4532 35.4902C58.2371 35.1741 57.9061 34.955 57.5307 34.8796C57.1554 34.8042 56.7654 34.8784 56.444 35.0865C56.1226 35.2946 55.8952 35.62 55.8104 35.9934C55.7256 36.3667 55.79 36.7585 55.99 37.085V37.0858Z" fill="#6C63FF"/>
<path id="Vector_111" d="M56.1019 44.7564C56.8259 45.1212 59.5844 44.8693 59.5844 44.8693C59.5844 44.8693 58.1467 42.5008 57.4227 42.136C57.0763 41.9699 56.6786 41.9462 56.3149 42.0701C55.9512 42.1939 55.6506 42.4554 55.4776 42.7985C55.3045 43.1415 55.2729 43.5387 55.3895 43.9048C55.5061 44.2708 55.7616 44.5766 56.1011 44.7564H56.1019Z" fill="#6C63FF"/>
<path id="Vector_112" d="M57.4876 50.5428C58.139 51.0244 60.9015 51.2423 60.9015 51.2423C60.9015 51.2423 59.8846 48.6653 59.2332 48.1829C59.0784 48.0665 58.9021 47.9818 58.7144 47.9339C58.5267 47.8859 58.3313 47.8756 58.1396 47.9035C57.9479 47.9314 57.7636 47.997 57.5974 48.0964C57.4312 48.1959 57.2863 48.3273 57.171 48.4831C57.0558 48.6388 56.9726 48.8158 56.9261 49.0039C56.8797 49.192 56.8709 49.3874 56.9003 49.5789C56.9298 49.7703 56.9968 49.9541 57.0976 50.1195C57.1984 50.285 57.331 50.4288 57.4876 50.5428Z" fill="#6C63FF"/>
<path id="Vector_113" d="M62.0218 39.0988C61.4407 39.6633 58.7319 40.2483 58.7319 40.2483C58.7319 40.2483 59.3951 37.5584 59.9762 36.9932C60.1145 36.8588 60.2778 36.7531 60.457 36.6819C60.6361 36.6107 60.8275 36.5755 61.0202 36.5783C61.213 36.5811 61.4033 36.6218 61.5803 36.6981C61.7573 36.7745 61.9175 36.8849 62.0518 37.0232C62.1861 37.1614 62.2919 37.3248 62.3631 37.5039C62.4343 37.683 62.4695 37.8744 62.4667 38.0672C62.4639 38.2599 62.4232 38.4502 62.3469 38.6272C62.2705 38.8042 62.1601 38.9645 62.0218 39.0988Z" fill="#6C63FF"/>
<path id="Vector_114" d="M63.5655 45.8842C62.8416 46.249 60.083 45.9971 60.083 45.9971C60.083 45.9971 61.5207 43.6286 62.2447 43.2638C62.4173 43.1713 62.6067 43.1142 62.8017 43.096C62.9967 43.0777 63.1934 43.0987 63.3802 43.1577C63.567 43.2167 63.74 43.3125 63.8892 43.4394C64.0384 43.5663 64.1607 43.7218 64.2489 43.8967C64.337 44.0716 64.3893 44.2623 64.4026 44.4578C64.4159 44.6532 64.3899 44.8493 64.3262 45.0345C64.2625 45.2197 64.1624 45.3903 64.0318 45.5362C63.9011 45.6822 63.7426 45.8005 63.5655 45.8842Z" fill="#6C63FF"/>
<path id="Vector_115" d="M64.1521 52.6888C63.5008 53.1704 60.7383 53.3883 60.7383 53.3883C60.7383 53.3883 61.7552 50.8113 62.4065 50.3289C62.7197 50.1011 63.1101 50.0063 63.4929 50.0651C63.8756 50.124 64.2196 50.3317 64.4499 50.643C64.6801 50.9543 64.7781 51.344 64.7223 51.7272C64.6665 52.1104 64.4616 52.456 64.1521 52.6888Z" fill="#6C63FF"/>
<path id="Vector_116" opacity="0.25" d="M58.4224 32.596C58.4224 33.4068 59.8901 35.7541 59.8901 35.7541C59.8901 35.7541 61.3578 33.4037 61.3578 32.596C61.3489 32.2128 61.1904 31.8482 60.9162 31.5803C60.642 31.3124 60.2738 31.1624 59.8905 31.1624C59.5071 31.1624 59.1389 31.3124 58.8647 31.5803C58.5905 31.8482 58.432 32.2128 58.4232 32.596H58.4224Z" fill="black"/>
<path id="Vector_117" opacity="0.25" d="M55.99 37.0858C56.4305 37.7663 58.9396 38.9411 58.9396 38.9411C58.9396 38.9411 58.8938 36.1707 58.4532 35.4902C58.2371 35.1741 57.9061 34.955 57.5307 34.8796C57.1554 34.8042 56.7654 34.8784 56.444 35.0865C56.1226 35.2946 55.8952 35.62 55.8104 35.9934C55.7256 36.3667 55.79 36.7585 55.99 37.085V37.0858Z" fill="black"/>
<path id="Vector_118" opacity="0.25" d="M56.1019 44.7564C56.8259 45.1212 59.5844 44.8693 59.5844 44.8693C59.5844 44.8693 58.1467 42.5008 57.4227 42.136C57.0763 41.9699 56.6786 41.9462 56.3149 42.0701C55.9512 42.1939 55.6506 42.4554 55.4776 42.7985C55.3045 43.1415 55.2729 43.5387 55.3895 43.9048C55.5061 44.2708 55.7616 44.5766 56.1011 44.7564H56.1019Z" fill="black"/>
<path id="Vector_119" opacity="0.25" d="M57.4876 50.5428C58.139 51.0244 60.9015 51.2423 60.9015 51.2423C60.9015 51.2423 59.8846 48.6653 59.2332 48.1829C59.0784 48.0665 58.9021 47.9818 58.7144 47.9339C58.5267 47.8859 58.3313 47.8756 58.1396 47.9035C57.9479 47.9314 57.7636 47.997 57.5974 48.0964C57.4312 48.1959 57.2863 48.3273 57.171 48.4831C57.0558 48.6388 56.9726 48.8158 56.9261 49.0039C56.8797 49.192 56.8709 49.3874 56.9003 49.5789C56.9298 49.7703 56.9968 49.9541 57.0976 50.1195C57.1984 50.285 57.331 50.4288 57.4876 50.5428Z" fill="black"/>
<path id="Vector_120" opacity="0.25" d="M62.0218 39.0988C61.4407 39.6633 58.7319 40.2483 58.7319 40.2483C58.7319 40.2483 59.3951 37.5584 59.9762 36.9932C60.1145 36.8588 60.2778 36.7531 60.457 36.6819C60.6361 36.6107 60.8275 36.5755 61.0202 36.5783C61.213 36.5811 61.4033 36.6218 61.5803 36.6981C61.7573 36.7745 61.9175 36.8849 62.0518 37.0232C62.1861 37.1614 62.2919 37.3248 62.3631 37.5039C62.4343 37.683 62.4695 37.8744 62.4667 38.0672C62.4639 38.2599 62.4232 38.4502 62.3469 38.6272C62.2705 38.8042 62.1601 38.9645 62.0218 39.0988Z" fill="black"/>
<path id="Vector_121" opacity="0.25" d="M63.5655 45.8842C62.8416 46.249 60.083 45.9971 60.083 45.9971C60.083 45.9971 61.5207 43.6286 62.2447 43.2638C62.4173 43.1713 62.6067 43.1142 62.8017 43.096C62.9967 43.0777 63.1934 43.0987 63.3802 43.1577C63.567 43.2167 63.74 43.3125 63.8892 43.4394C64.0384 43.5663 64.1607 43.7218 64.2489 43.8967C64.337 44.0716 64.3893 44.2623 64.4026 44.4578C64.4159 44.6532 64.3899 44.8493 64.3262 45.0345C64.2625 45.2197 64.1624 45.3903 64.0318 45.5362C63.9011 45.6822 63.7426 45.8005 63.5655 45.8842Z" fill="black"/>
<path id="Vector_122" opacity="0.25" d="M64.1521 52.6888C63.5008 53.1704 60.7383 53.3883 60.7383 53.3883C60.7383 53.3883 61.7552 50.8113 62.4065 50.3289C62.7197 50.1011 63.1101 50.0063 63.4929 50.0651C63.8756 50.124 64.2196 50.3317 64.4499 50.643C64.6801 50.9543 64.7781 51.344 64.7223 51.7272C64.6665 52.1104 64.4616 52.456 64.1521 52.6888Z" fill="black"/>
</g>
<defs>
<linearGradient id="paint0_linear_645_8351" x1="43.4652" y1="60.727" x2="43.4652" y2="17.3322" gradientUnits="userSpaceOnUse">
<stop stop-color="#808080" stop-opacity="0.25"/>
<stop offset="0.54" stop-color="#808080" stop-opacity="0.12"/>
<stop offset="1" stop-color="#808080" stop-opacity="0.1"/>
</linearGradient>
</defs>
</svg>
