<svg width="160" height="58" viewBox="0 0 160 58" fill="none" xmlns="http://www.w3.org/2000/svg">
<rect width="160" height="58" rx="8" fill="#262C55"/>
<path d="M55.125 21H52.8807V13.7273H55.2244C55.9299 13.7273 56.5336 13.8729 57.0355 14.1641C57.5374 14.4529 57.9221 14.8684 58.1896 15.4105C58.4571 15.9503 58.5909 16.5966 58.5909 17.3494C58.5909 18.107 58.456 18.7592 58.1861 19.3061C57.9162 19.8506 57.5232 20.2696 57.0071 20.5632C56.491 20.8544 55.8636 21 55.125 21ZM53.7614 20.2188H55.0682C55.6695 20.2188 56.1679 20.1027 56.5632 19.8707C56.9586 19.6387 57.2533 19.3085 57.4474 18.88C57.6416 18.4515 57.7386 17.9413 57.7386 17.3494C57.7386 16.7623 57.6428 16.2569 57.451 15.8331C57.2592 15.407 56.9728 15.0803 56.5916 14.853C56.2105 14.6233 55.7358 14.5085 55.1676 14.5085H53.7614V20.2188ZM62.1705 21.1136C61.678 21.1136 61.246 20.9964 60.8743 20.7621C60.505 20.5277 60.2161 20.1998 60.0078 19.7784C59.8018 19.357 59.6989 18.8646 59.6989 18.3011C59.6989 17.733 59.8018 17.237 60.0078 16.8132C60.2161 16.3894 60.505 16.0604 60.8743 15.826C61.246 15.5916 61.678 15.4744 62.1705 15.4744C62.6629 15.4744 63.0938 15.5916 63.4631 15.826C63.8348 16.0604 64.1236 16.3894 64.3295 16.8132C64.5379 17.237 64.642 17.733 64.642 18.3011C64.642 18.8646 64.5379 19.357 64.3295 19.7784C64.1236 20.1998 63.8348 20.5277 63.4631 20.7621C63.0938 20.9964 62.6629 21.1136 62.1705 21.1136ZM62.1705 20.3608C62.5445 20.3608 62.8523 20.2649 63.0938 20.0732C63.3352 19.8814 63.514 19.6293 63.63 19.3168C63.746 19.0043 63.804 18.6657 63.804 18.3011C63.804 17.9366 63.746 17.5968 63.63 17.282C63.514 16.9671 63.3352 16.7126 63.0938 16.5185C62.8523 16.3243 62.5445 16.2273 62.1705 16.2273C61.7964 16.2273 61.4886 16.3243 61.2472 16.5185C61.0057 16.7126 60.8269 16.9671 60.7109 17.282C60.5949 17.5968 60.5369 17.9366 60.5369 18.3011C60.5369 18.6657 60.5949 19.0043 60.7109 19.3168C60.8269 19.6293 61.0057 19.8814 61.2472 20.0732C61.4886 20.2649 61.7964 20.3608 62.1705 20.3608ZM66.9716 21L65.3097 15.5455H66.1903L67.3693 19.7216H67.4261L68.5909 15.5455H69.4858L70.6364 19.7074H70.6932L71.8722 15.5455H72.7528L71.0909 21H70.267L69.0739 16.8097H68.9886L67.7955 21H66.9716ZM74.6989 17.7188V21H73.8608V15.5455H74.6705V16.3977H74.7415C74.8693 16.1207 75.0634 15.8982 75.3239 15.7301C75.5843 15.5597 75.9205 15.4744 76.3324 15.4744C76.7017 15.4744 77.0249 15.5502 77.3018 15.7017C77.5788 15.8509 77.7943 16.0781 77.9482 16.3835C78.102 16.6866 78.179 17.0701 78.179 17.5341V21H77.3409V17.5909C77.3409 17.1624 77.2296 16.8286 77.0071 16.5895C76.7846 16.348 76.4792 16.2273 76.0909 16.2273C75.8234 16.2273 75.5843 16.2853 75.3736 16.4013C75.1652 16.5173 75.0007 16.6866 74.88 16.9091C74.7592 17.1316 74.6989 17.4015 74.6989 17.7188ZM80.5485 13.7273V21H79.7104V13.7273H80.5485ZM84.2994 21.1136C83.8069 21.1136 83.3749 20.9964 83.0032 20.7621C82.6339 20.5277 82.3451 20.1998 82.1367 19.7784C81.9308 19.357 81.8278 18.8646 81.8278 18.3011C81.8278 17.733 81.9308 17.237 82.1367 16.8132C82.3451 16.3894 82.6339 16.0604 83.0032 15.826C83.3749 15.5916 83.8069 15.4744 84.2994 15.4744C84.7918 15.4744 85.2227 15.5916 85.592 15.826C85.9637 16.0604 86.2525 16.3894 86.4585 16.8132C86.6668 17.237 86.771 17.733 86.771 18.3011C86.771 18.8646 86.6668 19.357 86.4585 19.7784C86.2525 20.1998 85.9637 20.5277 85.592 20.7621C85.2227 20.9964 84.7918 21.1136 84.2994 21.1136ZM84.2994 20.3608C84.6734 20.3608 84.9812 20.2649 85.2227 20.0732C85.4641 19.8814 85.6429 19.6293 85.7589 19.3168C85.8749 19.0043 85.9329 18.6657 85.9329 18.3011C85.9329 17.9366 85.8749 17.5968 85.7589 17.282C85.6429 16.9671 85.4641 16.7126 85.2227 16.5185C84.9812 16.3243 84.6734 16.2273 84.2994 16.2273C83.9253 16.2273 83.6175 16.3243 83.3761 16.5185C83.1346 16.7126 82.9558 16.9671 82.8398 17.282C82.7238 17.5968 82.6658 17.9366 82.6658 18.3011C82.6658 18.6657 82.7238 19.0043 82.8398 19.3168C82.9558 19.6293 83.1346 19.8814 83.3761 20.0732C83.6175 20.2649 83.9253 20.3608 84.2994 20.3608ZM89.6554 21.1278C89.3097 21.1278 88.996 21.0627 88.7143 20.9325C88.4326 20.8 88.2089 20.6094 88.0431 20.3608C87.8774 20.1098 87.7946 19.8068 87.7946 19.4517C87.7946 19.1392 87.8561 18.8859 87.9792 18.6918C88.1023 18.4953 88.2669 18.3414 88.4728 18.2301C88.6788 18.1188 88.9061 18.036 89.1547 17.9815C89.4056 17.9247 89.6577 17.8797 89.911 17.8466C90.2425 17.804 90.5112 17.772 90.7172 17.7507C90.9255 17.727 91.077 17.688 91.1717 17.6335C91.2688 17.5791 91.3173 17.4844 91.3173 17.3494V17.321C91.3173 16.9706 91.2214 16.6984 91.0297 16.5043C90.8403 16.3101 90.5526 16.2131 90.1667 16.2131C89.7666 16.2131 89.4529 16.3007 89.2257 16.4759C88.9984 16.651 88.8386 16.8381 88.7463 17.0369L87.9508 16.7528C88.0929 16.4214 88.2823 16.1634 88.519 15.9787C88.7581 15.7917 89.0185 15.6615 89.3002 15.5881C89.5843 15.5123 89.8637 15.4744 90.1383 15.4744C90.3135 15.4744 90.5147 15.4957 90.742 15.5384C90.9717 15.5786 91.193 15.6626 91.4061 15.7905C91.6215 15.9183 91.8002 16.1113 91.9423 16.3693C92.0843 16.6274 92.1554 16.973 92.1554 17.4062V21H91.3173V20.2614H91.2747C91.2179 20.3797 91.1232 20.5064 90.9906 20.6413C90.858 20.7763 90.6816 20.8911 90.4615 20.9858C90.2413 21.0805 89.9726 21.1278 89.6554 21.1278ZM89.7832 20.375C90.1146 20.375 90.394 20.3099 90.6213 20.1797C90.8509 20.0495 91.0237 19.8814 91.1397 19.6754C91.2581 19.4695 91.3173 19.2528 91.3173 19.0256V18.2585C91.2818 18.3011 91.2037 18.3402 91.0829 18.3757C90.9645 18.4089 90.8272 18.4384 90.671 18.4645C90.5171 18.4882 90.3668 18.5095 90.22 18.5284C90.0756 18.545 89.9584 18.5592 89.8684 18.571C89.6506 18.5994 89.447 18.6456 89.2576 18.7095C89.0706 18.7711 88.9191 18.8646 88.8031 18.9901C88.6895 19.1132 88.6326 19.2812 88.6326 19.4943C88.6326 19.7855 88.7404 20.0057 88.9558 20.1548C89.1736 20.3016 89.4494 20.375 89.7832 20.375ZM95.7447 21.1136C95.2901 21.1136 94.8888 20.9988 94.5408 20.7692C94.1928 20.5372 93.9206 20.2105 93.7241 19.7891C93.5276 19.3653 93.4293 18.8646 93.4293 18.2869C93.4293 17.714 93.5276 17.2169 93.7241 16.7955C93.9206 16.3741 94.194 16.0485 94.5444 15.8189C94.8948 15.5893 95.2996 15.4744 95.7589 15.4744C96.114 15.4744 96.3945 15.5336 96.6005 15.652C96.8088 15.768 96.9674 15.9006 97.0763 16.0497C97.1876 16.1965 97.274 16.3172 97.3356 16.4119H97.4066V13.7273H98.2447V21H97.435V20.1619H97.3356C97.274 20.2614 97.1864 20.3868 97.0728 20.5384C96.9592 20.6875 96.797 20.8213 96.5863 20.9396C96.3756 21.0556 96.0951 21.1136 95.7447 21.1136ZM95.8583 20.3608C96.1945 20.3608 96.4786 20.2732 96.7106 20.098C96.9426 19.9205 97.119 19.6754 97.2397 19.3629C97.3604 19.0481 97.4208 18.6847 97.4208 18.2727C97.4208 17.8655 97.3616 17.5092 97.2433 17.2038C97.1249 16.8961 96.9497 16.657 96.7177 16.4865C96.4857 16.3137 96.1992 16.2273 95.8583 16.2273C95.5032 16.2273 95.2073 16.3184 94.9705 16.5007C94.7362 16.6806 94.5598 16.9257 94.4414 17.2358C94.3254 17.5436 94.2674 17.8892 94.2674 18.2727C94.2674 18.661 94.3266 19.0137 94.445 19.331C94.5657 19.6458 94.7433 19.8968 94.9776 20.0838C95.2144 20.2685 95.5079 20.3608 95.8583 20.3608ZM104.924 21.1136C104.432 21.1136 104 20.9964 103.628 20.7621C103.259 20.5277 102.97 20.1998 102.762 19.7784C102.556 19.357 102.453 18.8646 102.453 18.3011C102.453 17.733 102.556 17.237 102.762 16.8132C102.97 16.3894 103.259 16.0604 103.628 15.826C104 15.5916 104.432 15.4744 104.924 15.4744C105.417 15.4744 105.848 15.5916 106.217 15.826C106.589 16.0604 106.877 16.3894 107.083 16.8132C107.292 17.237 107.396 17.733 107.396 18.3011C107.396 18.8646 107.292 19.357 107.083 19.7784C106.877 20.1998 106.589 20.5277 106.217 20.7621C105.848 20.9964 105.417 21.1136 104.924 21.1136ZM104.924 20.3608C105.298 20.3608 105.606 20.2649 105.848 20.0732C106.089 19.8814 106.268 19.6293 106.384 19.3168C106.5 19.0043 106.558 18.6657 106.558 18.3011C106.558 17.9366 106.5 17.5968 106.384 17.282C106.268 16.9671 106.089 16.7126 105.848 16.5185C105.606 16.3243 105.298 16.2273 104.924 16.2273C104.55 16.2273 104.243 16.3243 104.001 16.5185C103.76 16.7126 103.581 16.9671 103.465 17.282C103.349 17.5968 103.291 17.9366 103.291 18.3011C103.291 18.6657 103.349 19.0043 103.465 19.3168C103.581 19.6293 103.76 19.8814 104.001 20.0732C104.243 20.2649 104.55 20.3608 104.924 20.3608ZM109.513 17.7188V21H108.675V15.5455H109.485V16.3977H109.556C109.684 16.1207 109.878 15.8982 110.138 15.7301C110.399 15.5597 110.735 15.4744 111.147 15.4744C111.516 15.4744 111.839 15.5502 112.116 15.7017C112.393 15.8509 112.609 16.0781 112.763 16.3835C112.916 16.6866 112.993 17.0701 112.993 17.5341V21H112.155V17.5909C112.155 17.1624 112.044 16.8286 111.822 16.5895C111.599 16.348 111.294 16.2273 110.905 16.2273C110.638 16.2273 110.399 16.2853 110.188 16.4013C109.98 16.5173 109.815 16.6866 109.694 16.9091C109.574 17.1316 109.513 17.4015 109.513 17.7188Z" fill="white"/>
<path d="M52.1477 41V29.3636H56.5114C57.4053 29.3636 58.1553 29.5303 58.7614 29.8636C59.3712 30.197 59.8314 30.6553 60.142 31.2386C60.4564 31.8182 60.6136 32.4773 60.6136 33.2159C60.6136 33.9621 60.4564 34.625 60.142 35.2045C59.8277 35.7841 59.3636 36.2405 58.75 36.5739C58.1364 36.9034 57.3807 37.0682 56.483 37.0682H53.5909V35.3352H56.1989C56.7216 35.3352 57.1496 35.2443 57.483 35.0625C57.8163 34.8807 58.0625 34.6307 58.2216 34.3125C58.3845 33.9943 58.4659 33.6288 58.4659 33.2159C58.4659 32.803 58.3845 32.4394 58.2216 32.125C58.0625 31.8106 57.8144 31.5663 57.4773 31.392C57.1439 31.214 56.714 31.125 56.1875 31.125H54.2557V41H52.1477ZM64.4105 29.3636V41H62.3537V29.3636H64.4105ZM69.0369 41.1761C68.4839 41.1761 67.9858 41.0777 67.5426 40.8807C67.1032 40.6799 66.7547 40.3845 66.4972 39.9943C66.2434 39.6042 66.1165 39.1231 66.1165 38.5511C66.1165 38.0587 66.2074 37.6515 66.3892 37.3295C66.571 37.0076 66.8191 36.75 67.1335 36.5568C67.4479 36.3636 67.8021 36.2178 68.196 36.1193C68.5938 36.017 69.0047 35.9432 69.429 35.8977C69.9403 35.8447 70.3551 35.7973 70.6733 35.7557C70.9915 35.7102 71.2225 35.642 71.3665 35.5511C71.5142 35.4564 71.5881 35.3106 71.5881 35.1136V35.0795C71.5881 34.6515 71.4612 34.3201 71.2074 34.0852C70.9536 33.8504 70.5881 33.733 70.1108 33.733C69.607 33.733 69.2074 33.8428 68.9119 34.0625C68.6203 34.2822 68.4233 34.5417 68.321 34.8409L66.4006 34.5682C66.5521 34.0379 66.8021 33.5947 67.1506 33.2386C67.4991 32.8788 67.9252 32.6098 68.429 32.4318C68.9328 32.25 69.4896 32.1591 70.0994 32.1591C70.5199 32.1591 70.9384 32.2083 71.3551 32.3068C71.7718 32.4053 72.1525 32.5682 72.4972 32.7955C72.8419 33.0189 73.1184 33.3239 73.3267 33.7102C73.5388 34.0966 73.6449 34.5795 73.6449 35.1591V41H71.6676V39.8011H71.5994C71.4744 40.0436 71.2983 40.2708 71.071 40.483C70.8475 40.6913 70.5653 40.8598 70.2244 40.9886C69.8873 41.1136 69.4915 41.1761 69.0369 41.1761ZM69.571 39.6648C69.9839 39.6648 70.3419 39.5833 70.6449 39.4205C70.9479 39.2538 71.1809 39.0341 71.3438 38.7614C71.5104 38.4886 71.5938 38.1913 71.5938 37.8693V36.8409C71.5294 36.8939 71.4195 36.9432 71.2642 36.9886C71.1127 37.0341 70.9422 37.0739 70.7528 37.108C70.5634 37.142 70.3759 37.1723 70.1903 37.1989C70.0047 37.2254 69.8438 37.2481 69.7074 37.267C69.4006 37.3087 69.1259 37.3769 68.8835 37.4716C68.6411 37.5663 68.4498 37.6989 68.3097 37.8693C68.1695 38.036 68.0994 38.2519 68.0994 38.517C68.0994 38.8958 68.2377 39.1818 68.5142 39.375C68.7907 39.5682 69.143 39.6648 69.571 39.6648ZM76.679 44.2727C76.3987 44.2727 76.1392 44.25 75.9006 44.2045C75.6657 44.1629 75.4782 44.1136 75.3381 44.0568L75.8153 42.4545C76.1146 42.5417 76.3816 42.5833 76.6165 42.5795C76.8513 42.5758 77.0578 42.5019 77.2358 42.358C77.4176 42.2178 77.571 41.983 77.696 41.6534L77.8722 41.1818L74.7074 32.2727H76.8892L78.9006 38.8636H78.9915L81.0085 32.2727H83.196L79.7017 42.0568C79.5388 42.5189 79.3229 42.9148 79.054 43.2443C78.785 43.5777 78.4555 43.8314 78.0653 44.0057C77.679 44.1837 77.2169 44.2727 76.679 44.2727ZM91.0341 32.5625C90.9811 32.0663 90.7576 31.6799 90.3636 31.4034C89.9735 31.1269 89.4659 30.9886 88.8409 30.9886C88.4015 30.9886 88.0246 31.0549 87.7102 31.1875C87.3958 31.3201 87.1553 31.5 86.9886 31.7273C86.822 31.9545 86.7367 32.214 86.733 32.5057C86.733 32.7481 86.7879 32.9583 86.8977 33.1364C87.0114 33.3144 87.1648 33.4659 87.358 33.5909C87.5511 33.7121 87.7652 33.8144 88 33.8977C88.2348 33.9811 88.4716 34.0511 88.7102 34.108L89.8011 34.3807C90.2405 34.483 90.6629 34.6212 91.0682 34.7955C91.4773 34.9697 91.8428 35.1894 92.1648 35.4545C92.4905 35.7197 92.7481 36.0398 92.9375 36.4148C93.1269 36.7898 93.2216 37.2292 93.2216 37.733C93.2216 38.4148 93.0473 39.0152 92.6989 39.5341C92.3504 40.0492 91.8466 40.4527 91.1875 40.7443C90.5322 41.0322 89.7386 41.1761 88.8068 41.1761C87.9015 41.1761 87.1155 41.036 86.4489 40.7557C85.786 40.4754 85.267 40.0663 84.892 39.5284C84.5208 38.9905 84.3201 38.3352 84.2898 37.5625H86.3636C86.3939 37.9678 86.5189 38.3049 86.7386 38.5739C86.9583 38.8428 87.2443 39.0436 87.5966 39.1761C87.9527 39.3087 88.3504 39.375 88.7898 39.375C89.2481 39.375 89.6496 39.3068 89.9943 39.1705C90.3428 39.0303 90.6155 38.8371 90.8125 38.5909C91.0095 38.3409 91.1098 38.0492 91.1136 37.7159C91.1098 37.4129 91.0208 37.1629 90.8466 36.9659C90.6723 36.7652 90.428 36.5985 90.1136 36.4659C89.803 36.3295 89.4394 36.2083 89.0227 36.1023L87.6989 35.7614C86.7405 35.5152 85.983 35.142 85.4261 34.642C84.8731 34.1383 84.5966 33.4697 84.5966 32.6364C84.5966 31.9508 84.7822 31.3504 85.1534 30.8352C85.5284 30.3201 86.0379 29.9205 86.6818 29.6364C87.3258 29.3485 88.0549 29.2045 88.8693 29.2045C89.6951 29.2045 90.4186 29.3485 91.0398 29.6364C91.6648 29.9205 92.1553 30.3163 92.5114 30.8239C92.8674 31.3277 93.0511 31.9072 93.0625 32.5625H91.0341ZM99.3679 32.2727V33.8636H94.3509V32.2727H99.3679ZM95.5895 30.1818H97.6463V38.375C97.6463 38.6515 97.688 38.8636 97.7713 39.0114C97.8584 39.1553 97.9721 39.2538 98.1122 39.3068C98.2524 39.3598 98.4077 39.3864 98.5781 39.3864C98.7069 39.3864 98.8243 39.3769 98.9304 39.358C99.0402 39.339 99.1236 39.322 99.1804 39.3068L99.527 40.9148C99.4171 40.9527 99.2599 40.9943 99.0554 41.0398C98.8546 41.0852 98.6084 41.1117 98.3168 41.1193C97.8016 41.1345 97.3376 41.0568 96.9247 40.8864C96.5118 40.7121 96.1842 40.4432 95.9418 40.0795C95.7031 39.7159 95.5857 39.2614 95.5895 38.7159V30.1818ZM104.801 41.1705C103.949 41.1705 103.21 40.983 102.585 40.608C101.96 40.233 101.475 39.7083 101.131 39.0341C100.79 38.3598 100.619 37.572 100.619 36.6705C100.619 35.7689 100.79 34.9792 101.131 34.3011C101.475 33.6231 101.96 33.0966 102.585 32.7216C103.21 32.3466 103.949 32.1591 104.801 32.1591C105.653 32.1591 106.392 32.3466 107.017 32.7216C107.642 33.0966 108.125 33.6231 108.466 34.3011C108.811 34.9792 108.983 35.7689 108.983 36.6705C108.983 37.572 108.811 38.3598 108.466 39.0341C108.125 39.7083 107.642 40.233 107.017 40.608C106.392 40.983 105.653 41.1705 104.801 41.1705ZM104.812 39.5227C105.275 39.5227 105.661 39.3958 105.972 39.142C106.282 38.8845 106.513 38.5398 106.665 38.108C106.82 37.6761 106.898 37.1951 106.898 36.6648C106.898 36.1307 106.82 35.6477 106.665 35.2159C106.513 34.7803 106.282 34.4337 105.972 34.1761C105.661 33.9186 105.275 33.7898 104.812 33.7898C104.339 33.7898 103.945 33.9186 103.631 34.1761C103.32 34.4337 103.087 34.7803 102.932 35.2159C102.78 35.6477 102.705 36.1307 102.705 36.6648C102.705 37.1951 102.78 37.6761 102.932 38.108C103.087 38.5398 103.32 38.8845 103.631 39.142C103.945 39.3958 104.339 39.5227 104.812 39.5227ZM110.729 41V32.2727H112.723V33.7273H112.814C112.973 33.2235 113.246 32.8352 113.632 32.5625C114.022 32.286 114.467 32.1477 114.967 32.1477C115.081 32.1477 115.208 32.1534 115.348 32.1648C115.492 32.1723 115.611 32.1856 115.706 32.2045V34.0966C115.619 34.0663 115.481 34.0398 115.291 34.017C115.106 33.9905 114.926 33.9773 114.751 33.9773C114.376 33.9773 114.039 34.0587 113.74 34.2216C113.445 34.3807 113.212 34.6023 113.041 34.8864C112.871 35.1705 112.786 35.4981 112.786 35.8693V41H110.729ZM120.577 41.1705C119.702 41.1705 118.946 40.9886 118.31 40.625C117.677 40.2576 117.19 39.7386 116.849 39.0682C116.509 38.3939 116.338 37.6004 116.338 36.6875C116.338 35.7898 116.509 35.0019 116.849 34.3239C117.194 33.642 117.675 33.1117 118.293 32.733C118.91 32.3504 119.635 32.1591 120.469 32.1591C121.007 32.1591 121.514 32.2462 121.991 32.4205C122.473 32.5909 122.897 32.8561 123.264 33.2159C123.635 33.5758 123.927 34.0341 124.139 34.5909C124.351 35.1439 124.457 35.803 124.457 36.5682V37.1989H117.304V35.8125H122.486C122.482 35.4186 122.397 35.0682 122.23 34.7614C122.063 34.4508 121.83 34.2064 121.531 34.0284C121.236 33.8504 120.891 33.7614 120.497 33.7614C120.077 33.7614 119.707 33.8636 119.389 34.0682C119.071 34.2689 118.823 34.5341 118.645 34.8636C118.471 35.1894 118.382 35.5473 118.378 35.9375V37.1477C118.378 37.6553 118.471 38.0909 118.656 38.4545C118.842 38.8144 119.101 39.0909 119.435 39.2841C119.768 39.4735 120.158 39.5682 120.605 39.5682C120.904 39.5682 121.175 39.5265 121.418 39.4432C121.66 39.3561 121.87 39.2292 122.048 39.0625C122.226 38.8958 122.361 38.6894 122.452 38.4432L124.372 38.6591C124.251 39.1667 124.02 39.6098 123.679 39.9886C123.342 40.3636 122.91 40.6553 122.384 40.8636C121.857 41.0682 121.255 41.1705 120.577 41.1705Z" fill="white"/>
<g clip-path="url(#clip0_81_27)">
<path d="M13.1058 16.3066C13.0436 16.5387 13 16.7876 13 17.073V40.5664C13 40.8478 13.042 41.0955 13.1029 41.3244L25.6123 28.8322L13.1058 16.3066Z" fill="#48A0DC"/>
<path d="M15.8891 15.3936C15.3068 15.0193 14.7328 14.9256 14.2481 15.0549L26.8098 27.636L30.4945 23.957L15.8891 15.3936Z" fill="#88C057"/>
<path d="M35.8791 27.1141L31.9803 24.8281L27.9875 28.8154L32.0552 32.8903L35.8491 30.6945C37.6992 29.583 37.0235 27.7919 35.8791 27.1141Z" fill="#FFCC66"/>
<path d="M26.7897 30.0107L14.2123 42.5693C14.7044 42.7146 15.2916 42.6283 15.8887 42.2445L30.5399 33.7664L26.7897 30.0107Z" fill="#ED7161"/>
</g>
<defs>
<clipPath id="clip0_81_27">
<rect width="24" height="27.6364" fill="white" transform="translate(13 15)"/>
</clipPath>
</defs>
</svg>
