<svg width="84" height="26" viewBox="0 0 84 26" fill="none" xmlns="http://www.w3.org/2000/svg">
<g id="undraw_houses_re_uaq7 1" clip-path="url(#clip0_645_8491)">
<g id="Group">
<path id="Vector" d="M0 25.8584C0 25.9337 0.0497868 25.9941 0.111785 25.9941H83.2688C83.3308 25.9941 83.3806 25.9337 83.3806 25.8584C83.3806 25.7831 83.3308 25.7227 83.2688 25.7227H0.111785C0.0497868 25.7227 0 25.7831 0 25.8584Z" fill="#3F3D56"/>
<g id="Group_2">
<path id="Vector_2" d="M39.5021 11.3208V25.5437H2.31689V13.1394L3.55087 10.1562H38.9933L39.5021 11.3208Z" fill="#E6E6E6"/>
<path id="Vector_3" d="M41.7308 16.4194L39.5022 14.5219L35.5544 11.1614L29.6965 16.5741L2.31699 16.7596L0.814941 16.7697L2.31699 13.1394L3.55097 10.1562L5.05494 3.11974L37.3373 2.96509L38.9934 10.1562L39.5022 11.3207L41.7308 16.4194Z" fill="#2F2E41"/>
<path id="Vector_4" d="M25.4939 14.5191H10.7217V6.94137L18.1078 3.66089L25.4939 6.94137V14.5191Z" fill="#E6E6E6"/>
<path id="Vector_5" d="M9.9898 17.7727H3.49512V25.5437H9.9898V17.7727Z" fill="white"/>
<path id="Vector_6" d="M24.2522 17.7727H12.4727V25.5437H24.2522V17.7727Z" fill="white"/>
<path id="Vector_7" d="M28.4548 18.3911H26.481V25.5436H28.4548V18.3911Z" fill="white"/>
<g id="Group_3">
<path id="Vector_8" d="M37.022 16.7693H33.0059V21.7024H37.022V16.7693Z" fill="#6C63FF"/>
<path id="Vector_9" d="M35.1295 16.7693H34.8525V21.7024H35.1295V16.7693Z" fill="#E6E6E6"/>
</g>
<g id="Group_4">
<path id="Vector_10" d="M24.2236 8.26367H20.2075V13.1968H24.2236V8.26367Z" fill="#6C63FF"/>
<path id="Vector_11" d="M22.3312 8.26367H22.0542V13.1968H22.3312V8.26367Z" fill="#E6E6E6"/>
</g>
<g id="Group_5">
<path id="Vector_12" d="M16.8374 8.26367H12.8213V13.1968H16.8374V8.26367Z" fill="#6C63FF"/>
<path id="Vector_13" d="M14.9449 8.26367H14.668V13.1968H14.9449V8.26367Z" fill="#E6E6E6"/>
</g>
</g>
<g id="Group_6">
<path id="Vector_14" d="M81.7711 11.3208V25.5437H44.5859V13.1394L45.8199 10.1562H81.2624L81.7711 11.3208Z" fill="#E6E6E6"/>
<path id="Vector_15" d="M83.9998 16.4194L81.7712 14.5219L77.8235 11.1614L71.9655 16.5741L44.586 16.7596L43.084 16.7697L44.586 13.1394L45.82 10.1562L47.324 3.11974L79.6063 2.96509L81.2625 10.1562L81.7712 11.3207L83.9998 16.4194Z" fill="#2F2E41"/>
<path id="Vector_16" d="M67.7629 14.5191H52.9907V6.94137L60.3768 3.66089L67.7629 6.94137V14.5191Z" fill="#E6E6E6"/>
<path id="Vector_17" d="M52.2588 17.7727H45.7642V25.5437H52.2588V17.7727Z" fill="white"/>
<path id="Vector_18" d="M66.5213 17.7727H54.7417V25.5437H66.5213V17.7727Z" fill="white"/>
<path id="Vector_19" d="M70.7239 18.3911H68.75V25.5436H70.7239V18.3911Z" fill="white"/>
<g id="Group_7">
<path id="Vector_20" d="M79.291 16.7693H75.2749V21.7024H79.291V16.7693Z" fill="#6C63FF"/>
<path id="Vector_21" d="M77.3986 16.7693H77.1216V21.7024H77.3986V16.7693Z" fill="#E6E6E6"/>
</g>
<g id="Group_8">
<path id="Vector_22" d="M66.4927 8.26367H62.4766V13.1968H66.4927V8.26367Z" fill="#6C63FF"/>
<path id="Vector_23" d="M64.6002 8.26367H64.3232V13.1968H64.6002V8.26367Z" fill="#E6E6E6"/>
</g>
<g id="Group_9">
<path id="Vector_24" d="M59.1064 8.26367H55.0903V13.1968H59.1064V8.26367Z" fill="#6C63FF"/>
<path id="Vector_25" d="M57.214 8.26367H56.937V13.1968H57.214V8.26367Z" fill="#E6E6E6"/>
</g>
</g>
<path id="Vector_26" d="M78.1765 12.7678H76.2979V15.0492H78.1765V12.7678Z" fill="#3F3D56"/>
<path id="Vector_27" d="M36.3767 12.7678H34.498V15.0492H36.3767V12.7678Z" fill="#3F3D56"/>
</g>
<path id="Vector_28" d="M22.2587 0H21.3193V3.65022H22.2587V0Z" fill="#2F2E41"/>
<path id="Vector_29" d="M62.9315 0H61.9922V3.65022H62.9315V0Z" fill="#2F2E41"/>
</g>
<defs>
<clipPath id="clip0_645_8491">
<rect width="84" height="25.9942" fill="white"/>
</clipPath>
</defs>
</svg>
