<svg width="42" height="45" viewBox="0 0 42 45" fill="none" xmlns="http://www.w3.org/2000/svg">
<g id="Group 16586">
<path id="Vector" d="M37.5789 0H15.4734C13.0351 0 11.0523 1.98286 11.0523 4.4211V16.7692L0.64722 27.1743C0.338165 27.4835 0.127706 27.8773 0.0424503 28.306C-0.0428053 28.7348 0.000970324 29.1792 0.168243 29.583C0.335515 29.9869 0.618774 30.3321 0.982211 30.575C1.34565 30.8179 1.77294 30.9476 2.21008 30.9477V42.0005C2.21008 42.5867 2.44298 43.149 2.85754 43.5636C3.27209 43.9781 3.83436 44.211 4.42063 44.211H39.7895C40.3757 44.211 40.938 43.9781 41.3525 43.5636C41.7671 43.149 42 42.5867 42 42.0005V4.4211C42 1.98286 40.0171 0 37.5789 0ZM19.8945 39.7899H6.63118V27.4418L13.2628 20.8101L19.8945 27.4418V39.7899ZM37.5789 39.7899H24.3156V30.9477C24.7532 30.9487 25.1812 30.8196 25.5454 30.5769C25.9095 30.3342 26.1933 29.9887 26.3607 29.5844C26.5282 29.1801 26.5717 28.7352 26.4859 28.3061C26.4 27.877 26.1886 27.483 25.8785 27.1743L15.4734 16.7692V4.4211H37.5789V39.7899Z" fill="#F1A5C2"/>
<path id="Vector_2" d="M19.8949 8.84204H24.316V13.2631H19.8949V8.84204ZM28.7371 8.84204H33.1582V13.2631H28.7371V8.84204ZM28.7371 17.7528H33.1582V22.1053H28.7371V17.7528ZM28.7371 26.5265H33.1582V30.9476H28.7371V26.5265ZM11.0527 28.737H15.4738V33.1581H11.0527V28.737Z" fill="#F1A5C2"/>
</g>
</svg>
