<svg width="21" height="21" viewBox="0 0 21 21" fill="none" xmlns="http://www.w3.org/2000/svg">
<path id="Vector" d="M20.5099 0.191365C20.6011 0.282757 20.6635 0.398944 20.6893 0.525493C20.7151 0.652043 20.7031 0.783377 20.6549 0.903182L12.9844 20.0788C12.9168 20.2476 12.8039 20.3946 12.6582 20.5034C12.5125 20.6123 12.3395 20.6788 12.1584 20.6957C11.9773 20.7126 11.795 20.6792 11.6317 20.5992C11.4683 20.5192 11.3302 20.3957 11.2325 20.2422L7.04337 13.6579L0.459061 9.46872C0.305253 9.37115 0.181389 9.23299 0.101136 9.06948C0.0208827 8.90597 -0.012639 8.72347 0.00426946 8.54211C0.0211779 8.36075 0.0878593 8.18759 0.196956 8.04173C0.306052 7.89588 0.453322 7.78299 0.622516 7.71554L19.7981 0.0476828C19.9179 -0.000546433 20.0492 -0.0125151 20.1758 0.0132634C20.3023 0.039042 20.4185 0.101432 20.5099 0.192683V0.191365ZM8.35891 13.273L11.9984 18.9913L18.2374 3.39454L8.35891 13.273ZM17.3054 2.46259L1.7087 8.70154L7.42828 12.3397L17.3067 2.46259H17.3054Z" fill="#262C55" fill-opacity="0.4"/>
</svg>
