<svg width="84" height="53" viewBox="0 0 84 53" fill="none" xmlns="http://www.w3.org/2000/svg">
<g id="undraw_best_place_re_lne9 1" clip-path="url(#clip0_645_8570)">
<path id="Vector" d="M58.382 11.7009C58.382 16.3105 51.1767 29.9047 47.0454 37.3203C46.7652 37.8234 46.3557 38.2426 45.8592 38.5344C45.3627 38.8262 44.7972 38.98 44.2213 38.98C43.6454 38.98 43.0799 38.8262 42.5834 38.5344C42.0869 38.2426 41.6774 37.8234 41.3971 37.3203C37.2659 29.9047 30.0605 16.3105 30.0605 11.7009C30.0605 5.23868 36.4005 0 44.2213 0C52.0421 0 58.382 5.23868 58.382 11.7009Z" fill="#3D79EF" fill-opacity="0.22"/>
<path id="Vector_2" d="M43.7461 19.2522C47.3359 19.2522 50.2461 16.3421 50.2461 12.7522C50.2461 9.16235 47.3359 6.2522 43.7461 6.2522C40.1562 6.2522 37.2461 9.16235 37.2461 12.7522C37.2461 16.3421 40.1562 19.2522 43.7461 19.2522Z" fill="white"/>
<path id="Vector_3" d="M10.2613 20.4515C13.0745 20.4515 15.3551 18.1709 15.3551 15.3577C15.3551 12.5445 13.0745 10.2639 10.2613 10.2639C7.44805 10.2639 5.16748 12.5445 5.16748 15.3577C5.16748 18.1709 7.44805 20.4515 10.2613 20.4515Z" fill="#F1A5C2"/>
<path id="Vector_4" d="M45.6764 52.9835C52.4862 52.9835 58.0066 52.5574 58.0066 52.0317C58.0066 51.506 52.4862 51.0798 45.6764 51.0798C38.8666 51.0798 33.3462 51.506 33.3462 52.0317C33.3462 52.5574 38.8666 52.9835 45.6764 52.9835Z" fill="#3D79EF"/>
<path id="Vector_5" opacity="0.4" d="M9.22395 19.8875C9.4832 18.2899 8.39828 16.7847 6.80071 16.5254C5.20315 16.2662 3.6979 17.3511 3.43865 18.9487C3.1794 20.5462 4.26432 22.0515 5.86189 22.3107C7.45946 22.57 8.9647 21.485 9.22395 19.8875Z" fill="#3D79EF"/>
<path id="Vector_6" d="M74.8931 34.5352C51.8153 25.8841 23.6687 34.3181 7.41799 51.5703C7.32561 51.6671 7.23324 51.7654 7.1438 51.8636H6.896C6.98104 51.7654 7.06901 51.6671 7.15553 51.5703C23.7435 33.0058 51.5162 25.607 74.8931 34.5352Z" fill="#3F3D56"/>
<path id="Vector_7" d="M81.1995 37.4047C79.1597 36.3168 77.0533 35.3584 74.8931 34.5352C77.059 35.3448 79.1662 36.3036 81.1995 37.4047Z" fill="#3F3D56"/>
<path id="Vector_8" opacity="0.4" d="M68.5691 28.7734C70.3442 28.7734 71.7832 27.3344 71.7832 25.5593C71.7832 23.7842 70.3442 22.3452 68.5691 22.3452C66.794 22.3452 65.355 23.7842 65.355 25.5593C65.355 27.3344 66.794 28.7734 68.5691 28.7734Z" fill="#3D79EF"/>
<path id="Vector_9" d="M68.9271 50.2818C69.1754 51.1999 70.0262 51.7686 70.0262 51.7686C70.0262 51.7686 70.4742 50.8486 70.2259 49.9304C69.9775 49.0123 69.1267 48.4436 69.1267 48.4436C69.1267 48.4436 68.6787 49.3636 68.9271 50.2818Z" fill="#3F3D56"/>
<path id="Vector_10" d="M69.2917 50.0845C69.9733 50.748 70.0565 51.7679 70.0565 51.7679C70.0565 51.7679 69.0347 51.7121 68.3532 51.0486C67.6716 50.3851 67.5884 49.3652 67.5884 49.3652C67.5884 49.3652 68.6102 49.421 69.2917 50.0845Z" fill="#3D79EF"/>
<path id="Vector_11" d="M0.492746 37.5154V38.9318L0.422363 39.0081V37.5007C0.445824 37.5051 0.46929 37.511 0.492746 37.5154Z" fill="#3F3D56"/>
<path id="Vector_12" d="M5.00594 51.5697C4.98542 51.6034 4.96342 51.6372 4.94143 51.6709H0.422363V37.5858L0.492746 37.5154L1.09245 38.1973V37.2002H2.99861V40.3644L4.92383 42.5506L4.94143 42.5712C4.96489 42.6445 4.98688 42.7178 5.00887 42.7911C5.00903 42.7922 5.00954 42.7933 5.01034 42.794C5.29907 43.718 5.536 44.6574 5.72002 45.6078C6.13937 47.8498 6.07632 49.9055 5.00594 51.5697Z" fill="#CCCCCC"/>
<path id="Vector_13" d="M2.00916 45.301H0.795898V46.3121H2.00916V45.301Z" fill="#3F3D56"/>
<path id="Vector_14" d="M2.00916 47.1208H0.795898V48.1319H2.00916V47.1208Z" fill="#3F3D56"/>
<path id="Vector_15" d="M39.3825 43.3801L38.7759 42.3691L44.4378 37.516C48.6235 35.5012 53.6692 36.0826 58.997 37.516V38.9314L53.7395 44.5934L47.6731 45.8066L39.3825 43.3801Z" fill="#3F3D56"/>
<path id="Vector_16" d="M61.5029 40.364C62.5084 39.2456 62.648 38.1822 61.5029 37.2002H59.5967V38.1979L58.9968 37.516L54.1437 42.3691L53.3347 43.1779L52.3237 47.2222L54.1437 51.6707H63.4453V42.5713L61.5029 40.364Z" fill="#CCCCCC"/>
<path id="Vector_17" d="M38.7757 42.3689H54.1437V51.6706H38.7757C36.9164 49.6591 37.8823 45.9927 38.7757 42.3689Z" fill="#F2F2F2"/>
<path id="Vector_18" d="M52.0205 45.301H48.7852V48.132H52.0205V45.301Z" fill="#3F3D56"/>
<path id="Vector_19" d="M47.4706 45.2H44.6396V51.6707H47.4706V45.2Z" fill="#CCCCCC"/>
<path id="Vector_20" d="M41.4046 46.2109V45.2H40.1914V46.2109H41.3034H41.4046Z" fill="#3F3D56"/>
<path id="Vector_21" d="M41.3034 47.0198H40.1914V48.0309H41.4046V47.0198H41.3034Z" fill="#3F3D56"/>
<path id="Vector_22" d="M43.4266 45.2H42.2134V46.211H43.4266V45.2Z" fill="#3F3D56"/>
<path id="Vector_23" d="M43.4266 47.0198H42.2134V48.0308H43.4266V47.0198Z" fill="#3F3D56"/>
<path id="Vector_24" d="M58.4912 46.3122V45.301H57.2778V46.3122H58.39H58.4912Z" fill="#3F3D56"/>
<path id="Vector_25" d="M58.39 47.1211H57.2778V48.1321H58.4912V47.1211H58.39Z" fill="#3F3D56"/>
<path id="Vector_26" d="M60.5136 45.301H59.3003V46.3121H60.5136V45.301Z" fill="#3F3D56"/>
<path id="Vector_27" d="M60.5136 47.1208H59.3003V48.1319H60.5136V47.1208Z" fill="#3F3D56"/>
<path id="Vector_28" d="M12.0183 26.3945L11.0073 25.5855L16.6692 20.5303H31.0261V24.979L21.7245 31.2476L12.0183 26.3945Z" fill="#3F3D56"/>
<path id="Vector_29" d="M33.644 23.3661V20.6313H31.7378V21.3011L31.0264 20.5303L26.3755 25.5856L24.5557 26.7989L21.7339 47.4152L25.9895 51.6707H35.8795C37.3949 44.0479 38.5965 36.217 35.8795 25.7877L33.644 23.3661Z" fill="#CCCCCC"/>
<path id="Vector_30" d="M11.0074 25.5854H26.3754V51.6706H11.0074C9.32574 41.5368 8.50443 32.139 11.0074 25.5854Z" fill="#F2F2F2"/>
<path id="Vector_31" d="M19.8036 45.301H16.9727V51.6707H19.8036V45.301Z" fill="#CCCCCC"/>
<path id="Vector_32" d="M13.9393 47.1211V46.1101H12.7261V47.1211H13.8382H13.9393Z" fill="#3F3D56"/>
<path id="Vector_33" d="M13.8382 47.9297H12.7261V48.9408H13.9393V47.9297H13.8382Z" fill="#3F3D56"/>
<path id="Vector_34" d="M15.9613 46.1099H14.748V47.1209H15.9613V46.1099Z" fill="#3F3D56"/>
<path id="Vector_35" d="M22.1288 47.9297H21.0166V48.9408H22.2298V47.9297H22.1288Z" fill="#3F3D56"/>
<path id="Vector_36" d="M24.2523 46.1099H23.0391V47.1209H24.2523V46.1099Z" fill="#3F3D56"/>
<path id="Vector_37" d="M24.2523 47.9297H23.0391V48.9407H24.2523V47.9297Z" fill="#3F3D56"/>
<path id="Vector_38" d="M30.723 26.8999V25.8889H29.5098V26.8999H30.6219H30.723Z" fill="#3F3D56"/>
<path id="Vector_39" d="M30.6219 27.7087H29.5098V28.7197H30.723V27.7087H30.6219Z" fill="#3F3D56"/>
<path id="Vector_40" d="M32.745 25.8889H31.5317V26.9H32.745V25.8889Z" fill="#3F3D56"/>
<path id="Vector_41" d="M32.745 27.7087H31.5317V28.7198H32.745V27.7087Z" fill="#3F3D56"/>
<path id="Vector_42" d="M30.723 32.5619V31.5508H29.5098V32.5619H30.6219H30.723Z" fill="#3F3D56"/>
<path id="Vector_43" d="M30.6219 33.3706H29.5098V34.3816H30.723V33.3706H30.6219Z" fill="#3F3D56"/>
<path id="Vector_44" d="M32.745 31.5508H31.5317V32.5618H32.745V31.5508Z" fill="#3F3D56"/>
<path id="Vector_45" d="M32.745 33.3706H31.5317V34.3817H32.745V33.3706Z" fill="#3F3D56"/>
<path id="Vector_46" d="M30.723 38.2238V37.2126H29.5098V38.2238H30.6219H30.723Z" fill="#3F3D56"/>
<path id="Vector_47" d="M30.6219 39.0325H29.5098V40.0435H30.723V39.0325H30.6219Z" fill="#3F3D56"/>
<path id="Vector_48" d="M32.745 37.2126H31.5317V38.2237H32.745V37.2126Z" fill="#3F3D56"/>
<path id="Vector_49" d="M32.745 39.0325H31.5317V40.0435H32.745V39.0325Z" fill="#3F3D56"/>
<path id="Vector_50" d="M30.723 43.8857V42.8745H29.5098V43.8857H30.6219H30.723Z" fill="#3F3D56"/>
<path id="Vector_51" d="M30.6219 44.6946H29.5098V45.7056H30.723V44.6946H30.6219Z" fill="#3F3D56"/>
<path id="Vector_52" d="M32.745 42.8745H31.5317V43.8856H32.745V42.8745Z" fill="#3F3D56"/>
<path id="Vector_53" d="M32.745 44.6943H31.5317V45.7054H32.745V44.6943Z" fill="#3F3D56"/>
<path id="Vector_54" d="M12.7261 26.8999H24.4543V29.3264C20.695 28.2889 16.7749 28.3634 12.7261 29.3264V26.8999Z" fill="#3F3D56"/>
<path id="Vector_55" d="M12.7261 31.7529C16.3866 32.8314 20.296 32.8314 24.4543 31.7529V34.1795H12.7261V31.7529Z" fill="#3F3D56"/>
<path id="Vector_56" d="M12.7261 36.606H24.4543V39.0325C20.4573 37.7562 16.5438 37.696 12.7261 39.0325V36.606Z" fill="#3F3D56"/>
<path id="Vector_57" d="M12.7261 41.459C16.551 42.9331 20.4639 42.8718 24.4543 41.459V43.8855H12.7261V41.459Z" fill="#3F3D56"/>
<path id="Vector_58" d="M75.7594 37.2434H83.9999V41.2141L83.2638 41.4443L80.8151 42.2086L76.9735 41.3187L73.1363 40.4294L71.1099 39.96L70.0981 39.5857C70.9398 38.4309 72.4706 37.5226 75.7594 37.2434Z" fill="#3F3D56"/>
<path id="Vector_59" d="M84.0002 39.5857V51.6709H70.0984C70.094 51.6634 70.0911 51.6566 70.0867 51.6491V51.6485C70.0834 51.64 70.0795 51.6319 70.075 51.624C69.858 51.1872 69.6634 50.7515 69.4914 50.317C68.0325 46.6398 68.1908 43.0598 70.0984 39.5857H84.0002Z" fill="#F2F2F2"/>
<path id="Vector_60" d="M78.8944 45.301H76.0635V51.6707H78.8944V45.301Z" fill="#CCCCCC"/>
<path id="Vector_61" d="M73.0301 47.1211V46.1101H71.8169V47.1211H72.9291H73.0301Z" fill="#3F3D56"/>
<path id="Vector_62" d="M72.9291 47.9297H71.8169V48.9408H73.0301V47.9297H72.9291Z" fill="#3F3D56"/>
<path id="Vector_63" d="M75.0526 46.1099H73.8394V47.1209H75.0526V46.1099Z" fill="#3F3D56"/>
<path id="Vector_64" d="M75.0526 47.9297H73.8394V48.9407H75.0526V47.9297Z" fill="#3F3D56"/>
<path id="Vector_65" d="M81.3211 47.1211V46.1101H80.1079V47.1211H81.2201H81.3211Z" fill="#3F3D56"/>
<path id="Vector_66" d="M81.2201 47.9297H80.1079V48.9408H81.3211V47.9297H81.2201Z" fill="#3F3D56"/>
<path id="Vector_67" d="M83.3431 46.1099H82.1299V47.1209H83.3431V46.1099Z" fill="#3F3D56"/>
<path id="Vector_68" d="M83.3431 47.9297H82.1299V48.9407H83.3431V47.9297Z" fill="#3F3D56"/>
<path id="Vector_69" d="M73.1367 32.5513H74.8795C76.5984 32.5513 78.2469 33.2341 79.4624 34.4496C80.6778 35.665 81.3607 37.3135 81.3607 39.0324H73.1367V32.5513Z" fill="#3F3D56"/>
<path id="Vector_70" d="M20.3506 14.9561H22.0934C23.8123 14.9561 25.4608 15.6389 26.6762 16.8543C27.8917 18.0698 28.5745 19.7183 28.5745 21.4372H20.3506V14.9561Z" fill="#3F3D56"/>
<path id="Vector_71" d="M48.21 31.2317H49.9527C51.6717 31.2317 53.3202 31.9145 54.5356 33.13C55.7511 34.3454 56.4339 35.9939 56.4339 37.7129H48.21V31.2317Z" fill="#3F3D56"/>
<path id="Vector_72" d="M81.3607 41.459H73.1367V43.8855H81.3607V41.459Z" fill="#3F3D56"/>
<path id="Vector_73" d="M84 51.5703H0.422363V51.8636H84V51.5703Z" fill="#3F3D56"/>
<path id="Vector_74" d="M8.13066 39.9861H7.8374V51.5697H8.13066V39.9861Z" fill="#3F3D56"/>
<path id="Vector_75" d="M10.8369 41.4622C10.8555 45.5127 8.00581 48.8095 8.00581 48.8095C8.00581 48.8095 4.35636 45.469 5.10714 41.4886C5.86221 37.4856 8.2155 34.1584 7.93821 34.1414C7.93821 34.1414 10.8182 37.4117 10.8369 41.4622Z" fill="#3D79EF"/>
<path id="Vector_76" d="M37.4563 39.9861H37.1631V51.5697H37.4563V39.9861Z" fill="#3F3D56"/>
<path id="Vector_77" d="M40.1624 41.4622C40.4268 45.5041 37.3314 48.8095 37.3314 48.8095C37.3314 48.8095 34.4514 45.5391 34.4327 41.4886C34.414 37.4381 37.2638 34.1414 37.2638 34.1414C36.9859 35.2517 39.9486 38.1918 40.1624 41.4622Z" fill="#3D79EF"/>
<path id="Vector_78" d="M18.4038 21.1569L31.1419 20.5337L36.4855 24.994L35.5408 25.8469L27.079 25.6564L18.4038 21.1569Z" fill="#3F3D56"/>
<path id="Vector_79" d="M5.69355 41.8557L5.00733 42.4759L4.92375 42.5507L4.74927 42.709L0.422288 42.6123V37.5008C0.281525 37.47 0.140762 37.4407 0 37.4129L0.350442 37.3953L0.422288 37.4554L1.09238 38.014L2.99853 39.6064L5.12756 41.3835L5.69355 41.8557Z" fill="#3F3D56"/>
<path id="Vector_80" d="M46.2627 38.0189L59.0008 37.3958L64.3444 41.856L63.3996 42.709L54.9379 42.5185L46.2627 38.0189Z" fill="#3F3D56"/>
</g>
<defs>
<clipPath id="clip0_645_8570">
<rect width="84" height="52.9835" fill="white"/>
</clipPath>
</defs>
</svg>
