<svg width="12" height="12" viewBox="0 0 12 12" fill="none" xmlns="http://www.w3.org/2000/svg">
<path d="M10.1857 3.26516C10.8957 4.35177 11.1553 5.67188 10.9096 6.94641C10.6639 8.22093 9.93222 9.34996 8.86921 10.0948C7.80621 10.8396 6.49521 11.1419 5.21338 10.9377C3.93156 10.7335 2.77938 10.0388 2.00044 9.00056C1.2215 7.96228 0.876852 6.66178 1.03936 5.37401C1.20186 4.08623 1.85879 2.91212 2.87125 2.0999C3.8837 1.28768 5.17234 0.901018 6.46471 1.02166C7.75708 1.14229 8.95188 1.76078 9.79652 2.74635" stroke="#35A162" stroke-linecap="round" stroke-linejoin="round"/>
<path d="M8.48771 5.01107C8.73758 5.64204 8.73816 6.34443 8.48933 6.97582C8.2405 7.6072 7.76088 8.12034 7.14771 8.4112C6.53454 8.70205 5.83372 8.74885 5.18732 8.5421C4.54093 8.33536 3.99734 7.89055 3.66677 7.29785C3.3362 6.70516 3.24338 6.00893 3.40713 5.35033C3.57089 4.69173 3.97897 4.12005 4.54862 3.75119C5.11828 3.38233 5.80689 3.2439 6.47484 3.36396C7.14279 3.48402 7.74008 3.85359 8.14563 4.39774" stroke="#35A162" stroke-linecap="round" stroke-linejoin="round"/>
<path d="M9.79615 2.74658L6.00239 6.54034L4.90625 5.4442" stroke="#35A162" stroke-linecap="round" stroke-linejoin="round"/>
</svg>
